<svg xmlns="http://www.w3.org/2000/svg" viewBox="0 0 550.79 48"><defs><style>.cls-1{fill:#2a2a2a;}</style></defs><g id="light_logos" data-name="light logos"><path class="cls-1" d="M544.5,13.84h.93v2.95H546V13.84h1V13.3H544.5Z"/><path class="cls-1" d="M550,13.3l-.83,2.46-.79-2.46h-.88v3.49H548V14l.93,2.8h.39l.94-2.8v2.8h.54V13.3Z"/><path class="cls-1" d="M71.06,13.3c-6.23,0-10.65,5.22-10.65,11.59V25c0,6.87,4.87,11.54,11.19,11.54a11,11,0,0,0,8.92-4.17l-2.94-2.65a7.85,7.85,0,0,1-5.9,2.65A6.13,6.13,0,0,1,65.4,26.7h16c0-.51.09-1,.09-1.44C81.51,18.86,78,13.3,71.06,13.3Zm-5.7,10c.46-3.46,2.6-5.86,5.66-5.86,3.3,0,5.2,2.57,5.53,5.86Z"/><path class="cls-1" d="M94.51,22.86C92,22,89.6,21.35,89.6,19.7v-.08c0-1.22,1.11-2.19,3.05-2.19a12.48,12.48,0,0,1,6.16,2.11l2-3.63a14.9,14.9,0,0,0-8-2.53C88.44,13.38,85,16,85,20.21v.08c0,4.22,3.59,5.56,6.81,6.49,2.56.8,4.87,1.39,4.87,3.12V30c0,1.48-1.24,2.4-3.38,2.4a12.16,12.16,0,0,1-7.15-2.74L83.94,33.1a14.91,14.91,0,0,0,9.25,3.33c4.54,0,8.09-2.32,8.09-7v-.08C101.28,25.35,97.69,23.87,94.51,22.86Z"/><path class="cls-1" d="M114.39,22.86c-2.56-.84-4.91-1.51-4.91-3.16v-.08c0-1.22,1.11-2.19,3-2.19a12.48,12.48,0,0,1,6.16,2.11l2-3.63a14.9,14.9,0,0,0-8-2.53c-4.34,0-7.76,2.57-7.76,6.83v.08c0,4.22,3.59,5.56,6.81,6.49,2.56.8,4.87,1.39,4.87,3.12V30c0,1.48-1.24,2.4-3.38,2.4a12.16,12.16,0,0,1-7.15-2.74l-2.23,3.46a14.91,14.91,0,0,0,9.25,3.33c4.54,0,8.09-2.32,8.09-7v-.08C121.16,25.35,117.57,23.87,114.39,22.86Z"/><path class="cls-1" d="M134.8,13.3c-6.23,0-10.65,5.22-10.65,11.59V25c0,6.87,4.87,11.54,11.19,11.54a11,11,0,0,0,8.92-4.17l-2.93-2.65a7.88,7.88,0,0,1-5.91,2.65,6.12,6.12,0,0,1-6.27-5.64h16c0-.51.08-1,.08-1.44C145.25,18.86,141.74,13.3,134.8,13.3Zm-5.7,10c.46-3.46,2.61-5.86,5.66-5.86,3.3,0,5.2,2.57,5.53,5.86Z"/><path class="cls-1" d="M161.43,13.3a7.86,7.86,0,0,0-6.81,3.88V13.76h-5V36h5V23.45c0-3.45,2-5.52,4.91-5.52s4.67,2,4.67,5.44V36h5V21.81C169.2,16.67,166.35,13.3,161.43,13.3Z"/><path class="cls-1" d="M180.23,7.66h-5v6.1h-2.77v4.38h2.77V29.86c0,4.88,2.6,6.53,6.27,6.53a8.56,8.56,0,0,0,4.5-1.14V31.08a6.66,6.66,0,0,1-3.09.76c-1.7,0-2.69-.8-2.69-2.78V18.14h5.87V13.76h-5.87Z"/><rect class="cls-1" x="190.41" y="13.76" width="5.04" height="22.24"/><path class="cls-1" d="M209.77,13.47a18.67,18.67,0,0,0-8.26,1.81l1.36,4a15,15,0,0,1,6.24-1.39c3.51,0,5.4,1.69,5.4,4.85v.54a18,18,0,0,0-5.86-.92c-5.33,0-9,2.36-9,7.16v.08c0,4.47,3.67,6.87,7.76,6.87a8.77,8.77,0,0,0,7.1-3.24V36h4.88V22.82c0-2.91-.75-5.26-2.36-6.87S213,13.47,209.77,13.47ZM214.6,28c0,2.82-2.52,4.76-5.82,4.76-2.4,0-4.26-1.22-4.26-3.37v-.08c0-2.32,1.9-3.71,5.12-3.71a13.54,13.54,0,0,1,5,.89Z"/><rect class="cls-1" x="224.85" y="5.25" width="5.04" height="30.75"/><path class="cls-1" d="M256.65,13.47a18.67,18.67,0,0,0-8.26,1.81l1.36,4A15,15,0,0,1,256,17.89c3.5,0,5.4,1.69,5.4,4.85v.54a18,18,0,0,0-5.86-.92c-5.33,0-9,2.36-9,7.16v.08c0,4.47,3.67,6.87,7.76,6.87a8.77,8.77,0,0,0,7.1-3.24V36h4.88V22.82c0-2.91-.75-5.26-2.36-6.87S259.91,13.47,256.65,13.47ZM261.48,28c0,2.82-2.52,4.76-5.82,4.76-2.4,0-4.26-1.22-4.26-3.37v-.08c0-2.32,1.9-3.71,5.12-3.71a13.54,13.54,0,0,1,5,.89Z"/><path class="cls-1" d="M284.05,13.3a8.68,8.68,0,0,0-7.43,4.17V13.76h-5v29h5V32.55a8.85,8.85,0,0,0,7.43,3.92c5.16,0,10.12-4.17,10.12-11.54v-.09C294.17,17.43,289.17,13.3,284.05,13.3Zm5,11.63c0,4.38-2.81,7.12-6.23,7.12s-6.36-2.87-6.36-7.12v-.09c0-4.25,3-7.12,6.36-7.12s6.23,2.83,6.23,7.12Z"/><path class="cls-1" d="M311.13,13.3a8.7,8.7,0,0,0-7.44,4.17V13.76h-5v29h5V32.55a8.85,8.85,0,0,0,7.44,3.92c5.16,0,10.11-4.17,10.11-11.54v-.09C321.24,17.43,316.25,13.3,311.13,13.3Zm5,11.63c0,4.38-2.8,7.12-6.23,7.12s-6.36-2.87-6.36-7.12v-.09c0-4.25,3-7.12,6.36-7.12s6.23,2.83,6.23,7.12Z"/><path class="cls-1" d="M350.39,13.3A8.68,8.68,0,0,0,343,17.47V13.76h-5v29h5V32.55a8.85,8.85,0,0,0,7.43,3.92c5.16,0,10.12-4.17,10.12-11.54v-.09C360.51,17.43,355.51,13.3,350.39,13.3Zm5,11.63c0,4.38-2.81,7.12-6.24,7.12s-6.35-2.87-6.35-7.12v-.09c0-4.25,3-7.12,6.35-7.12s6.24,2.83,6.24,7.12Z"/><path class="cls-1" d="M370,18.78v-5h-5V36h5V27.54c0-5.9,3.06-8.81,7.44-8.81h.28V13.34C373.91,13.17,371.4,15.45,370,18.78Z"/><path class="cls-1" d="M391.34,13.3A11.51,11.51,0,0,0,379.7,24.93V25a11.38,11.38,0,0,0,11.56,11.5A11.51,11.51,0,0,0,403,24.93v-.09A11.41,11.41,0,0,0,391.34,13.3ZM398,25c0,3.83-2.56,7-6.61,7-3.88,0-6.64-3.25-6.64-7.12v-.09c0-3.87,2.55-7.07,6.56-7.07S398,21,398,24.93Z"/><path class="cls-1" d="M412.83,7.66h-5v6.1h-2.77v4.38h2.77V29.86c0,4.88,2.6,6.53,6.28,6.53a8.59,8.59,0,0,0,4.5-1.14V31.08a6.7,6.7,0,0,1-3.1.76c-1.69,0-2.68-.8-2.68-2.78V18.14h5.86V13.76h-5.86Z"/><path class="cls-1" d="M431.8,13.3c-6.23,0-10.65,5.22-10.65,11.59V25c0,6.87,4.87,11.54,11.19,11.54a11,11,0,0,0,8.92-4.17l-2.93-2.65a7.88,7.88,0,0,1-5.91,2.65,6.12,6.12,0,0,1-6.27-5.64h16c0-.51.08-1,.08-1.44C442.25,18.86,438.74,13.3,431.8,13.3Zm-5.7,10c.46-3.46,2.61-5.86,5.66-5.86,3.3,0,5.2,2.57,5.53,5.86Z"/><path class="cls-1" d="M456.83,32.05c-3.84,0-6.53-3.16-6.53-7.12v-.09c0-3.87,2.69-7.07,6.32-7.07,2.48,0,4.09,1.17,5.62,2.78l3.13-3.42a10.91,10.91,0,0,0-8.71-3.83,11.37,11.37,0,0,0-11.35,11.63V25a11.24,11.24,0,0,0,11.27,11.5,11,11,0,0,0,8.92-4.17l-3-3A7.64,7.64,0,0,1,456.83,32.05Z"/><path class="cls-1" d="M475.78,7.66h-5v6.1H468v4.38h2.76V29.86c0,4.88,2.6,6.53,6.28,6.53a8.56,8.56,0,0,0,4.5-1.14V31.08a6.67,6.67,0,0,1-3.1.76c-1.69,0-2.68-.8-2.68-2.78V18.14h5.86V13.76h-5.86Z"/><rect class="cls-1" x="485.96" y="13.76" width="5.04" height="22.24"/><path class="cls-1" d="M507,13.3a11.51,11.51,0,0,0-11.64,11.63V25a11.38,11.38,0,0,0,11.56,11.5,11.51,11.51,0,0,0,11.69-11.58v-.09A11.41,11.41,0,0,0,507,13.3ZM513.63,25c0,3.83-2.56,7-6.61,7-3.88,0-6.64-3.25-6.64-7.12v-.09c0-3.87,2.55-7.07,6.56-7.07s6.69,3.24,6.69,7.16Z"/><path class="cls-1" d="M534.77,13.3A7.86,7.86,0,0,0,528,17.18V13.76h-5V36h5V23.45c0-3.45,2-5.52,4.91-5.52s4.67,2,4.67,5.44V36h5V21.81C542.54,16.67,539.69,13.3,534.77,13.3Z"/><circle class="cls-1" cx="488.48" cy="7.77" r="2.52"/><circle class="cls-1" cx="192.93" cy="7.77" r="2.52"/><path class="cls-1" d="M26.07,22.06a2.29,2.29,0,0,0-2.33-2.16,2.14,2.14,0,0,0-2.16,2.16,2.25,2.25,0,0,0,1.21,2L21.5,28.18h4.66L24.86,24A2.25,2.25,0,0,0,26.07,22.06Z"/><path class="cls-1" d="M24,0A24,24,0,1,0,48,24,24,24,0,0,0,24,0ZM15.46,37.5,7.61,24,15.37,10.5h3.8L11.41,24,19.26,37.5ZM24,31.38A7.42,7.42,0,1,1,31.42,24,7.42,7.42,0,0,1,24,31.38Zm8.54,6.12h-3.8L36.59,24,28.83,10.5h3.8L40.39,24Z"/></g></svg>