<svg xmlns="http://www.w3.org/2000/svg" viewBox="0 0 48 48"><defs><style>.cls-1{fill:#2a2a2a;}</style></defs><g id="light_logos" data-name="light logos"><circle class="cls-1" cx="31.5" cy="25.42" r="0.9"/><circle class="cls-1" cx="30.3" cy="30.37" r="0.9"/><path class="cls-1" d="M23,11.25A1.77,1.77,0,0,0,21.15,13a1.83,1.83,0,0,0,1.8,1.8,1.76,1.76,0,0,0,1.8-1.73A1.83,1.83,0,0,0,23,11.25Z"/><path class="cls-1" d="M24,0A24,24,0,1,0,48,24,24,24,0,0,0,24,0Zm7.5,27.3A1.88,1.88,0,0,1,29.7,26H25.58a2.43,2.43,0,0,0-2.33-1.72,2.48,2.48,0,0,0,0,4.95,2.68,2.68,0,0,0,2.4-1.72h2.63V29.7h.22a1.88,1.88,0,0,1,1.8-1.27,1.95,1.95,0,1,1,0,3.89,1.89,1.89,0,0,1-1.8-1.19H26a1.81,1.81,0,0,0-1.58-1.06,1.66,1.66,0,0,0,0,3.31A1.63,1.63,0,0,0,26,32.25H28.2v1.58A1.72,1.72,0,0,1,27.68,35l-3.53,3.53a1.5,1.5,0,0,1-1.2.52,1.76,1.76,0,0,1-1.2-.52l-3.3-3.3-.9-.9a1.29,1.29,0,0,1,.08-1.8l.67-.75v-.15l-.75-.83a1.58,1.58,0,0,1-.3-.9,1.24,1.24,0,0,1,.38-.9l.67-.59v-.16l-.75-.82a1.64,1.64,0,0,1-.3-.9.94.94,0,0,1,.52-.82l.38-.38V23.78a8.51,8.51,0,0,1-.9-.75l-.45-.45a16.32,16.32,0,0,1-2.55-8.93A1.84,1.84,0,0,1,15.3,12l7-2.85A2.38,2.38,0,0,1,23,9a1.78,1.78,0,0,1,.75.22l7,2.93a1.73,1.73,0,0,1,1.05,1.57,15.51,15.51,0,0,1-2.33,8.71l-.22.22a9.71,9.71,0,0,1-.9.83v1.19h1.5a1.89,1.89,0,0,1,1.72-1.12,1.88,1.88,0,1,1,0,3.75Zm-7.09-.54a1.13,1.13,0,1,1-2.25,0,1.1,1.1,0,0,1,1.12-1.12A1.15,1.15,0,0,1,24.41,26.76Zm.75,5a.72.72,0,1,1-.72-.72A.72.72,0,0,1,25.16,31.75Z"/></g></svg>