<svg xmlns="http://www.w3.org/2000/svg" viewBox="0 0 489.09 48"><defs><style>.cls-1{fill:#205ab7;}.cls-2{fill:#fff;}.cls-3{fill:#2a2a2a;}</style></defs><g id="light_logos" data-name="light logos"><circle class="cls-1" cx="23.95" cy="24" r="24"/><path class="cls-2" d="M16.94,22.54a4.78,4.78,0,0,0,.45.45c.31.28.6.52.9.75v1.57l-.38.38c-.41.38-.52.52-.52.82a1.31,1.31,0,0,0,.3.9c.17.22.75.83.75.83v.15l-.68.6a1.24,1.24,0,0,0-.37.9,1.64,1.64,0,0,0,.3.9l.75.82v.15l-.68.75a1.29,1.29,0,0,0-.07,1.8l.9.9,3.3,3.3a1.77,1.77,0,0,0,1.2.53,1.48,1.48,0,0,0,1.2-.53L27.81,35a1.77,1.77,0,0,0,.53-1.2V32.21H26.16a1.61,1.61,0,0,1-1.57,1.13,1.65,1.65,0,1,1,0-3.3,1.82,1.82,0,0,1,1.57,1.05h2.48a1.87,1.87,0,0,0,1.8,1.2,1.95,1.95,0,0,0,0-3.9,1.86,1.86,0,0,0-1.8,1.27h-.23V27.49H25.79a2.69,2.69,0,0,1-2.4,1.72,2.48,2.48,0,1,1,0-4.95A2.43,2.43,0,0,1,25.71,26h4.13a1.88,1.88,0,1,0,1.8-2.48,1.9,1.9,0,0,0-1.73,1.13h-1.5v-1.2a9.71,9.71,0,0,0,.9-.83l.23-.22c1.78-2,2.32-4.95,2.32-8.7a1.74,1.74,0,0,0-1.05-1.58l-7-2.92A1.71,1.71,0,0,0,23.09,9a2.38,2.38,0,0,0-.68.15l-7,2.85a1.84,1.84,0,0,0-1,1.65c0,3.6,1,7.05,2.55,8.93m14.7,1.95a.9.9,0,1,1-.9.9A.91.91,0,0,1,31.64,24.49Zm-1.2,5a.9.9,0,0,1,0,1.8.92.92,0,0,1-.9-.9A.86.86,0,0,1,30.44,29.44Zm-7.35-14.7a1.83,1.83,0,0,1-1.8-1.8,1.76,1.76,0,0,1,1.8-1.73,1.83,1.83,0,0,1,1.8,1.8A1.77,1.77,0,0,1,23.09,14.74Z"/><path class="cls-2" d="M23.86,31.71a.72.72,0,1,0,.72-.72A.73.73,0,0,0,23.86,31.71Z"/><path class="cls-2" d="M22.3,26.73a1.13,1.13,0,0,0,2.25,0,1.16,1.16,0,0,0-1.13-1.13A1.11,1.11,0,0,0,22.3,26.73Z"/><path class="cls-3" d="M482.85,15.8h.93v2.95h.54V15.8h1v-.54h-2.45Z"/><path class="cls-3" d="M488.3,15.26l-.84,2.46-.78-2.46h-.89v3.49h.54V16l.94,2.8h.39l.93-2.8v2.8h.54V15.26Z"/><polygon class="cls-3" points="80.14 15.72 74.08 15.72 65.07 25.55 65.07 7.24 60.05 7.24 60.05 37.9 65.07 37.9 65.07 31.56 68.16 28.28 74.58 37.9 80.42 37.9 71.49 24.75 80.14 15.72"/><path class="cls-3" d="M91.68,15.26c-6.21,0-10.62,5.21-10.62,11.55v.09c0,6.84,4.86,11.51,11.16,11.51a10.91,10.91,0,0,0,8.89-4.16L98.19,31.6a7.84,7.84,0,0,1-5.89,2.65A6.12,6.12,0,0,1,86,28.62h16c0-.5.08-1,.08-1.43C102.1,20.81,98.6,15.26,91.68,15.26ZM86,25.26c.46-3.45,2.6-5.84,5.64-5.84,3.3,0,5.19,2.56,5.52,5.84Z"/><path class="cls-3" d="M114.59,32.19l-6.1-16.47h-5.35l9.06,22.22c-.82,1.89-1.69,2.52-3.09,2.52a6,6,0,0,1-2.92-.84l-1.69,3.74a9.75,9.75,0,0,0,5.15,1.39c3.5,0,5.43-1.68,7.16-6.26l8.65-22.77h-5.19Z"/><path class="cls-3" d="M162.26,24.33l-3.83-2A47.73,47.73,0,0,1,155.35,28l-4.94-5.13c3.83-1.47,6.34-3.78,6.34-7.64v-.09c0-3.94-3.09-7.09-7.66-7.09-5.15,0-8.28,3.44-8.28,7.43v.08a9.8,9.8,0,0,0,2.39,6.14c-3.95,1.68-6.17,4.41-6.17,8.19v.08c0,5.08,4.07,8.4,9.47,8.4a12.55,12.55,0,0,0,8.81-3.82l3.83,4,3.78-2.77L158.35,31A43.34,43.34,0,0,0,162.26,24.33ZM145.55,15.6A3.36,3.36,0,0,1,149,12.07a3.14,3.14,0,0,1,3.25,3.32v.08c0,2.1-1.57,3.49-4.53,4.58-1.61-1.81-2.18-2.9-2.18-4.37ZM147,34c-2.8,0-4.82-1.81-4.82-4.29v-.08c0-1.89,1.16-3.7,3.83-4.87l6.42,6.68A7.87,7.87,0,0,1,147,34Z"/><path class="cls-3" d="M191.29,19.17a8.86,8.86,0,0,0-7.41-3.91c-5.19,0-10.09,4.16-10.09,11.51v.09c0,7.35,5,11.5,10.09,11.5a8.66,8.66,0,0,0,7.41-4.15V37.9h5V7.24h-5Zm.08,7.69c0,4.24-3,7.09-6.3,7.09s-6.26-2.81-6.26-7.09v-.09c0-4.37,2.84-7.1,6.26-7.1s6.3,2.82,6.3,7.1Z"/><path class="cls-3" d="M210.57,15.43a18.47,18.47,0,0,0-8.24,1.81l1.36,4a14.91,14.91,0,0,1,6.22-1.39c3.5,0,5.39,1.68,5.39,4.83v.55a17.64,17.64,0,0,0-5.84-.93c-5.31,0-9,2.36-9,7.14v.09c0,4.45,3.66,6.84,7.74,6.84a8.74,8.74,0,0,0,7.08-3.23V37.9h4.86V24.75c0-2.89-.74-5.25-2.35-6.84S213.82,15.43,210.57,15.43Zm4.82,14.49c0,2.82-2.52,4.75-5.81,4.75-2.39,0-4.24-1.22-4.24-3.36v-.09c0-2.31,1.89-3.69,5.11-3.69a13.48,13.48,0,0,1,4.94.88Z"/><path class="cls-3" d="M231,9.63h-5v6.09h-2.76v4.37H226V31.77c0,4.87,2.6,6.51,6.26,6.51a8.55,8.55,0,0,0,4.49-1.13V33a6.65,6.65,0,0,1-3.09.75C232,33.74,231,33,231,31V20.09h5.85V15.72H231Z"/><path class="cls-3" d="M249.81,15.43a18.43,18.43,0,0,0-8.23,1.81l1.36,4a14.86,14.86,0,0,1,6.21-1.39c3.5,0,5.4,1.68,5.4,4.83v.55a17.75,17.75,0,0,0-5.85-.93c-5.31,0-9,2.36-9,7.14v.09c0,4.45,3.66,6.84,7.74,6.84a8.77,8.77,0,0,0,7.08-3.23V37.9h4.85V24.75c0-2.89-.74-5.25-2.34-6.84S253.07,15.43,249.81,15.43Zm4.82,14.49c0,2.82-2.51,4.75-5.8,4.75-2.39,0-4.25-1.22-4.25-3.36v-.09c0-2.31,1.9-3.69,5.11-3.69a13.44,13.44,0,0,1,4.94.88Z"/><path class="cls-3" d="M289.25,15.26a8.67,8.67,0,0,0-7.41,4.16v-3.7h-5v28.9h5V34.46a8.84,8.84,0,0,0,7.41,3.9c5.15,0,10.09-4.15,10.09-11.5v-.09C299.34,19.38,294.36,15.26,289.25,15.26Zm5,11.6c0,4.36-2.8,7.09-6.22,7.09s-6.34-2.85-6.34-7.09v-.09c0-4.24,3-7.1,6.34-7.1s6.22,2.82,6.22,7.1Z"/><path class="cls-3" d="M308.84,20.72v-5h-5V37.9h5V29.46c0-5.88,3.05-8.78,7.41-8.78h.29V15.3C312.71,15.14,310.2,17.4,308.84,20.72Z"/><path class="cls-3" d="M330.09,15.26a11.48,11.48,0,0,0-11.61,11.6v.08A11.36,11.36,0,0,0,330,38.41a11.48,11.48,0,0,0,11.65-11.55v-.09A11.38,11.38,0,0,0,330.09,15.26Zm6.59,11.68c0,3.82-2.56,7-6.59,7-3.87,0-6.63-3.23-6.63-7.09v-.09c0-3.86,2.55-7.06,6.55-7.06s6.67,3.24,6.67,7.15Z"/><path class="cls-3" d="M351.51,9.63h-5v6.09h-2.76v4.37h2.76V31.77c0,4.87,2.59,6.51,6.26,6.51a8.49,8.49,0,0,0,4.48-1.13V33a6.62,6.62,0,0,1-3.09.75c-1.68,0-2.67-.79-2.67-2.77V20.09h5.84V15.72h-5.84Z"/><path class="cls-3" d="M370.43,15.26c-6.22,0-10.62,5.21-10.62,11.55v.09c0,6.84,4.86,11.51,11.16,11.51a10.91,10.91,0,0,0,8.89-4.16l-2.92-2.65a7.84,7.84,0,0,1-5.89,2.65,6.12,6.12,0,0,1-6.26-5.63h16c.05-.5.09-1,.09-1.43C380.85,20.81,377.35,15.26,370.43,15.26Zm-5.68,10c.45-3.45,2.59-5.84,5.64-5.84,3.29,0,5.19,2.56,5.52,5.84Z"/><path class="cls-3" d="M395.38,34c-3.82,0-6.5-3.15-6.5-7.09v-.09c0-3.86,2.68-7.06,6.3-7.06,2.47,0,4.07,1.18,5.6,2.78l3.13-3.41a10.91,10.91,0,0,0-8.69-3.82,11.33,11.33,0,0,0-11.32,11.6v.08a11.21,11.21,0,0,0,11.24,11.47A10.93,10.93,0,0,0,404,34.25l-3-3A7.6,7.6,0,0,1,395.38,34Z"/><path class="cls-3" d="M414.28,9.63h-5v6.09h-2.76v4.37h2.76V31.77c0,4.87,2.59,6.51,6.26,6.51a8.55,8.55,0,0,0,4.49-1.13V33a6.65,6.65,0,0,1-3.09.75c-1.69,0-2.68-.79-2.68-2.77V20.09h5.85V15.72h-5.85Z"/><rect class="cls-3" x="424.43" y="15.72" width="5.02" height="22.18"/><path class="cls-3" d="M445.44,15.26a11.48,11.48,0,0,0-11.61,11.6v.08a11.35,11.35,0,0,0,11.52,11.47A11.48,11.48,0,0,0,457,26.86v-.09A11.37,11.37,0,0,0,445.44,15.26ZM452,26.94c0,3.82-2.55,7-6.58,7-3.87,0-6.63-3.23-6.63-7.09v-.09c0-3.86,2.55-7.06,6.54-7.06S452,23,452,26.86Z"/><path class="cls-3" d="M473.11,15.26a7.86,7.86,0,0,0-6.8,3.87V15.72h-5V37.9h5V25.38c0-3.44,2-5.5,4.9-5.5s4.65,2,4.65,5.42V37.9h5V23.75C480.85,18.62,478,15.26,473.11,15.26Z"/><circle class="cls-3" cx="426.95" cy="9.75" r="2.51"/></g></svg>