<svg xmlns="http://www.w3.org/2000/svg" viewBox="0 0 489.09 48"><defs><style>.cls-1{fill:#2a2a2a;}</style></defs><g id="light_logos" data-name="light logos"><circle class="cls-1" cx="31.5" cy="25.42" r="0.9"/><circle class="cls-1" cx="30.3" cy="30.37" r="0.9"/><path class="cls-1" d="M23,11.25A1.77,1.77,0,0,0,21.15,13a1.83,1.83,0,0,0,1.8,1.8,1.76,1.76,0,0,0,1.8-1.73A1.83,1.83,0,0,0,23,11.25Z"/><path class="cls-1" d="M24,0A24,24,0,1,0,48,24,24,24,0,0,0,24,0Zm7.5,27.3A1.88,1.88,0,0,1,29.7,26H25.58a2.43,2.43,0,0,0-2.33-1.72,2.48,2.48,0,0,0,0,4.95,2.68,2.68,0,0,0,2.4-1.72h2.63V29.7h.22a1.88,1.88,0,0,1,1.8-1.27,1.95,1.95,0,1,1,0,3.89,1.89,1.89,0,0,1-1.8-1.19H26a1.81,1.81,0,0,0-1.58-1.06,1.66,1.66,0,0,0,0,3.31A1.63,1.63,0,0,0,26,32.25H28.2v1.58A1.72,1.72,0,0,1,27.68,35l-3.53,3.53a1.5,1.5,0,0,1-1.2.52,1.76,1.76,0,0,1-1.2-.52l-3.3-3.3-.9-.9a1.29,1.29,0,0,1,.08-1.8l.67-.75v-.15l-.75-.83a1.58,1.58,0,0,1-.3-.9,1.24,1.24,0,0,1,.38-.9l.67-.59v-.16l-.75-.82a1.64,1.64,0,0,1-.3-.9.94.94,0,0,1,.52-.82l.38-.38V23.78a8.51,8.51,0,0,1-.9-.75l-.45-.45a16.32,16.32,0,0,1-2.55-8.93A1.84,1.84,0,0,1,15.3,12l7-2.85A2.38,2.38,0,0,1,23,9a1.78,1.78,0,0,1,.75.22l7,2.93a1.73,1.73,0,0,1,1.05,1.57,15.51,15.51,0,0,1-2.33,8.71l-.22.22a9.71,9.71,0,0,1-.9.83v1.19h1.5a1.89,1.89,0,0,1,1.72-1.12,1.88,1.88,0,1,1,0,3.75Zm-7.09-.54a1.13,1.13,0,1,1-2.25,0,1.1,1.1,0,0,1,1.12-1.12A1.15,1.15,0,0,1,24.41,26.76Zm.75,5a.72.72,0,1,1-.72-.72A.72.72,0,0,1,25.16,31.75Z"/><path class="cls-1" d="M482.8,15.81h.93v3h.54v-3h1v-.54H482.8Z"/><path class="cls-1" d="M488.25,15.27l-.83,2.46-.79-2.46h-.88v3.49h.54V16l.93,2.8h.39l.94-2.8v2.8h.54V15.27Z"/><polygon class="cls-1" points="80.09 15.73 74.04 15.73 65.02 25.56 65.02 7.25 60 7.25 60 37.91 65.02 37.91 65.02 31.57 68.11 28.29 74.53 37.91 80.38 37.91 71.44 24.76 80.09 15.73"/><path class="cls-1" d="M91.64,15.27C85.42,15.27,81,20.48,81,26.82v.09c0,6.84,4.85,11.51,11.15,11.51a10.92,10.92,0,0,0,8.9-4.16l-2.93-2.65a7.82,7.82,0,0,1-5.88,2.65A6.11,6.11,0,0,1,86,28.63h16c0-.51.08-1,.08-1.43C102.05,20.82,98.56,15.27,91.64,15.27ZM86,25.27c.45-3.45,2.59-5.84,5.64-5.84,3.29,0,5.18,2.56,5.51,5.84Z"/><path class="cls-1" d="M114.54,32.2l-6.09-16.47H103.1L112.15,38c-.82,1.89-1.68,2.52-3.08,2.52a6,6,0,0,1-2.93-.84l-1.69,3.74a9.77,9.77,0,0,0,5.15,1.39c3.5,0,5.44-1.68,7.16-6.26l8.65-22.77h-5.19Z"/><path class="cls-1" d="M162.22,24.34l-3.83-2.05A49.22,49.22,0,0,1,155.3,28l-4.94-5.13c3.83-1.47,6.34-3.78,6.34-7.64V15.1c0-3.95-3.09-7.1-7.66-7.1-5.14,0-8.27,3.45-8.27,7.44v.08a9.74,9.74,0,0,0,2.39,6.14c-4,1.68-6.18,4.41-6.18,8.19v.08c0,5.08,4.08,8.4,9.47,8.4a12.53,12.53,0,0,0,8.81-3.82l3.83,4,3.79-2.77L158.31,31A43.34,43.34,0,0,0,162.22,24.34ZM145.5,15.61A3.36,3.36,0,0,1,149,12.08a3.14,3.14,0,0,1,3.25,3.32v.08c0,2.1-1.56,3.49-4.53,4.58-1.6-1.81-2.18-2.9-2.18-4.37Zm1.44,18.44c-2.8,0-4.81-1.81-4.81-4.29v-.08c0-1.89,1.15-3.7,3.83-4.87l6.42,6.67A7.88,7.88,0,0,1,146.94,34.05Z"/><path class="cls-1" d="M191.24,19.18a8.84,8.84,0,0,0-7.41-3.91c-5.19,0-10.09,4.16-10.09,11.51v.08c0,7.35,5,11.51,10.09,11.51a8.64,8.64,0,0,0,7.41-4.16v3.7h5V7.25h-5Zm.08,7.68c0,4.25-3,7.1-6.3,7.1s-6.25-2.81-6.25-7.1v-.08c0-4.37,2.84-7.1,6.25-7.1s6.3,2.82,6.3,7.1Z"/><path class="cls-1" d="M210.52,15.44a18.43,18.43,0,0,0-8.23,1.81l1.36,4a14.83,14.83,0,0,1,6.21-1.39c3.5,0,5.4,1.68,5.4,4.83v.55a17.75,17.75,0,0,0-5.85-.93c-5.31,0-9,2.35-9,7.14v.09c0,4.45,3.67,6.84,7.74,6.84a8.77,8.77,0,0,0,7.09-3.23v2.77h4.85V24.76c0-2.89-.74-5.25-2.34-6.84S213.77,15.44,210.52,15.44Zm4.82,14.49c0,2.82-2.51,4.75-5.81,4.75-2.38,0-4.24-1.22-4.24-3.36v-.09c0-2.31,1.9-3.69,5.11-3.69a13.44,13.44,0,0,1,4.94.88Z"/><path class="cls-1" d="M231,9.64h-5v6.09h-2.76V20.1H226V31.78c0,4.87,2.59,6.51,6.25,6.51a8.5,8.5,0,0,0,4.49-1.13V33a6.65,6.65,0,0,1-3.09.75C231.94,33.75,231,33,231,31V20.1h5.84V15.73H231Z"/><path class="cls-1" d="M249.77,15.44a18.47,18.47,0,0,0-8.24,1.81l1.36,4a14.91,14.91,0,0,1,6.22-1.39c3.5,0,5.39,1.68,5.39,4.83v.55a17.75,17.75,0,0,0-5.85-.93c-5.31,0-9,2.35-9,7.14v.09c0,4.45,3.66,6.84,7.74,6.84a8.75,8.75,0,0,0,7.08-3.23v2.77h4.86V24.76c0-2.89-.74-5.25-2.35-6.84S253,15.44,249.77,15.44Zm4.81,14.49c0,2.82-2.51,4.75-5.8,4.75-2.39,0-4.24-1.22-4.24-3.36v-.09c0-2.31,1.89-3.69,5.1-3.69a13.4,13.4,0,0,1,4.94.88Z"/><path class="cls-1" d="M289.21,15.27a8.66,8.66,0,0,0-7.41,4.16v-3.7h-5v28.9h5V34.47a8.81,8.81,0,0,0,7.41,3.9c5.14,0,10.08-4.16,10.08-11.51v-.08C299.29,19.39,294.31,15.27,289.21,15.27Zm5,11.59c0,4.37-2.8,7.1-6.22,7.1s-6.34-2.85-6.34-7.1v-.08c0-4.24,3-7.1,6.34-7.1s6.22,2.82,6.22,7.1Z"/><path class="cls-1" d="M308.79,20.73v-5h-5V37.91h5V29.47c0-5.88,3-8.78,7.41-8.78h.29V15.31C312.66,15.15,310.15,17.41,308.79,20.73Z"/><path class="cls-1" d="M330,15.27a11.48,11.48,0,0,0-11.61,11.59V27A11.36,11.36,0,0,0,330,38.42a11.48,11.48,0,0,0,11.65-11.56v-.08A11.38,11.38,0,0,0,330,15.27ZM336.63,27c0,3.82-2.56,7-6.59,7-3.87,0-6.63-3.23-6.63-7.1v-.08c0-3.86,2.55-7.06,6.55-7.06s6.67,3.24,6.67,7.14Z"/><path class="cls-1" d="M351.46,9.64h-5v6.09h-2.76V20.1h2.76V31.78c0,4.87,2.59,6.51,6.26,6.51a8.55,8.55,0,0,0,4.49-1.13V33a6.65,6.65,0,0,1-3.09.75c-1.69,0-2.68-.79-2.68-2.77V20.1h5.85V15.73h-5.85Z"/><path class="cls-1" d="M370.38,15.27c-6.21,0-10.62,5.21-10.62,11.55v.09c0,6.84,4.86,11.51,11.16,11.51a10.91,10.91,0,0,0,8.89-4.16l-2.92-2.65A7.84,7.84,0,0,1,371,34.26a6.12,6.12,0,0,1-6.26-5.63h16c0-.51.08-1,.08-1.43C380.8,20.82,377.3,15.27,370.38,15.27Zm-5.68,10c.45-3.45,2.6-5.84,5.64-5.84,3.3,0,5.19,2.56,5.52,5.84Z"/><path class="cls-1" d="M395.34,34c-3.83,0-6.51-3.15-6.51-7.1v-.08c0-3.86,2.68-7.06,6.3-7.06,2.47,0,4.08,1.18,5.6,2.78l3.13-3.41a10.91,10.91,0,0,0-8.69-3.82,11.34,11.34,0,0,0-11.32,11.59V27a11.22,11.22,0,0,0,11.24,11.47A10.93,10.93,0,0,0,404,34.26l-3-3A7.63,7.63,0,0,1,395.34,34Z"/><path class="cls-1" d="M414.23,9.64h-5v6.09h-2.76V20.1h2.76V31.78c0,4.87,2.6,6.51,6.26,6.51A8.55,8.55,0,0,0,420,37.16V33a6.65,6.65,0,0,1-3.09.75c-1.69,0-2.68-.79-2.68-2.77V20.1h5.85V15.73h-5.85Z"/><rect class="cls-1" x="424.39" y="15.73" width="5.02" height="22.18"/><path class="cls-1" d="M445.39,15.27a11.48,11.48,0,0,0-11.61,11.59V27a11.36,11.36,0,0,0,11.53,11.47A11.48,11.48,0,0,0,457,26.86v-.08A11.38,11.38,0,0,0,445.39,15.27ZM452,27c0,3.82-2.56,7-6.59,7-3.87,0-6.63-3.23-6.63-7.1v-.08c0-3.86,2.55-7.06,6.55-7.06S452,23,452,26.86Z"/><path class="cls-1" d="M473.06,15.27a7.84,7.84,0,0,0-6.79,3.87V15.73h-5V37.91h5V25.39c0-3.44,2-5.5,4.89-5.5s4.66,2,4.66,5.42v12.6h5V23.76C480.8,18.63,478,15.27,473.06,15.27Z"/><circle class="cls-1" cx="426.9" cy="9.76" r="2.51"/></g></svg>