<svg xmlns="http://www.w3.org/2000/svg" viewBox="0 0 48 48"><defs><style>.cls-1{fill:#4b5a6f;}.cls-2{fill:#fff;}</style></defs><g id="light_logos" data-name="light logos"><circle class="cls-1" cx="24" cy="24" r="24"/><path class="cls-2" d="M17,22.54a4.78,4.78,0,0,0,.45.45c.31.28.6.52.9.75v1.57l-.38.38c-.41.38-.52.52-.52.82a1.31,1.31,0,0,0,.3.9c.17.22.75.83.75.83v.15l-.68.6a1.24,1.24,0,0,0-.37.9,1.64,1.64,0,0,0,.3.9l.75.82v.15l-.68.75a1.29,1.29,0,0,0-.07,1.8l.9.9,3.3,3.3a1.77,1.77,0,0,0,1.2.53,1.48,1.48,0,0,0,1.2-.53L27.86,35a1.77,1.77,0,0,0,.53-1.2V32.21H26.21a1.61,1.61,0,0,1-1.57,1.13,1.65,1.65,0,1,1,0-3.3,1.82,1.82,0,0,1,1.57,1.05h2.48a1.87,1.87,0,0,0,1.8,1.2,1.95,1.95,0,0,0,0-3.9,1.86,1.86,0,0,0-1.8,1.27h-.23V27.49H25.84a2.69,2.69,0,0,1-2.4,1.72,2.48,2.48,0,1,1,0-4.95A2.43,2.43,0,0,1,25.76,26h4.13a1.88,1.88,0,1,0,1.8-2.48A1.9,1.9,0,0,0,30,24.64h-1.5v-1.2a9.71,9.71,0,0,0,.9-.83l.23-.22c1.78-2,2.32-4.95,2.32-8.7a1.74,1.74,0,0,0-1.05-1.58l-7-2.92A1.71,1.71,0,0,0,23.14,9a2.38,2.38,0,0,0-.68.15l-7,2.85a1.84,1.84,0,0,0-1.05,1.65c0,3.6,1.05,7.05,2.55,8.93m14.7,1.95a.9.9,0,1,1-.9.9A.91.91,0,0,1,31.69,24.49Zm-1.2,5a.9.9,0,0,1,0,1.8.92.92,0,0,1-.9-.9A.86.86,0,0,1,30.49,29.44Zm-7.35-14.7a1.83,1.83,0,0,1-1.8-1.8,1.76,1.76,0,0,1,1.8-1.73,1.83,1.83,0,0,1,1.8,1.8A1.77,1.77,0,0,1,23.14,14.74Z"/><path class="cls-2" d="M23.91,31.71a.72.72,0,1,0,.72-.72A.73.73,0,0,0,23.91,31.71Z"/><path class="cls-2" d="M22.34,26.73a1.13,1.13,0,1,0,1.13-1.13A1.11,1.11,0,0,0,22.34,26.73Z"/></g></svg>