<svg xmlns="http://www.w3.org/2000/svg" viewBox="0 0 48 48"><defs><style>.cls-1{fill:#279fea;}.cls-2{fill:#fff;}</style></defs><g id="light_logos" data-name="light logos"><circle class="cls-1" cx="24" cy="24" r="24"/><path class="cls-2" d="M25.3,37.06V32.51H22.7v4.55l-2.46-1.37-2.67,1.53L24,40.91l6.58-3.79L28,35.63Z"/><polygon class="cls-2" points="11.98 18.56 15.74 20.74 17.04 18.43 13.12 16.3 15.28 15.05 15.28 12.11 9.34 15.55 9.35 22.66 11.98 21.18 11.98 18.56"/><polygon class="cls-2" points="32.08 20.74 35.99 18.52 35.97 21.17 38.66 22.68 38.66 15.53 32.44 11.97 32.33 14.87 34.85 16.36 30.87 18.24 32.08 20.74"/><path class="cls-2" d="M38.64,25.63,36,24.12v.17h0v4.83L25.25,23V10.83l4.65,2.64V10.55L24,7.09,17.88,10.6v3l4.64-2.69V23L12,29.45V24.1L9.35,25.61v6.85l5.54,3.1L17.59,34,13.2,31.58,24,25.31l10.67,6.2L30.42,34l2.78,1.63,5.44-3.13Z"/></g></svg>