<svg xmlns="http://www.w3.org/2000/svg" viewBox="0 0 48 48"><g id="light_logos" data-name="light logos"><path d="M24,0A24,24,0,1,0,48,24,24,24,0,0,0,24,0ZM15.28,12.1v3L13.12,16.3,17,18.42l-1.3,2.32L12,18.56v2.61L9.35,22.66V15.55ZM24,40.91l-6.46-3.69,2.67-1.53,2.46,1.37V32.51h2.6v4.55L28,35.63l2.59,1.49Zm14.61-8.43L33.2,35.61,30.42,34l4.28-2.47L24,25.31,13.2,31.58,17.59,34l-2.7,1.56-5.54-3.1V25.61L12,24.1v5.35L22.52,23V10.89l-4.64,2.69v-3L24,7.09l5.87,3.46v2.92l-4.65-2.64V23L36,29.12V24.29h0v-.17l2.65,1.51Zm0-9.8L36,21.17l0-2.65-3.91,2.22-1.21-2.5,4-1.88-2.52-1.49.11-2.9,6.22,3.56Z"/></g></svg>