<svg xmlns="http://www.w3.org/2000/svg" viewBox="0 0 48 48"><defs><style>.cls-1{fill:#4b5a6f;}</style></defs><g id="light_logos" data-name="light logos"><path class="cls-1" d="M26.1,13.8A2.77,2.77,0,0,0,24,13a3,3,0,0,0-2.1.82l-8.85,8.85a3.07,3.07,0,0,0,0,4.2l.38.37a4,4,0,0,1,1-1.49l6.45-6.46a4.49,4.49,0,0,1,6.3,0l6.45,6.46a4.6,4.6,0,0,1,1,1.49l.38-.37a3.12,3.12,0,0,0,.83-2.1,3,3,0,0,0-.83-2.1Z"/><path class="cls-1" d="M25.12,21.37a1.47,1.47,0,0,0-2.1,0l-6.44,6.45a1.52,1.52,0,0,0-.45,1.05,1.49,1.49,0,0,0,.45,1.05L18,31.35l4.43-4.43a2,2,0,0,1,2.92,0l4.58,4.58,1.57-1.58A1.53,1.53,0,0,0,32,28.87a1.57,1.57,0,0,0-.45-1.05Z"/><path class="cls-1" d="M24,0A24,24,0,1,0,48,24,24,24,0,0,0,24,0ZM37.2,29.1,28.35,38a5.84,5.84,0,0,1-3.45,1.72.27.27,0,0,1-.23.08H23.33a.27.27,0,0,0-.23-.08A6.27,6.27,0,0,1,19.65,38L10.8,29.1a6.16,6.16,0,0,1,0-8.7l8.85-8.85a6.16,6.16,0,0,1,8.7,0L37.2,20.4a6.16,6.16,0,0,1,0,8.7Z"/></g></svg>