<svg xmlns="http://www.w3.org/2000/svg" viewBox="0 0 48 48"><defs><style>.cls-1{fill:#205ab7;}.cls-2{fill:#fff;}</style></defs><g id="light_logos" data-name="light logos"><circle class="cls-1" cx="24" cy="24" r="24"/><path class="cls-2" d="M19.67,11.54l-8.88,8.88a6.13,6.13,0,0,0,0,8.66L19.67,38a6.12,6.12,0,0,0,3.42,1.72l.26,0,.12,0a4.7,4.7,0,0,0,1.06,0l.12,0,.26,0A6.09,6.09,0,0,0,28.33,38l8.88-8.88a6.13,6.13,0,0,0,0-8.66l-8.88-8.88A6.13,6.13,0,0,0,19.67,11.54ZM31.91,28.9A1.45,1.45,0,0,1,31.48,30l-1.59,1.6L25.28,27a2.05,2.05,0,0,0-2.9,0L18,31.38,16.52,30a1.45,1.45,0,0,1-.43-1.05,1.43,1.43,0,0,1,.43-1L23,21.42a1.5,1.5,0,0,1,2.1,0l6.43,6.44A1.43,1.43,0,0,1,31.91,28.9ZM26.07,13.8,35,22.68a2.95,2.95,0,0,1,0,4.14l-.4.41a4.39,4.39,0,0,0-1-1.46l-6.44-6.44a4.45,4.45,0,0,0-6.28,0l-6.44,6.43a4.53,4.53,0,0,0-1,1.47l-.4-.41a2.95,2.95,0,0,1,0-4.14l8.88-8.88a2.95,2.95,0,0,1,4.14,0Z"/><circle class="cls-1" cx="24" cy="24" r="24"/><path class="cls-2" d="M19.67,11.54l-8.88,8.88a6.13,6.13,0,0,0,0,8.66L19.67,38a6.12,6.12,0,0,0,3.42,1.72l.26,0,.12,0a4.7,4.7,0,0,0,1.06,0l.12,0,.26,0A6.09,6.09,0,0,0,28.33,38l8.88-8.88a6.13,6.13,0,0,0,0-8.66l-8.88-8.88A6.13,6.13,0,0,0,19.67,11.54ZM31.91,28.9A1.45,1.45,0,0,1,31.48,30l-1.59,1.6L25.28,27a2.05,2.05,0,0,0-2.9,0L18,31.38,16.52,30a1.45,1.45,0,0,1-.43-1.05,1.43,1.43,0,0,1,.43-1L23,21.42a1.5,1.5,0,0,1,2.1,0l6.43,6.44A1.43,1.43,0,0,1,31.91,28.9ZM26.07,13.8,35,22.68a2.95,2.95,0,0,1,0,4.14l-.4.41a4.39,4.39,0,0,0-1-1.46l-6.44-6.44a4.45,4.45,0,0,0-6.28,0l-6.44,6.43a4.53,4.53,0,0,0-1,1.47l-.4-.41a2.95,2.95,0,0,1,0-4.14l8.88-8.88a2.95,2.95,0,0,1,4.14,0Z"/></g></svg>