<svg xmlns="http://www.w3.org/2000/svg" viewBox="0 0 48 48"><g id="light_logos" data-name="light logos"><path d="M25.05,21.42a1.5,1.5,0,0,0-2.1,0l-6.43,6.44a1.43,1.43,0,0,0-.43,1A1.45,1.45,0,0,0,16.52,30L18,31.38,22.38,27a2.05,2.05,0,0,1,2.9,0l4.61,4.6L31.48,30a1.45,1.45,0,0,0,.43-1.05,1.43,1.43,0,0,0-.43-1Z"/><path d="M26.07,13.8a2.95,2.95,0,0,0-4.14,0l-8.88,8.88a2.95,2.95,0,0,0,0,4.14l.4.41a4.53,4.53,0,0,1,1-1.47l6.44-6.43a4.45,4.45,0,0,1,6.28,0l6.44,6.44a4.39,4.39,0,0,1,1,1.46l.4-.41a2.95,2.95,0,0,0,0-4.14Z"/><path d="M24,0A24,24,0,1,0,48,24,24,24,0,0,0,24,0ZM37.21,29.08,28.33,38a6.09,6.09,0,0,1-3.42,1.72l-.26,0-.12,0a4.7,4.7,0,0,1-1.06,0l-.12,0-.26,0A6.12,6.12,0,0,1,19.67,38l-8.88-8.88a6.13,6.13,0,0,1,0-8.66l8.88-8.88a6.13,6.13,0,0,1,8.66,0l8.88,8.88a6.13,6.13,0,0,1,0,8.66Z"/></g></svg>