<svg xmlns="http://www.w3.org/2000/svg" viewBox="0 0 48 48"><defs><style>.cls-1{fill:#fff;}</style></defs><g id="light_logos" data-name="light logos"><circle class="cls-1" cx="24" cy="24" r="24"/><path class="cls-1" d="M19.65,11.55,10.8,20.4a6.16,6.16,0,0,0,0,8.7L19.65,38a6.29,6.29,0,0,0,3.45,1.73.27.27,0,0,1,.22.07h1.36a.29.29,0,0,0,.22-.07A5.8,5.8,0,0,0,28.35,38L37.2,29.1a6.16,6.16,0,0,0,0-8.7l-8.85-8.85A6.16,6.16,0,0,0,19.65,11.55ZM32,28.88a1.52,1.52,0,0,1-.45,1.05L29.93,31.5l-4.58-4.57a2,2,0,0,0-2.92,0L18,31.35l-1.43-1.42a1.46,1.46,0,0,1,0-2.11L23,21.37a1.47,1.47,0,0,1,2.1,0l6.37,6.45A1.52,1.52,0,0,1,32,28.88ZM26.1,13.8,35,22.65a2.9,2.9,0,0,1,.82,2.1,3.06,3.06,0,0,1-.82,2.1l-.38.37a4.75,4.75,0,0,0-1-1.5l-6.45-6.44a4.47,4.47,0,0,0-6.3,0L14.4,25.72a4,4,0,0,0-1,1.5l-.38-.37a3.07,3.07,0,0,1,0-4.2L21.9,13.8A3,3,0,0,1,24,13,2.82,2.82,0,0,1,26.1,13.8Z"/></g></svg>