<svg xmlns="http://www.w3.org/2000/svg" viewBox="0 0 279.21 48"><defs><style>.cls-1{fill:#205ab7;}.cls-2{fill:#fff;}</style></defs><g id="light_logos" data-name="light logos"><circle class="cls-1" cx="24" cy="24" r="24"/><path class="cls-2" d="M19.65,11.55,10.8,20.4a6.16,6.16,0,0,0,0,8.7L19.65,38a6.29,6.29,0,0,0,3.45,1.73.28.28,0,0,1,.22.07h1.35a.3.3,0,0,0,.23-.07A5.86,5.86,0,0,0,28.35,38L37.2,29.1a6.16,6.16,0,0,0,0-8.7l-8.85-8.85A6.16,6.16,0,0,0,19.65,11.55ZM32,28.88a1.57,1.57,0,0,1-.45,1.05L29.92,31.5l-4.57-4.57a2,2,0,0,0-2.93,0L18,31.35l-1.43-1.42a1.46,1.46,0,0,1,0-2.11L23,21.37a1.47,1.47,0,0,1,2.1,0l6.38,6.45A1.57,1.57,0,0,1,32,28.88ZM26.1,13.8,35,22.65a3,3,0,0,1,.82,2.1,3.11,3.11,0,0,1-.82,2.1l-.38.37a4.75,4.75,0,0,0-1-1.5l-6.45-6.44a4.47,4.47,0,0,0-6.3,0L14.4,25.72a4.15,4.15,0,0,0-1,1.5l-.37-.37a3.07,3.07,0,0,1,0-4.2L21.9,13.8A3,3,0,0,1,24,13,2.82,2.82,0,0,1,26.1,13.8Z"/><path class="cls-2" d="M272.92,13.08h.94v3h.54v-3h1v-.54h-2.46Z"/><path class="cls-2" d="M278.38,12.54,277.54,15l-.78-2.46h-.89V16h.54v-2.8l.93,2.8h.4l.93-2.8V16h.54V12.54Z"/><path class="cls-2" d="M60,29.12V29c0-4.89,3.78-7.29,9.2-7.29a18.06,18.06,0,0,1,6,.95v-.56c0-3.21-1.93-4.93-5.5-4.93a15.25,15.25,0,0,0-6.34,1.41l-1.39-4.07a19,19,0,0,1,8.4-1.84c3.32,0,5.8.9,7.35,2.53s2.4,4,2.4,7V35.64h-5V32.81a8.94,8.94,0,0,1-7.22,3.3C63.74,36.11,60,33.66,60,29.12Zm15.25-1.63V26a14,14,0,0,0-5-.9c-3.28,0-5.21,1.42-5.21,3.77v.09c0,2.18,1.89,3.43,4.32,3.43C72.68,32.34,75.25,30.37,75.25,27.49Z"/><path class="cls-2" d="M85.37,13h5.12v3.77a8.84,8.84,0,0,1,7.56-4.24c5.21,0,10.29,4.2,10.29,11.74v.09c0,7.5-5,11.74-10.29,11.74a9,9,0,0,1-7.56-4V42.49H85.37Zm17.81,11.36v-.09c0-4.37-2.94-7.24-6.35-7.24S90.37,20,90.37,24.28v.09c0,4.32,3,7.24,6.46,7.24S103.18,28.82,103.18,24.37Z"/><path class="cls-2" d="M112.63,13h5.12v3.77a8.84,8.84,0,0,1,7.56-4.24c5.21,0,10.29,4.2,10.29,11.74v.09c0,7.5-5,11.74-10.29,11.74a9,9,0,0,1-7.56-4V42.49h-5.12Zm17.81,11.36v-.09c0-4.37-3-7.24-6.35-7.24s-6.47,2.91-6.47,7.24v.09c0,4.32,3,7.24,6.47,7.24S130.44,28.82,130.44,24.37Z"/><path class="cls-2" d="M151.1,29.12V29c0-4.89,3.78-7.29,9.2-7.29a18.06,18.06,0,0,1,6,.95v-.56c0-3.21-1.93-4.93-5.5-4.93a15.25,15.25,0,0,0-6.34,1.41L153,14.55a19,19,0,0,1,8.4-1.84c3.32,0,5.8.9,7.35,2.53s2.4,4,2.4,7V35.64h-5V32.81a8.94,8.94,0,0,1-7.22,3.3C154.84,36.11,151.1,33.66,151.1,29.12Zm15.25-1.63V26a14,14,0,0,0-5-.9c-3.28,0-5.21,1.42-5.21,3.77v.09c0,2.18,1.89,3.43,4.32,3.43C163.78,32.34,166.35,30.37,166.35,27.49Z"/><path class="cls-2" d="M173.82,13h5.25l4.45,15.51,4.92-15.59h4.37l4.91,15.59L202.26,13h5.12l-7.27,22.8h-4.57l-5-15.47-5,15.47h-4.53Z"/><path class="cls-2" d="M208.93,29.12V29c0-4.89,3.78-7.29,9.2-7.29a18.06,18.06,0,0,1,6,.95v-.56c0-3.21-1.93-4.93-5.5-4.93a15.25,15.25,0,0,0-6.34,1.41l-1.39-4.07a19,19,0,0,1,8.4-1.84c3.32,0,5.8.9,7.35,2.53s2.4,4,2.4,7V35.64h-5V32.81a8.94,8.94,0,0,1-7.22,3.3C212.67,36.11,208.93,33.66,208.93,29.12Zm15.25-1.63V26a14,14,0,0,0-5-.9c-3.28,0-5.21,1.42-5.21,3.77v.09c0,2.18,1.89,3.43,4.32,3.43C221.61,32.34,224.18,30.37,224.18,27.49Z"/><path class="cls-2" d="M234.46,13h5.12v5.1c1.39-3.39,3.95-5.7,7.86-5.53v5.49h-.3c-4.45,0-7.56,2.95-7.56,9v8.62h-5.12Z"/><path class="cls-2" d="M249.5,24.41v-.09c0-6.47,4.5-11.78,10.84-11.78,7.06,0,10.62,5.66,10.62,12.17,0,.47,0,.94-.08,1.46h-16.3A6.24,6.24,0,0,0,261,31.91a8,8,0,0,0,6-2.7l3,2.7a11.14,11.14,0,0,1-9.08,4.24C254.46,36.15,249.5,31.39,249.5,24.41Zm16.43-1.67c-.34-3.34-2.27-6-5.63-6-3.11,0-5.3,2.44-5.76,6Z"/></g></svg>