<svg xmlns="http://www.w3.org/2000/svg" viewBox="0 0 508.65 50"><defs><style>.cls-1{fill:#fff;}.cls-2{fill:#9a9a9a;}</style></defs><g id="light_logos" data-name="light logos"><path class="cls-1" d="M255.54,14.8a2.77,2.77,0,0,0-2.1-.83,3,3,0,0,0-2.1.83l-8.85,8.85a3.1,3.1,0,0,0,0,4.2l.38.37a3.93,3.93,0,0,1,1-1.5l6.45-6.45a4.49,4.49,0,0,1,6.3,0L263,26.72a4.85,4.85,0,0,1,1,1.5l.37-.37a3.07,3.07,0,0,0,.83-2.1,2.91,2.91,0,0,0-.83-2.1Z"/><path class="cls-1" d="M254.57,22.37a1.45,1.45,0,0,0-2.1,0L246,28.82a1.52,1.52,0,0,0-.45,1.05,1.49,1.49,0,0,0,.45,1.05l1.42,1.43,4.43-4.43a2,2,0,0,1,2.92,0l4.58,4.58,1.57-1.58a1.49,1.49,0,0,0,.45-1.05,1.52,1.52,0,0,0-.45-1.05Z"/><path class="cls-1" d="M253.44,1a24,24,0,1,0,24,24A24,24,0,0,0,253.44,1Zm13.2,29.1L257.79,39a5.84,5.84,0,0,1-3.45,1.72.26.26,0,0,1-.22.08h-1.35a.27.27,0,0,0-.23-.08A6.34,6.34,0,0,1,249.09,39l-8.85-8.85a6.16,6.16,0,0,1,0-8.7l8.85-8.85a6.16,6.16,0,0,1,8.7,0l8.85,8.85a6.16,6.16,0,0,1,0,8.7Z"/><path class="cls-1" d="M502.37,14.08h.93v3h.54v-3h1v-.54h-2.45Z"/><path class="cls-1" d="M507.82,13.54,507,16l-.78-2.46h-.89V17h.54v-2.8l.94,2.8h.39l.93-2.8V17h.54V13.54Z"/><path class="cls-1" d="M289.44,30.12V30c0-4.89,3.78-7.29,9.2-7.29a18.34,18.34,0,0,1,6,.94v-.55c0-3.22-1.93-4.93-5.5-4.93a15.25,15.25,0,0,0-6.34,1.41l-1.39-4.07a19,19,0,0,1,8.4-1.84c3.32,0,5.8.9,7.35,2.53s2.4,4,2.4,7V36.64h-5V33.81a8.94,8.94,0,0,1-7.22,3.3C293.18,37.11,289.44,34.66,289.44,30.12Zm15.25-1.63V27a14,14,0,0,0-5-.9c-3.28,0-5.21,1.42-5.21,3.77v.09c0,2.18,1.89,3.43,4.32,3.43C302.12,33.34,304.69,31.37,304.69,28.49Z"/><path class="cls-1" d="M314.81,14h5.12v3.77a8.84,8.84,0,0,1,7.56-4.24c5.21,0,10.29,4.2,10.29,11.74v.09c0,7.49-5,11.74-10.29,11.74a9,9,0,0,1-7.56-4V43.49h-5.12Zm17.81,11.36v-.09c0-4.37-2.94-7.24-6.34-7.24s-6.47,2.91-6.47,7.24v.09c0,4.32,3,7.24,6.47,7.24S332.62,29.82,332.62,25.37Z"/><path class="cls-1" d="M342.07,14h5.12v3.77a8.84,8.84,0,0,1,7.56-4.24c5.21,0,10.29,4.2,10.29,11.74v.09c0,7.49-5,11.74-10.29,11.74a9,9,0,0,1-7.56-4V43.49h-5.12Zm17.81,11.36v-.09c0-4.37-2.94-7.24-6.35-7.24s-6.46,2.91-6.46,7.24v.09c0,4.32,3,7.24,6.46,7.24S359.88,29.82,359.88,25.37Z"/><path class="cls-1" d="M380.54,30.12V30c0-4.89,3.78-7.29,9.2-7.29a18.34,18.34,0,0,1,6,.94v-.55c0-3.22-1.93-4.93-5.5-4.93a15.25,15.25,0,0,0-6.34,1.41l-1.39-4.07a19,19,0,0,1,8.4-1.84c3.32,0,5.8.9,7.35,2.53s2.4,4,2.4,7V36.64h-5V33.81a8.94,8.94,0,0,1-7.22,3.3C384.28,37.11,380.54,34.66,380.54,30.12Zm15.25-1.63V27a14,14,0,0,0-5-.9c-3.28,0-5.21,1.42-5.21,3.77v.09c0,2.18,1.89,3.43,4.32,3.43C393.22,33.34,395.79,31.37,395.79,28.49Z"/><path class="cls-1" d="M403.26,14h5.25L413,29.52l4.92-15.6h4.37l4.91,15.6L431.7,14h5.12l-7.27,22.8H425l-5-15.47-5,15.47h-4.53Z"/><path class="cls-1" d="M438.37,30.12V30c0-4.89,3.78-7.29,9.2-7.29a18.34,18.34,0,0,1,6,.94v-.55c0-3.22-1.93-4.93-5.5-4.93a15.25,15.25,0,0,0-6.34,1.41l-1.39-4.07a19,19,0,0,1,8.4-1.84c3.32,0,5.8.9,7.35,2.53s2.4,4,2.4,7V36.64h-5V33.81a8.94,8.94,0,0,1-7.22,3.3C442.11,37.11,438.37,34.66,438.37,30.12Zm15.25-1.63V27a14,14,0,0,0-5-.9c-3.28,0-5.21,1.42-5.21,3.77v.09c0,2.18,1.89,3.43,4.33,3.43C451.05,33.34,453.62,31.37,453.62,28.49Z"/><path class="cls-1" d="M463.9,14H469v5.1c1.39-3.39,4-5.7,7.86-5.53v5.49h-.3c-4.45,0-7.56,2.95-7.56,9v8.62H463.9Z"/><path class="cls-1" d="M478.94,25.41v-.09c0-6.47,4.5-11.78,10.84-11.78,7.06,0,10.63,5.66,10.63,12.17,0,.47-.05.94-.09,1.46H484a6.23,6.23,0,0,0,6.38,5.74,8,8,0,0,0,6-2.7l3,2.7a11.13,11.13,0,0,1-9.07,4.24C483.9,37.15,478.94,32.39,478.94,25.41Zm16.43-1.67c-.34-3.34-2.27-6-5.63-6-3.11,0-5.29,2.44-5.76,6Z"/><polygon class="cls-1" points="195.92 11.26 194.93 11.26 194.93 10.71 197.48 10.71 197.48 11.26 196.49 11.26 196.49 14.29 195.92 14.29 195.92 11.26"/><polygon class="cls-1" points="197.94 10.71 198.84 10.71 199.68 13.25 199.69 13.25 200.52 10.71 201.43 10.71 201.43 14.29 200.85 14.29 200.85 11.41 200.85 11.41 199.87 14.29 199.47 14.29 198.5 11.41 198.49 11.41 198.49 14.29 197.94 14.29 197.94 10.71"/><path class="cls-1" d="M178.32,10.59a2.81,2.81,0,0,0-2.89,2.47,11,11,0,0,0-8-3.09A14.15,14.15,0,0,0,153.13,24.3c0,.2,0,.39,0,.58a8.1,8.1,0,0,1,5.15,7.54,7.94,7.94,0,0,1-.45,2.63,14.34,14.34,0,0,0,9.56,3.49,12.25,12.25,0,0,0,8-3.24A2.79,2.79,0,0,0,178.32,38a2.76,2.76,0,0,0,3-3V13.52a2.77,2.77,0,0,0-3-2.93m-11,21.66a8,8,0,1,1,7.95-8,8,8,0,0,1-7.95,8M126.07,10.59a2.81,2.81,0,0,0-2.89,2.47,11,11,0,0,0-8-3.09A14.15,14.15,0,0,0,100.87,24.3a14,14,0,0,0,14.28,14.24,12.25,12.25,0,0,0,8-3.24A2.79,2.79,0,0,0,126.07,38a2.76,2.76,0,0,0,3-3V13.52a2.77,2.77,0,0,0-3-2.93M114.9,32.25a8,8,0,1,1,8-8,8,8,0,0,1-8,8M25.19,0a2.76,2.76,0,0,0-3,2.92V13.1A10.55,10.55,0,0,0,14.27,10,14.68,14.68,0,0,0,0,24.3,14.63,14.63,0,0,0,14.27,38.54a12.14,12.14,0,0,0,8.2-3.45A3.09,3.09,0,0,0,25.67,38a2.48,2.48,0,0,0,2.49-2.64V2.92a2.79,2.79,0,0,0-3-2.92m-11,32.25a8,8,0,1,1,8-8,8,8,0,0,1-8,8m54.2-21.66c-1.9,0-2.88.89-3.12,2.87A12.26,12.26,0,0,0,57.06,10,14.66,14.66,0,0,0,42.79,24.26,14.65,14.65,0,0,0,57.06,38.54c3.44,0,6.16-1,7.9-3-.16,5.75-2.94,8.55-8.47,8.55a2.79,2.79,0,0,0-3,3c0,1.89,1.15,3,3.16,3C67.22,50,71,42.33,71,35.76V13.18a2.48,2.48,0,0,0-2.54-2.59M56.94,32.25a8,8,0,1,1,8-8,8,8,0,0,1-8,8M189.41,10.39a2.86,2.86,0,0,0-2.92,2.93l-.07,21.78a2.82,2.82,0,0,0,2.92,3,2.76,2.76,0,0,0,3-3l.07-21.78a2.79,2.79,0,0,0-3-2.93m-153.6-.12a2.86,2.86,0,0,0-2.93,2.92V35a2.83,2.83,0,0,0,2.93,3,2.76,2.76,0,0,0,3-3V13.19a2.79,2.79,0,0,0-3-2.92m43.3.07a2.86,2.86,0,0,0-2.92,2.92V35a2.82,2.82,0,0,0,2.92,3,2.76,2.76,0,0,0,3-3V13.26a2.78,2.78,0,0,0-3-2.92M97.37,32.21c-1.93-.16-3.13-.7-3.13-2.92V16.73h1.53a2.83,2.83,0,0,0,2.93-2.92,2.77,2.77,0,0,0-2.93-3H94.24V3a2.76,2.76,0,0,0-3-3,2.82,2.82,0,0,0-2.92,3V10.9a2.69,2.69,0,0,0-2.3,2.91,2.81,2.81,0,0,0,2.3,2.89V29.34c0,5.48,3,8.63,8.09,8.63,2.13,0,3.41-1,3.41-2.74a2.7,2.7,0,0,0-2.48-3M137.6,0a2.79,2.79,0,0,0-2.92,2.92V35a2.82,2.82,0,0,0,2.92,3,2.76,2.76,0,0,0,3-3V2.92a2.73,2.73,0,0,0-3-2.92m17.21,29.3-.32-.43a5.85,5.85,0,0,0-.92-.87,3.32,3.32,0,0,0-.36-.26,5.55,5.55,0,0,0-2.08-.81,5.86,5.86,0,0,0-.94-.08,5.52,5.52,0,0,0-2.65.67l-.46.28a5.57,5.57,0,0,0,0,9.23,3.14,3.14,0,0,0,.46.28,5.52,5.52,0,0,0,6.19-.6,5.39,5.39,0,0,0,.76-.75c.11-.14.22-.28.32-.43a5.7,5.7,0,0,0,.51-.94,5.57,5.57,0,0,0,0-4.34,5.79,5.79,0,0,0-.51-.95"/><path class="cls-2" d="M120.19,23.06a5.59,5.59,0,0,1,.14,1.23,5.09,5.09,0,0,1,0,.69,4.94,4.94,0,0,1-.12.67,5.43,5.43,0,0,1-10.68-1.36,5.6,5.6,0,0,1,.11-1.09,5.44,5.44,0,0,1,3.2-3.91,5.42,5.42,0,0,1,4.23,0,5.42,5.42,0,0,1,2.76,2.64,5.65,5.65,0,0,1,.41,1.13m-106-4.2a5.43,5.43,0,1,0,5.42,5.43,5.43,5.43,0,0,0-5.42-5.43m155.25.43a4.24,4.24,0,0,0-.5-.18,6.51,6.51,0,0,0-.79-.19,5.55,5.55,0,0,0-.82-.06,5.43,5.43,0,0,0-1.62.25,4.09,4.09,0,0,0-.49.18A5.43,5.43,0,0,0,162,23.2a5.6,5.6,0,0,0-.11,1.09,5.42,5.42,0,0,0,1.59,3.84,5.5,5.5,0,0,0,.8.66,5.34,5.34,0,0,0,1.42.69,5.43,5.43,0,0,0,1.62.24,5.55,5.55,0,0,0,.82-.06,5,5,0,0,0,.79-.18,5.19,5.19,0,0,0,1.42-.69,4.61,4.61,0,0,0,.8-.66,5.42,5.42,0,0,0,1.59-3.84,5.6,5.6,0,0,0-.11-1.09,5.44,5.44,0,0,0-3.2-3.91m-110.42,0a5.42,5.42,0,0,0-4.23,0,5.44,5.44,0,0,0-3.2,3.91,5.6,5.6,0,0,0-.11,1.09,5.43,5.43,0,1,0,10.85,0,5.6,5.6,0,0,0-.11-1.09,5.44,5.44,0,0,0-3.2-3.91"/></g></svg>