<svg xmlns="http://www.w3.org/2000/svg" viewBox="0 0 780.21 50"><defs><style>.cls-1{fill:#fff;}</style></defs><g id="light_logos" data-name="light logos"><path class="cls-1" d="M774.17,14.84h.93v2.95h.54V14.84h1V14.3h-2.45Z"/><path class="cls-1" d="M779.62,14.3l-.84,2.46L778,14.3h-.89v3.49h.54V15l.94,2.8H779l.93-2.8v2.8h.54V14.3Z"/><path class="cls-1" d="M300.73,14.3c-6.24,0-10.66,5.22-10.66,11.59V26c0,6.87,4.88,11.54,11.19,11.54a10.92,10.92,0,0,0,8.92-4.17l-2.93-2.65a7.86,7.86,0,0,1-5.9,2.65,6.13,6.13,0,0,1-6.28-5.64h16c0-.51.08-1,.08-1.44C311.17,19.86,307.66,14.3,300.73,14.3Zm-5.7,10c.45-3.46,2.6-5.86,5.66-5.86,3.3,0,5.2,2.57,5.53,5.86Z"/><path class="cls-1" d="M324.18,23.86c-2.56-.84-4.91-1.51-4.91-3.16v-.08c0-1.22,1.11-2.19,3.05-2.19a12.41,12.41,0,0,1,6.15,2.11l2-3.63a14.93,14.93,0,0,0-8-2.53c-4.34,0-7.77,2.57-7.77,6.83v.08c0,4.22,3.6,5.56,6.82,6.49,2.56.8,4.87,1.39,4.87,3.12V31c0,1.48-1.24,2.4-3.39,2.4a12.11,12.11,0,0,1-7.14-2.74l-2.23,3.46a14.87,14.87,0,0,0,9.25,3.33c4.54,0,8.09-2.32,8.09-7v-.08C331,26.35,327.36,24.87,324.18,23.86Z"/><path class="cls-1" d="M344.06,23.86c-2.56-.84-4.91-1.51-4.91-3.16v-.08c0-1.22,1.11-2.19,3.05-2.19a12.41,12.41,0,0,1,6.15,2.11l2-3.63a14.93,14.93,0,0,0-8-2.53c-4.34,0-7.77,2.57-7.77,6.83v.08c0,4.22,3.6,5.56,6.81,6.49,2.57.8,4.88,1.39,4.88,3.12V31c0,1.48-1.24,2.4-3.39,2.4a12.11,12.11,0,0,1-7.14-2.74l-2.23,3.46a14.87,14.87,0,0,0,9.25,3.33c4.54,0,8.09-2.32,8.09-7v-.08C350.83,26.35,347.24,24.87,344.06,23.86Z"/><path class="cls-1" d="M364.47,14.3c-6.24,0-10.65,5.22-10.65,11.59V26c0,6.87,4.87,11.54,11.19,11.54a10.92,10.92,0,0,0,8.91-4.17L371,30.69a7.86,7.86,0,0,1-5.9,2.65,6.13,6.13,0,0,1-6.28-5.64h16c0-.51.08-1,.08-1.44C374.91,19.86,371.41,14.3,364.47,14.3Zm-5.7,10c.45-3.46,2.6-5.86,5.66-5.86,3.3,0,5.2,2.57,5.53,5.86Z"/><path class="cls-1" d="M391.1,14.3a7.85,7.85,0,0,0-6.81,3.88V14.76h-5V37h5V24.45c0-3.45,2-5.52,4.91-5.52s4.67,2,4.67,5.44V37h5V22.81C398.86,17.67,396,14.3,391.1,14.3Z"/><path class="cls-1" d="M409.9,8.66h-5v6.1h-2.76v4.38h2.76V30.86c0,4.88,2.6,6.53,6.28,6.53a8.56,8.56,0,0,0,4.5-1.14V32.08a6.67,6.67,0,0,1-3.1.76c-1.69,0-2.68-.8-2.68-2.78V19.14h5.86V14.76H409.9Z"/><rect class="cls-1" x="420.08" y="14.76" width="5.04" height="22.24"/><path class="cls-1" d="M439.43,14.47a18.7,18.7,0,0,0-8.26,1.81l1.37,4a15,15,0,0,1,6.23-1.39c3.51,0,5.41,1.69,5.41,4.85v.54a18.1,18.1,0,0,0-5.86-.92c-5.33,0-9,2.36-9,7.16v.08c0,4.47,3.67,6.87,7.76,6.87a8.8,8.8,0,0,0,7.1-3.24V37H449V23.82c0-2.91-.74-5.26-2.35-6.87S442.69,14.47,439.43,14.47ZM444.26,29c0,2.82-2.52,4.76-5.82,4.76-2.39,0-4.25-1.22-4.25-3.37v-.08c0-2.32,1.9-3.71,5.12-3.71a13.48,13.48,0,0,1,4.95.89Z"/><rect class="cls-1" x="454.52" y="6.25" width="5.04" height="30.75"/><path class="cls-1" d="M486.31,14.47a18.7,18.7,0,0,0-8.26,1.81l1.37,4a15,15,0,0,1,6.23-1.39c3.51,0,5.41,1.69,5.41,4.85v.54a18.1,18.1,0,0,0-5.86-.92c-5.33,0-9,2.36-9,7.16v.08c0,4.47,3.67,6.87,7.76,6.87a8.8,8.8,0,0,0,7.1-3.24V37h4.87V23.82c0-2.91-.74-5.26-2.35-6.87S489.57,14.47,486.31,14.47ZM491.14,29c0,2.82-2.52,4.76-5.82,4.76-2.39,0-4.25-1.22-4.25-3.37v-.08c0-2.32,1.9-3.71,5.12-3.71a13.48,13.48,0,0,1,4.95.89Z"/><path class="cls-1" d="M513.72,14.3a8.68,8.68,0,0,0-7.43,4.17V14.76h-5v29h5V33.55a8.85,8.85,0,0,0,7.43,3.92c5.16,0,10.12-4.17,10.12-11.54v-.09C523.84,18.43,518.84,14.3,513.72,14.3Zm5,11.63c0,4.38-2.81,7.12-6.24,7.12s-6.36-2.87-6.36-7.12v-.09c0-4.25,3-7.12,6.36-7.12s6.24,2.83,6.24,7.12Z"/><path class="cls-1" d="M540.79,14.3a8.68,8.68,0,0,0-7.43,4.17V14.76h-5v29h5V33.55a8.85,8.85,0,0,0,7.43,3.92c5.16,0,10.12-4.17,10.12-11.54v-.09C550.91,18.43,545.91,14.3,540.79,14.3Zm5,11.63c0,4.38-2.81,7.12-6.23,7.12s-6.36-2.87-6.36-7.12v-.09c0-4.25,3-7.12,6.36-7.12s6.23,2.83,6.23,7.12Z"/><path class="cls-1" d="M580.06,14.3a8.68,8.68,0,0,0-7.43,4.17V14.76h-5v29h5V33.55a8.84,8.84,0,0,0,7.43,3.92c5.16,0,10.11-4.17,10.11-11.54v-.09C590.17,18.43,585.18,14.3,580.06,14.3Zm5,11.63c0,4.38-2.81,7.12-6.24,7.12s-6.36-2.87-6.36-7.12v-.09c0-4.25,3-7.12,6.36-7.12s6.24,2.83,6.24,7.12Z"/><path class="cls-1" d="M599.7,19.78v-5h-5V37h5V28.54c0-5.9,3-8.81,7.43-8.81h.29V14.34C603.58,14.17,601.06,16.45,599.7,19.78Z"/><path class="cls-1" d="M621,14.3a11.51,11.51,0,0,0-11.64,11.63V26a11.38,11.38,0,0,0,11.56,11.5,11.5,11.5,0,0,0,11.68-11.58v-.09A11.4,11.4,0,0,0,621,14.3ZM627.62,26c0,3.83-2.56,7-6.61,7-3.88,0-6.65-3.25-6.65-7.12v-.09c0-3.87,2.56-7.07,6.57-7.07s6.69,3.24,6.69,7.16Z"/><path class="cls-1" d="M642.49,8.66h-5v6.1h-2.77v4.38h2.77V30.86c0,4.88,2.6,6.53,6.27,6.53a8.56,8.56,0,0,0,4.5-1.14V32.08a6.66,6.66,0,0,1-3.09.76c-1.7,0-2.69-.8-2.69-2.78V19.14h5.86V14.76h-5.86Z"/><path class="cls-1" d="M661.47,14.3c-6.24,0-10.65,5.22-10.65,11.59V26c0,6.87,4.87,11.54,11.19,11.54a10.92,10.92,0,0,0,8.91-4.17L668,30.69a7.86,7.86,0,0,1-5.9,2.65,6.13,6.13,0,0,1-6.28-5.64h16c0-.51.08-1,.08-1.44C671.91,19.86,668.41,14.3,661.47,14.3Zm-5.7,10c.45-3.46,2.6-5.86,5.66-5.86,3.3,0,5.2,2.57,5.53,5.86Z"/><path class="cls-1" d="M686.49,33.05c-3.84,0-6.52-3.16-6.52-7.12v-.09c0-3.87,2.68-7.07,6.32-7.07a7.34,7.34,0,0,1,5.61,2.78L695,18.13a10.91,10.91,0,0,0-8.71-3.83A11.37,11.37,0,0,0,675,25.93V26a11.25,11.25,0,0,0,11.28,11.5,10.93,10.93,0,0,0,8.91-4.17l-3-3A7.65,7.65,0,0,1,686.49,33.05Z"/><path class="cls-1" d="M705.45,8.66h-5v6.1h-2.77v4.38h2.77V30.86c0,4.88,2.6,6.53,6.28,6.53a8.59,8.59,0,0,0,4.5-1.14V32.08a6.7,6.7,0,0,1-3.1.76c-1.69,0-2.68-.8-2.68-2.78V19.14h5.86V14.76h-5.86Z"/><rect class="cls-1" x="715.63" y="14.76" width="5.04" height="22.24"/><path class="cls-1" d="M736.69,14.3a11.51,11.51,0,0,0-11.64,11.63V26a11.38,11.38,0,0,0,11.56,11.5,11.5,11.5,0,0,0,11.68-11.58v-.09A11.4,11.4,0,0,0,736.69,14.3ZM743.3,26c0,3.83-2.56,7-6.61,7-3.88,0-6.65-3.25-6.65-7.12v-.09c0-3.87,2.56-7.07,6.57-7.07s6.69,3.24,6.69,7.16Z"/><path class="cls-1" d="M764.44,14.3a7.85,7.85,0,0,0-6.81,3.88V14.76h-5V37h5V24.45c0-3.45,2-5.52,4.91-5.52s4.67,2,4.67,5.44V37h5V22.81C772.2,17.67,769.35,14.3,764.44,14.3Z"/><circle class="cls-1" cx="718.15" cy="8.77" r="2.52"/><circle class="cls-1" cx="422.6" cy="8.77" r="2.52"/><path class="cls-1" d="M255.74,23.06a2.29,2.29,0,0,0-2.33-2.16,2.14,2.14,0,0,0-2.16,2.16,2.25,2.25,0,0,0,1.21,2l-1.3,4.14h4.66L254.53,25A2.25,2.25,0,0,0,255.74,23.06Z"/><path class="cls-1" d="M253.67,1a24,24,0,1,0,24,24A24,24,0,0,0,253.67,1Zm-8.54,37.5L237.28,25,245,11.5h3.8L241.07,25l7.85,13.54Zm8.54-6.12A7.42,7.42,0,1,1,261.08,25,7.42,7.42,0,0,1,253.67,32.38Zm8.54,6.12h-3.8L266.26,25,258.5,11.5h3.79L270.06,25Z"/><polygon class="cls-1" points="195.67 11.26 194.68 11.26 194.68 10.71 197.23 10.71 197.23 11.26 196.25 11.26 196.25 14.29 195.67 14.29 195.67 11.26"/><polygon class="cls-1" points="197.7 10.71 198.6 10.71 199.43 13.25 199.45 13.25 200.28 10.71 201.18 10.71 201.18 14.29 200.61 14.29 200.61 11.41 200.6 11.41 199.62 14.29 199.22 14.29 198.25 11.41 198.25 11.41 198.25 14.29 197.7 14.29 197.7 10.71"/><path class="cls-1" d="M178.08,10.59a2.82,2.82,0,0,0-2.9,2.47,11,11,0,0,0-8-3.09A14.15,14.15,0,0,0,152.88,24.3c0,.2,0,.39,0,.58A8.11,8.11,0,0,1,158,32.42a8.2,8.2,0,0,1-.44,2.63,14.32,14.32,0,0,0,9.56,3.49,12.25,12.25,0,0,0,8-3.24A2.79,2.79,0,0,0,178.08,38a2.76,2.76,0,0,0,3-3V13.52a2.77,2.77,0,0,0-3-2.93m-11,21.66a8,8,0,1,1,8-8,8,8,0,0,1-8,8M125.82,10.59a2.82,2.82,0,0,0-2.89,2.47,11,11,0,0,0-8-3.09A14.15,14.15,0,0,0,100.63,24.3,13.94,13.94,0,0,0,114.9,38.54a12.23,12.23,0,0,0,8-3.24A2.81,2.81,0,0,0,125.82,38a2.76,2.76,0,0,0,3-3V13.52a2.76,2.76,0,0,0-3-2.93M114.66,32.25a8,8,0,1,1,8-8,8,8,0,0,1-8,8M25,0a2.76,2.76,0,0,0-3,2.93V13.1A10.58,10.58,0,0,0,14,10,14.68,14.68,0,0,0-.25,24.3,14.63,14.63,0,0,0,14,38.54a12.11,12.11,0,0,0,8.2-3.45A3.08,3.08,0,0,0,25.43,38a2.49,2.49,0,0,0,2.49-2.64V2.93A2.79,2.79,0,0,0,25,0M14,32.25a8,8,0,1,1,8-8,8,8,0,0,1-8,8m54.2-21.66c-1.9,0-2.87.89-3.12,2.87A12.23,12.23,0,0,0,56.82,10,14.66,14.66,0,0,0,42.55,24.26,14.65,14.65,0,0,0,56.82,38.54c3.44,0,6.15-1,7.89-3-.16,5.75-2.93,8.55-8.47,8.55a2.79,2.79,0,0,0-3,3c0,1.89,1.16,3,3.17,3C67,50,70.71,42.33,70.71,35.76V13.18a2.48,2.48,0,0,0-2.54-2.59M56.69,32.25a8,8,0,1,1,8-8,8,8,0,0,1-8,8M189.17,10.39a2.87,2.87,0,0,0-2.93,2.93l-.07,21.78a2.82,2.82,0,0,0,2.92,3,2.76,2.76,0,0,0,3-3l.08-21.78a2.8,2.8,0,0,0-3-2.93M35.56,10.27a2.85,2.85,0,0,0-2.92,2.92V35a2.82,2.82,0,0,0,2.92,3,2.76,2.76,0,0,0,3-3V13.19a2.78,2.78,0,0,0-3-2.92m43.31.07a2.86,2.86,0,0,0-2.93,2.92V35a2.82,2.82,0,0,0,2.93,3,2.76,2.76,0,0,0,3-3V13.26a2.8,2.8,0,0,0-3-2.92M97.12,32.21c-1.93-.16-3.12-.7-3.12-2.92V16.73h1.53a2.83,2.83,0,0,0,2.92-2.92,2.77,2.77,0,0,0-2.92-3H94V3a2.76,2.76,0,0,0-3-3A2.82,2.82,0,0,0,88.1,3V10.9a2.7,2.7,0,0,0-2.3,2.91,2.81,2.81,0,0,0,2.3,2.89V29.34c0,5.48,3,8.63,8.1,8.63,2.13,0,3.4-1,3.4-2.74a2.69,2.69,0,0,0-2.48-3M137.35,0a2.8,2.8,0,0,0-2.92,2.93V35a2.82,2.82,0,0,0,2.92,3,2.76,2.76,0,0,0,3-3V2.93a2.74,2.74,0,0,0-3-2.93m17.21,29.3a4.23,4.23,0,0,0-.32-.42,5.42,5.42,0,0,0-.91-.88l-.36-.26a5.62,5.62,0,0,0-3-.89,5.52,5.52,0,0,0-2.65.67l-.46.28a5.58,5.58,0,0,0,0,9.24,4.25,4.25,0,0,0,.46.27,5.54,5.54,0,0,0,6.19-.59,6,6,0,0,0,.75-.76,4.35,4.35,0,0,0,.32-.43,5.37,5.37,0,0,0,.52-.94,5.69,5.69,0,0,0,0-4.34,5.84,5.84,0,0,0-.52-.95"/><path class="cls-1" d="M119.94,23.06a5.59,5.59,0,0,1,.14,1.23,5.12,5.12,0,0,1,0,.69,5,5,0,0,1-.13.67,5.43,5.43,0,0,1-10.68-1.36,5.6,5.6,0,0,1,.11-1.09,5.45,5.45,0,0,1,3.21-3.91,5.39,5.39,0,0,1,4.22,0,5.44,5.44,0,0,1,2.77,2.64,5.62,5.62,0,0,1,.4,1.13M14,18.86a5.43,5.43,0,1,0,5.43,5.43A5.42,5.42,0,0,0,14,18.86m155.25.43a4.09,4.09,0,0,0-.49-.18,5.32,5.32,0,0,0-.79-.18,4.57,4.57,0,0,0-.83-.07,5.37,5.37,0,0,0-1.61.25,4.24,4.24,0,0,0-.5.18,5.44,5.44,0,0,0-3.2,3.91,5.6,5.6,0,0,0-.11,1.09,5.38,5.38,0,0,0,1.59,3.84,4.61,4.61,0,0,0,.8.66,5.19,5.19,0,0,0,1.42.69,5.36,5.36,0,0,0,1.61.24,5.69,5.69,0,0,0,.83-.06,5.16,5.16,0,0,0,2.2-.87,5.08,5.08,0,0,0,.81-.66,5.42,5.42,0,0,0,1.59-3.84,5.6,5.6,0,0,0-.11-1.09,5.43,5.43,0,0,0-3.21-3.91m-110.42,0a5.39,5.39,0,0,0-4.22,0,5.44,5.44,0,0,0-3.2,3.91,4.92,4.92,0,0,0-.11,1.09,5.43,5.43,0,1,0,10.85,0A5.6,5.6,0,0,0,62,23.2a5.45,5.45,0,0,0-3.21-3.91"/></g></svg>