<svg xmlns="http://www.w3.org/2000/svg" viewBox="0 0 780.21 50"><defs><style>.cls-1{fill:#fff;}.cls-2{fill:#9a9a9a;}</style></defs><g id="light_logos" data-name="light logos"><path class="cls-1" d="M773.93,14.84h.94v2.95h.54V14.84h1V14.3h-2.46Z"/><path class="cls-1" d="M779.39,14.3l-.84,2.46-.79-2.46h-.88v3.49h.54V15l.93,2.8h.4l.93-2.8v2.8h.54V14.3Z"/><path class="cls-1" d="M300.49,14.3c-6.23,0-10.65,5.22-10.65,11.59V26c0,6.87,4.87,11.54,11.19,11.54A10.94,10.94,0,0,0,310,33.34L307,30.69a7.88,7.88,0,0,1-5.91,2.65,6.12,6.12,0,0,1-6.27-5.64h16c0-.51.08-1,.08-1.44C310.94,19.86,307.43,14.3,300.49,14.3Zm-5.69,10c.45-3.46,2.6-5.86,5.65-5.86,3.31,0,5.2,2.57,5.54,5.86Z"/><path class="cls-1" d="M324,23.86C321.39,23,319,22.35,319,20.7v-.08c0-1.22,1.12-2.19,3.06-2.19a12.48,12.48,0,0,1,6.15,2.11l2-3.63a14.87,14.87,0,0,0-8-2.53c-4.33,0-7.76,2.57-7.76,6.83v.08c0,4.22,3.59,5.56,6.81,6.49,2.56.8,4.87,1.39,4.87,3.12V31c0,1.48-1.23,2.4-3.38,2.4a12.11,12.11,0,0,1-7.14-2.74l-2.23,3.46a14.87,14.87,0,0,0,9.24,3.33c4.55,0,8.1-2.32,8.1-7v-.08C330.72,26.35,327.12,24.87,324,23.86Z"/><path class="cls-1" d="M343.83,23.86c-2.56-.84-4.92-1.51-4.92-3.16v-.08c0-1.22,1.12-2.19,3.06-2.19a12.44,12.44,0,0,1,6.15,2.11l2-3.63a14.87,14.87,0,0,0-8-2.53c-4.33,0-7.76,2.57-7.76,6.83v.08c0,4.22,3.59,5.56,6.81,6.49,2.56.8,4.87,1.39,4.87,3.12V31c0,1.48-1.23,2.4-3.38,2.4a12.11,12.11,0,0,1-7.14-2.74l-2.23,3.46a14.87,14.87,0,0,0,9.24,3.33c4.55,0,8.1-2.32,8.1-7v-.08C350.6,26.35,347,24.87,343.83,23.86Z"/><path class="cls-1" d="M364.24,14.3c-6.24,0-10.66,5.22-10.66,11.59V26c0,6.87,4.87,11.54,11.19,11.54a10.92,10.92,0,0,0,8.92-4.17l-2.93-2.65a7.88,7.88,0,0,1-5.91,2.65,6.12,6.12,0,0,1-6.27-5.64h16c0-.51.08-1,.08-1.44C374.68,19.86,371.17,14.3,364.24,14.3Zm-5.7,10c.45-3.46,2.6-5.86,5.65-5.86,3.31,0,5.21,2.57,5.54,5.86Z"/><path class="cls-1" d="M390.87,14.3a7.88,7.88,0,0,0-6.82,3.88V14.76h-5V37h5V24.45c0-3.45,2-5.52,4.92-5.52s4.66,2,4.66,5.44V37h5V22.81C398.63,17.67,395.78,14.3,390.87,14.3Z"/><path class="cls-1" d="M409.67,8.66h-5v6.1H401.9v4.38h2.77V30.86c0,4.88,2.6,6.53,6.28,6.53a8.59,8.59,0,0,0,4.5-1.14V32.08a6.7,6.7,0,0,1-3.1.76c-1.69,0-2.68-.8-2.68-2.78V19.14h5.86V14.76h-5.86Z"/><rect class="cls-1" x="419.85" y="14.76" width="5.04" height="22.24"/><path class="cls-1" d="M439.2,14.47a18.7,18.7,0,0,0-8.26,1.81l1.36,4a15,15,0,0,1,6.24-1.39c3.51,0,5.41,1.69,5.41,4.85v.54a18.11,18.11,0,0,0-5.87-.92c-5.32,0-9,2.36-9,7.16v.08c0,4.47,3.68,6.87,7.76,6.87a8.81,8.81,0,0,0,7.11-3.24V37h4.87V23.82c0-2.91-.74-5.26-2.35-6.87S442.46,14.47,439.2,14.47ZM444,29c0,2.82-2.52,4.76-5.82,4.76-2.4,0-4.25-1.22-4.25-3.37v-.08c0-2.32,1.9-3.71,5.12-3.71a13.48,13.48,0,0,1,4.95.89Z"/><rect class="cls-1" x="454.29" y="6.25" width="5.04" height="30.75"/><path class="cls-1" d="M486.08,14.47a18.7,18.7,0,0,0-8.26,1.81l1.36,4a15,15,0,0,1,6.24-1.39c3.51,0,5.41,1.69,5.41,4.85v.54a18.16,18.16,0,0,0-5.87-.92c-5.32,0-9,2.36-9,7.16v.08c0,4.47,3.68,6.87,7.76,6.87a8.81,8.81,0,0,0,7.11-3.24V37h4.87V23.82c0-2.91-.75-5.26-2.36-6.87S489.34,14.47,486.08,14.47ZM490.91,29c0,2.82-2.52,4.76-5.82,4.76-2.4,0-4.26-1.22-4.26-3.37v-.08c0-2.32,1.9-3.71,5.13-3.71a13.48,13.48,0,0,1,5,.89Z"/><path class="cls-1" d="M513.49,14.3a8.7,8.7,0,0,0-7.44,4.17V14.76h-5v29h5V33.55a8.85,8.85,0,0,0,7.44,3.92c5.16,0,10.11-4.17,10.11-11.54v-.09C523.6,18.43,518.61,14.3,513.49,14.3Zm5,11.63c0,4.38-2.8,7.12-6.23,7.12s-6.36-2.87-6.36-7.12v-.09c0-4.25,3-7.12,6.36-7.12s6.23,2.83,6.23,7.12Z"/><path class="cls-1" d="M540.56,14.3a8.68,8.68,0,0,0-7.43,4.17V14.76h-5v29h5V33.55a8.85,8.85,0,0,0,7.43,3.92c5.16,0,10.12-4.17,10.12-11.54v-.09C550.68,18.43,545.68,14.3,540.56,14.3Zm5,11.63c0,4.38-2.81,7.12-6.24,7.12S533,30.18,533,25.93v-.09c0-4.25,3-7.12,6.36-7.12s6.24,2.83,6.24,7.12Z"/><path class="cls-1" d="M579.83,14.3a8.68,8.68,0,0,0-7.44,4.17V14.76h-5v29h5V33.55a8.85,8.85,0,0,0,7.44,3.92c5.16,0,10.11-4.17,10.11-11.54v-.09C589.94,18.43,584.94,14.3,579.83,14.3Zm5,11.63c0,4.38-2.8,7.12-6.23,7.12s-6.36-2.87-6.36-7.12v-.09c0-4.25,3-7.12,6.36-7.12s6.23,2.83,6.23,7.12Z"/><path class="cls-1" d="M599.47,19.78v-5h-5V37h5V28.54c0-5.9,3-8.81,7.43-8.81h.29V14.34C603.35,14.17,600.83,16.45,599.47,19.78Z"/><path class="cls-1" d="M620.78,14.3a11.52,11.52,0,0,0-11.65,11.63V26a11.39,11.39,0,0,0,11.56,11.5,11.51,11.51,0,0,0,11.69-11.58v-.09A11.41,11.41,0,0,0,620.78,14.3ZM627.38,26c0,3.83-2.56,7-6.6,7-3.89,0-6.65-3.25-6.65-7.12v-.09c0-3.87,2.56-7.07,6.56-7.07s6.69,3.24,6.69,7.16Z"/><path class="cls-1" d="M642.26,8.66h-5v6.1H634.5v4.38h2.76V30.86c0,4.88,2.6,6.53,6.28,6.53a8.56,8.56,0,0,0,4.5-1.14V32.08a6.67,6.67,0,0,1-3.1.76c-1.69,0-2.68-.8-2.68-2.78V19.14h5.86V14.76h-5.86Z"/><path class="cls-1" d="M661.24,14.3c-6.24,0-10.66,5.22-10.66,11.59V26c0,6.87,4.87,11.54,11.19,11.54a10.92,10.92,0,0,0,8.92-4.17l-2.93-2.65a7.88,7.88,0,0,1-5.91,2.65,6.12,6.12,0,0,1-6.27-5.64h16c0-.51.08-1,.08-1.44C671.68,19.86,668.17,14.3,661.24,14.3Zm-5.7,10c.45-3.46,2.6-5.86,5.65-5.86,3.31,0,5.21,2.57,5.54,5.86Z"/><path class="cls-1" d="M686.26,33.05c-3.84,0-6.52-3.16-6.52-7.12v-.09c0-3.87,2.68-7.07,6.31-7.07,2.48,0,4.09,1.17,5.62,2.78l3.14-3.42a10.94,10.94,0,0,0-8.71-3.83,11.37,11.37,0,0,0-11.36,11.63V26A11.24,11.24,0,0,0,686,37.51a11,11,0,0,0,8.92-4.17l-3-3A7.67,7.67,0,0,1,686.26,33.05Z"/><path class="cls-1" d="M705.21,8.66h-5v6.1h-2.77v4.38h2.77V30.86c0,4.88,2.6,6.53,6.27,6.53a8.56,8.56,0,0,0,4.5-1.14V32.08a6.66,6.66,0,0,1-3.09.76c-1.7,0-2.69-.8-2.69-2.78V19.14h5.87V14.76h-5.87Z"/><rect class="cls-1" x="715.4" y="14.76" width="5.04" height="22.24"/><path class="cls-1" d="M736.46,14.3a11.52,11.52,0,0,0-11.65,11.63V26a11.39,11.39,0,0,0,11.56,11.5,11.51,11.51,0,0,0,11.69-11.58v-.09A11.41,11.41,0,0,0,736.46,14.3ZM743.06,26c0,3.83-2.56,7-6.6,7s-6.65-3.25-6.65-7.12v-.09c0-3.87,2.56-7.07,6.56-7.07s6.69,3.24,6.69,7.16Z"/><path class="cls-1" d="M764.21,14.3a7.88,7.88,0,0,0-6.82,3.88V14.76h-5V37h5V24.45c0-3.45,2-5.52,4.92-5.52s4.66,2,4.66,5.44V37h5V22.81C772,17.67,769.12,14.3,764.21,14.3Z"/><circle class="cls-1" cx="717.91" cy="8.77" r="2.52"/><circle class="cls-1" cx="422.37" cy="8.77" r="2.52"/><path class="cls-1" d="M255.5,23.06a2.29,2.29,0,0,0-2.33-2.16A2.14,2.14,0,0,0,251,23.06a2.24,2.24,0,0,0,1.2,2l-1.29,4.14h4.66L254.29,25A2.25,2.25,0,0,0,255.5,23.06Z"/><path class="cls-1" d="M253.43,1a24,24,0,1,0,24,24A24,24,0,0,0,253.43,1Zm-8.54,37.5L237,25l7.77-13.46h3.79L240.84,25l7.85,13.54Zm8.54-6.12A7.42,7.42,0,1,1,260.85,25,7.42,7.42,0,0,1,253.43,32.38ZM262,38.5h-3.79L266,25,258.26,11.5h3.8L269.82,25Z"/><polygon class="cls-1" points="195.9 11.26 194.91 11.26 194.91 10.71 197.47 10.71 197.47 11.26 196.48 11.26 196.48 14.29 195.9 14.29 195.9 11.26"/><polygon class="cls-1" points="197.93 10.71 198.83 10.71 199.67 13.25 199.68 13.25 200.51 10.71 201.41 10.71 201.41 14.29 200.84 14.29 200.84 11.41 200.83 11.41 199.85 14.29 199.45 14.29 198.49 11.41 198.48 11.41 198.48 14.29 197.93 14.29 197.93 10.71"/><path class="cls-1" d="M178.31,10.59a2.81,2.81,0,0,0-2.89,2.47,11,11,0,0,0-8-3.09A14.15,14.15,0,0,0,153.11,24.3c0,.2,0,.39,0,.58a8.1,8.1,0,0,1,5.15,7.54,8.2,8.2,0,0,1-.45,2.63,14.32,14.32,0,0,0,9.56,3.49,12.25,12.25,0,0,0,8-3.24A2.79,2.79,0,0,0,178.31,38a2.76,2.76,0,0,0,3-3V13.52a2.77,2.77,0,0,0-3-2.93m-11,21.66a8,8,0,1,1,8-8,8,8,0,0,1-8,8M126.06,10.59a2.82,2.82,0,0,0-2.9,2.47,11,11,0,0,0-8-3.09A14.15,14.15,0,0,0,100.86,24.3a14,14,0,0,0,14.28,14.24,12.25,12.25,0,0,0,8-3.24A2.79,2.79,0,0,0,126.06,38a2.76,2.76,0,0,0,3-3V13.52a2.77,2.77,0,0,0-3-2.93M114.89,32.25a8,8,0,1,1,8-8,8,8,0,0,1-8,8M25.18,0a2.77,2.77,0,0,0-3,2.93V13.1a10.55,10.55,0,0,0-8-3.13A14.68,14.68,0,0,0,0,24.3,14.63,14.63,0,0,0,14.26,38.54a12.11,12.11,0,0,0,8.2-3.45A3.08,3.08,0,0,0,25.66,38a2.49,2.49,0,0,0,2.49-2.64V2.93a2.79,2.79,0,0,0-3-2.93m-11,32.25a8,8,0,1,1,8-8,8,8,0,0,1-8,8M68.4,10.59c-1.9,0-2.87.89-3.12,2.87A12.21,12.21,0,0,0,57.05,10,14.66,14.66,0,0,0,42.78,24.26,14.65,14.65,0,0,0,57.05,38.54c3.44,0,6.15-1,7.9-3-.17,5.75-2.94,8.55-8.47,8.55a2.79,2.79,0,0,0-3,3c0,1.89,1.15,3,3.16,3,10.54,0,14.27-7.67,14.27-14.24V13.18a2.48,2.48,0,0,0-2.54-2.59M56.92,32.25a8,8,0,1,1,8-8,8,8,0,0,1-8,8M189.4,10.39a2.86,2.86,0,0,0-2.92,2.93L186.4,35.1a2.82,2.82,0,0,0,2.93,3,2.76,2.76,0,0,0,3-3l.07-21.78a2.79,2.79,0,0,0-3-2.93M35.79,10.27a2.86,2.86,0,0,0-2.92,2.92V35a2.82,2.82,0,0,0,2.92,3,2.76,2.76,0,0,0,3-3V13.19a2.79,2.79,0,0,0-3-2.92m43.31.07a2.86,2.86,0,0,0-2.92,2.92V35a2.82,2.82,0,0,0,2.92,3,2.76,2.76,0,0,0,3-3V13.26a2.79,2.79,0,0,0-3-2.92M97.36,32.21c-1.93-.16-3.13-.7-3.13-2.92V16.73h1.53a2.83,2.83,0,0,0,2.92-2.92,2.76,2.76,0,0,0-2.92-3H94.23V3a2.76,2.76,0,0,0-3-3,2.82,2.82,0,0,0-2.92,3V10.9A2.69,2.69,0,0,0,86,13.81a2.8,2.8,0,0,0,2.3,2.89V29.34c0,5.48,3,8.63,8.09,8.63,2.13,0,3.4-1,3.4-2.74a2.69,2.69,0,0,0-2.47-3M137.59,0a2.8,2.8,0,0,0-2.93,2.93V35a2.83,2.83,0,0,0,2.93,3,2.76,2.76,0,0,0,3-3V2.93a2.74,2.74,0,0,0-3-2.93M154.8,29.3c-.1-.14-.21-.29-.32-.42a5.48,5.48,0,0,0-.92-.88c-.11-.09-.24-.17-.36-.26a5.61,5.61,0,0,0-2.08-.81,5.86,5.86,0,0,0-.94-.08,5.52,5.52,0,0,0-2.65.67l-.46.28a5.58,5.58,0,0,0,0,9.24,4.25,4.25,0,0,0,.46.27,5.54,5.54,0,0,0,6.19-.59,6.06,6.06,0,0,0,.76-.76c.11-.14.22-.28.32-.43a5.32,5.32,0,0,0,.51-.94,5.57,5.57,0,0,0,0-4.34,5.79,5.79,0,0,0-.51-.95"/><path class="cls-2" d="M120.17,23.06a5,5,0,0,1,.1,1.92c0,.23-.07.45-.12.67a6,6,0,0,1-.49,1.23,5.42,5.42,0,0,1-10.19-2.59,5.6,5.6,0,0,1,.11-1.09,5.44,5.44,0,0,1,3.2-3.91,5.39,5.39,0,0,1,4.22,0,5.4,5.4,0,0,1,2.77,2.64,5.62,5.62,0,0,1,.4,1.13m-106-4.2a5.43,5.43,0,1,0,5.43,5.43,5.43,5.43,0,0,0-5.43-5.43m155.26.43a5,5,0,0,0-.5-.18,5.32,5.32,0,0,0-.79-.18,4.47,4.47,0,0,0-.82-.07,5.38,5.38,0,0,0-1.62.25,5,5,0,0,0-.5.18A5.44,5.44,0,0,0,162,23.2a5.6,5.6,0,0,0-.11,1.09,5.42,5.42,0,0,0,1.59,3.84,5,5,0,0,0,.8.66,5.29,5.29,0,0,0,3,.93,5.55,5.55,0,0,0,.82-.06,5.32,5.32,0,0,0,.79-.18,5.19,5.19,0,0,0,1.42-.69,4.61,4.61,0,0,0,.8-.66,5.42,5.42,0,0,0,1.59-3.84,5.6,5.6,0,0,0-.11-1.09,5.44,5.44,0,0,0-3.2-3.91M59,19.29a5.42,5.42,0,0,0-4.23,0,5.44,5.44,0,0,0-3.2,3.91,5.6,5.6,0,0,0-.11,1.09,5.43,5.43,0,1,0,10.85,0,5.6,5.6,0,0,0-.11-1.09A5.44,5.44,0,0,0,59,19.29"/></g></svg>