<svg xmlns="http://www.w3.org/2000/svg" viewBox="0 0 48 48"><defs><style>.cls-1{fill:#4b5a6f;}</style></defs><g id="light_logos" data-name="light logos"><path class="cls-1" d="M26.07,22.06a2.29,2.29,0,0,0-2.33-2.16,2.14,2.14,0,0,0-2.16,2.16,2.25,2.25,0,0,0,1.21,2L21.5,28.18h4.66L24.86,24A2.25,2.25,0,0,0,26.07,22.06Z"/><path class="cls-1" d="M24,0A24,24,0,1,0,48,24,24,24,0,0,0,24,0ZM15.46,37.5,7.61,24,15.37,10.5h3.8L11.41,24,19.26,37.5ZM24,31.38A7.42,7.42,0,1,1,31.42,24,7.42,7.42,0,0,1,24,31.38Zm8.54,6.12h-3.8L36.59,24,28.83,10.5h3.8L40.39,24Z"/></g></svg>