<svg xmlns="http://www.w3.org/2000/svg" viewBox="0 0 48 48"><defs><style>.cls-1{fill:#205ab7;}.cls-2{fill:#fff;}</style></defs><g id="light_logos" data-name="light logos"><circle class="cls-1" cx="24" cy="24" r="24"/><path class="cls-2" d="M40.39,24,32.63,10.5h-3.8L36.59,24,28.74,37.5h3.8Z"/><path class="cls-2" d="M11.41,24,19.17,10.5h-3.8L7.61,24,15.46,37.5h3.8Z"/><path class="cls-2" d="M24,16.54A7.42,7.42,0,1,0,31.42,24,7.42,7.42,0,0,0,24,16.54ZM25,28.18H21.5L22.79,24a2.25,2.25,0,0,1-1.21-2,2.14,2.14,0,0,1,2.16-2.16,2.29,2.29,0,0,1,2.33,2.16,2.25,2.25,0,0,1-1.21,2l1.3,4.14Z"/></g></svg>