<svg xmlns="http://www.w3.org/2000/svg" viewBox="0 0 52 52"><defs><style>.cls-1{fill:#2a2a2a;}.cls-2{fill:#fff;}.cls-3{fill:#9a9a9a;}</style></defs><g id="light_logos" data-name="light logos"><circle class="cls-1" cx="26" cy="26" r="24"/><polygon class="cls-2" points="36.8 11.39 36.41 11.39 36.41 11.16 37.42 11.16 37.42 11.39 37.03 11.39 37.03 12.6 36.8 12.6 36.8 11.39"/><polygon class="cls-2" points="37.61 11.16 37.97 11.16 38.3 12.18 38.31 12.18 38.64 11.16 39 11.16 39 12.6 38.77 12.6 38.77 11.45 38.77 11.45 38.38 12.6 38.22 12.6 37.83 11.45 37.83 11.45 37.83 12.6 37.61 12.6 37.61 11.16"/><path class="cls-2" d="M33,10.68A2.19,2.19,0,0,0,30.67,13v8.09a8.41,8.41,0,0,0-6.32-2.48A11.66,11.66,0,0,0,13,30,11.63,11.63,0,0,0,24.35,41.32a9.63,9.63,0,0,0,6.52-2.75,2.45,2.45,0,0,0,2.54,2.29,2,2,0,0,0,2-2.09V13A2.22,2.22,0,0,0,33,10.68M24.3,36.32A6.33,6.33,0,1,1,30.63,30a6.34,6.34,0,0,1-6.33,6.33"/><path class="cls-3" d="M24.3,25.67A4.32,4.32,0,1,0,28.62,30a4.32,4.32,0,0,0-4.32-4.32"/></g></svg>