<svg xmlns="http://www.w3.org/2000/svg" viewBox="0 0 290.3 48"><defs><style>.cls-1{fill:#fff;}</style></defs><g id="light_logos" data-name="light logos"><path class="cls-1" d="M24,0A24,24,0,1,0,48,24,24,24,0,0,0,24,0ZM39,26.58a3.42,3.42,0,0,1-1.72-.45l-2,2.13a3.3,3.3,0,0,1,.5,1.8,3.61,3.61,0,0,1-7.22,0,3.4,3.4,0,0,1,.21-1.15l-2-1.31a6,6,0,0,1-8.24,1.07l-2,2.13a3.7,3.7,0,0,1,.42,1.68A3.62,3.62,0,1,1,13.24,29a3.78,3.78,0,0,1,1.94.53l2-2.13a5.58,5.58,0,0,1-1.05-3.28,5.51,5.51,0,0,1,1-3.15L14.5,18.55a3.69,3.69,0,0,1-1.89.54A3.57,3.57,0,0,1,9,15.56,3.67,3.67,0,0,1,12.66,12a3.57,3.57,0,0,1,3.61,3.52,3.43,3.43,0,0,1-.46,1.72l2.6,2.38a5.93,5.93,0,0,1,3.66-1.23A5.69,5.69,0,0,1,27.61,26l2.15,1.39a3.72,3.72,0,0,1,2.43-.9A3.79,3.79,0,0,1,34,27l2-2.13A3.62,3.62,0,0,1,35.43,23,3.57,3.57,0,1,1,39,26.58Z"/><path class="cls-1" d="M22.07,20.6a3.57,3.57,0,1,0,3.65,3.56A3.62,3.62,0,0,0,22.07,20.6Z"/><path class="cls-1" d="M284,14h.93v3h.54V14h1v-.54H284Z"/><path class="cls-1" d="M289.46,13.43l-.83,2.46-.79-2.46H287v3.49h.54v-2.8l.93,2.8h.39l.94-2.8v2.8h.54V13.43Z"/><rect class="cls-1" x="60" y="13.89" width="4.96" height="21.89"/><path class="cls-1" d="M82.16,13.43a7.74,7.74,0,0,0-6.7,3.81V13.89h-5V35.77h5V23.42c0-3.4,2-5.43,4.83-5.43s4.59,2,4.59,5.35V35.77H89.8v-14C89.8,16.75,87,13.43,82.16,13.43Z"/><path class="cls-1" d="M100.66,7.87H95.75v6H93V18.2h2.73V29.72c0,4.81,2.56,6.43,6.17,6.43A8.42,8.42,0,0,0,106.35,35V30.92a6.46,6.46,0,0,1-3,.75c-1.66,0-2.64-.79-2.64-2.74V18.2h5.77V13.89h-5.77Z"/><path class="cls-1" d="M119.34,13.43c-6.14,0-10.49,5.14-10.49,11.4v.08c0,6.76,4.8,11.36,11,11.36a10.78,10.78,0,0,0,8.78-4.1l-2.88-2.62A7.74,7.74,0,0,1,120,32.17a6,6,0,0,1-6.18-5.56h15.76a14.05,14.05,0,0,0,.09-1.41C129.62,18.9,126.16,13.43,119.34,13.43Zm-5.61,9.87c.45-3.4,2.56-5.77,5.57-5.77,3.25,0,5.11,2.53,5.44,5.77Z"/><rect class="cls-1" x="134.07" y="5.51" width="4.96" height="30.26"/><rect class="cls-1" x="144.69" y="5.51" width="4.96" height="30.26"/><rect class="cls-1" x="155.33" y="13.89" width="4.96" height="21.89"/><path class="cls-1" d="M181.82,17.16a9.21,9.21,0,0,0-7.52-3.73c-5,0-9.75,3.81-9.75,10.28v.08c0,6.43,4.67,10.24,9.75,10.24a9,9,0,0,0,7.56-4v1.66c0,4.39-2.4,6.67-6.79,6.67a13.78,13.78,0,0,1-7.64-2.28l-1.82,3.78a18.17,18.17,0,0,0,9.58,2.61c3.86,0,6.87-1,8.82-3,1.79-1.82,2.72-4.55,2.72-8.24V13.89h-4.91Zm.08,6.59a6,6,0,0,1-6.3,6,5.89,5.89,0,0,1-6.09-6v-.08a5.81,5.81,0,0,1,6.09-6,6,6,0,0,1,6.3,6Z"/><path class="cls-1" d="M201.54,13.43c-6.13,0-10.48,5.14-10.48,11.4v.08c0,6.76,4.79,11.36,11,11.36a10.79,10.79,0,0,0,8.78-4.1L208,29.55a7.71,7.71,0,0,1-5.81,2.62A6,6,0,0,1,196,26.61h15.76c0-.5.08-.95.08-1.41C211.82,18.9,208.37,13.43,201.54,13.43Zm-5.6,9.87c.44-3.4,2.56-5.77,5.56-5.77,3.25,0,5.12,2.53,5.45,5.77Z"/><path class="cls-1" d="M227.75,13.43a7.74,7.74,0,0,0-6.7,3.81V13.89h-5V35.77h5V23.42c0-3.4,2-5.43,4.83-5.43s4.59,2,4.59,5.35V35.77h4.92v-14C235.39,16.75,232.58,13.43,227.75,13.43Z"/><path class="cls-1" d="M250.76,31.88c-3.78,0-6.42-3.11-6.42-7v-.08c0-3.82,2.64-7,6.22-7a7.26,7.26,0,0,1,5.52,2.74l3.09-3.36a10.73,10.73,0,0,0-8.57-3.77,11.19,11.19,0,0,0-11.18,11.44V25a11.07,11.07,0,0,0,11.09,11.32,10.78,10.78,0,0,0,8.78-4.1l-3-3A7.5,7.5,0,0,1,250.76,31.88Z"/><path class="cls-1" d="M282,25.2c0-6.3-3.45-11.77-10.28-11.77-6.13,0-10.48,5.14-10.48,11.4v.08c0,6.76,4.79,11.36,11,11.36a10.77,10.77,0,0,0,8.77-4.1l-2.88-2.62a7.73,7.73,0,0,1-5.81,2.62,6,6,0,0,1-6.18-5.56h15.77C282,26.11,282,25.66,282,25.2Zm-15.89-1.9c.45-3.4,2.56-5.77,5.57-5.77,3.25,0,5.12,2.53,5.44,5.77Z"/><circle class="cls-1" cx="62.48" cy="7.99" r="2.48"/><circle class="cls-1" cx="157.81" cy="7.99" r="2.48"/></g></svg>