<svg xmlns="http://www.w3.org/2000/svg" viewBox="0 0 48 48"><defs><style>.cls-1{fill:#fff;}</style></defs><g id="light_logos" data-name="light logos"><path class="cls-1" d="M24,0A24,24,0,1,0,48,24,24,24,0,0,0,24,0ZM39,26.58a3.42,3.42,0,0,1-1.72-.45l-2,2.13a3.3,3.3,0,0,1,.5,1.8,3.61,3.61,0,0,1-7.22,0,3.4,3.4,0,0,1,.21-1.15l-2-1.31a6,6,0,0,1-8.24,1.07l-2,2.13a3.7,3.7,0,0,1,.42,1.68A3.62,3.62,0,1,1,13.24,29a3.78,3.78,0,0,1,1.94.53l2-2.13a5.58,5.58,0,0,1-1.05-3.28,5.51,5.51,0,0,1,1-3.15L14.5,18.55a3.69,3.69,0,0,1-1.89.54A3.57,3.57,0,0,1,9,15.56,3.67,3.67,0,0,1,12.66,12a3.57,3.57,0,0,1,3.61,3.52,3.43,3.43,0,0,1-.46,1.72l2.6,2.38a5.93,5.93,0,0,1,3.66-1.23A5.69,5.69,0,0,1,27.61,26l2.15,1.39a3.72,3.72,0,0,1,2.43-.9A3.76,3.76,0,0,1,34,27l2-2.13A3.62,3.62,0,0,1,35.43,23,3.57,3.57,0,1,1,39,26.58Z"/><path class="cls-1" d="M22.07,20.62a3.55,3.55,0,1,0,3.63,3.54A3.59,3.59,0,0,0,22.07,20.62Z"/></g></svg>