<svg xmlns="http://www.w3.org/2000/svg" viewBox="0 0 48 48"><defs><style>.cls-1{fill:#f7b731;}.cls-2{fill:#fff;}</style></defs><g id="light_logos" data-name="light logos"><circle class="cls-1" cx="24" cy="24" r="24"/><path class="cls-2" d="M39,19.45A3.57,3.57,0,0,0,35.43,23,3.62,3.62,0,0,0,36,24.86L34,27a3.76,3.76,0,0,0-1.81-.49,3.72,3.72,0,0,0-2.43.9L27.61,26a5.69,5.69,0,0,0-5.54-7.62,5.93,5.93,0,0,0-3.66,1.23l-2.6-2.38a3.43,3.43,0,0,0,.46-1.72A3.57,3.57,0,0,0,12.66,12,3.67,3.67,0,0,0,9,15.56a3.57,3.57,0,0,0,3.61,3.53,3.69,3.69,0,0,0,1.89-.54l2.61,2.38a5.51,5.51,0,0,0-1,3.15,5.58,5.58,0,0,0,1.05,3.28l-2,2.13A3.78,3.78,0,0,0,13.24,29a3.52,3.52,0,1,0,3.62,3.52,3.7,3.7,0,0,0-.42-1.68l2-2.13a6,6,0,0,0,8.24-1.07l2,1.31a3.4,3.4,0,0,0-.21,1.15,3.61,3.61,0,0,0,7.22,0,3.3,3.3,0,0,0-.5-1.8l2-2.13a3.42,3.42,0,0,0,1.72.45A3.57,3.57,0,1,0,39,19.45Zm-17,8.28a3.57,3.57,0,1,1,3.65-3.57A3.62,3.62,0,0,1,22.07,27.73Z"/></g></svg>