<svg xmlns="http://www.w3.org/2000/svg" viewBox="0 0 420.8 50"><defs><style>.cls-1{fill:#33d389;}.cls-2{fill:#fff;}.cls-3{fill:#2a2a2a;}.cls-4{fill:#649a3d;}</style></defs><g id="light_logos" data-name="light logos"><circle class="cls-1" cx="253.42" cy="25" r="24"/><path class="cls-2" d="M268.43,11.87h-1.64a.81.81,0,0,0-.74.75v3.81a15.32,15.32,0,0,0-12.87-6.91,15.48,15.48,0,1,0,10.41,27,.69.69,0,0,0,0-1.12l-1.24-1.24a.77.77,0,0,0-1,0,11.77,11.77,0,0,1-8.18,3.1,12.26,12.26,0,1,1,11.16-17.34h-4.48a.8.8,0,0,0-.74.74v1.48a.8.8,0,0,0,.74.74h8.56a.8.8,0,0,0,.74-.74V12.62A.81.81,0,0,0,268.43,11.87Z"/><path class="cls-2" d="M253.8,17.2a.53.53,0,0,0,.49-.5s.15-1.2.15-1.6-.27-.62-.52-.63a10.27,10.27,0,0,0-8.56,16.72,10.24,10.24,0,0,0,6.33,3.72c.28,0,.53-.12.62-.5,0,0,.22-1,.25-1.36a.52.52,0,0,0-.38-.62,7.15,7.15,0,0,1-5.2-3.59,8.12,8.12,0,0,1-1.12-3.47A7.55,7.55,0,0,1,253.8,17.2Z"/><path class="cls-2" d="M259.25,28.47a.48.48,0,0,0-.12-.75l-.87-.62a.57.57,0,0,0-.74.13,4.3,4.3,0,0,1-6.58,0,3.81,3.81,0,0,1-.37-.5,4,4,0,0,1-.12-4,.45.45,0,0,0-.13-.62l-1-.74a.59.59,0,0,0-.74.25,6.16,6.16,0,0,0-.25,5.32,5.39,5.39,0,0,0,1.49,2.11,6.12,6.12,0,0,0,4.34,1.73A6.23,6.23,0,0,0,259.25,28.47Z"/><path class="cls-3" d="M414.51,16.28h.93v2.95H416V16.28h1v-.54h-2.46Z"/><path class="cls-3" d="M420,15.74l-.83,2.46-.79-2.46h-.88v3.49H418v-2.8l.93,2.8h.39l.94-2.8v2.8h.54V15.74Z"/><path class="cls-3" d="M299.84,15.45a18.61,18.61,0,0,0-8.24,1.8l1.36,4a14.91,14.91,0,0,1,6.22-1.39c3.5,0,5.4,1.68,5.4,4.83v.55a17.75,17.75,0,0,0-5.85-.93c-5.32,0-9,2.36-9,7.15v.08c0,4.46,3.66,6.85,7.74,6.85a8.77,8.77,0,0,0,7.09-3.23v2.77h4.86V24.78c0-2.9-.74-5.26-2.35-6.85S303.09,15.45,299.84,15.45ZM304.66,30c0,2.81-2.51,4.75-5.81,4.75-2.39,0-4.24-1.22-4.24-3.37v-.08c0-2.31,1.89-3.7,5.11-3.7a13.7,13.7,0,0,1,4.94.88Z"/><path class="cls-3" d="M330.93,19.06a9.32,9.32,0,0,0-7.62-3.78c-5.07,0-9.89,3.87-9.89,10.42v.09c0,6.51,4.74,10.38,9.89,10.38a9.1,9.1,0,0,0,7.66-4v1.68c0,4.46-2.43,6.77-6.88,6.77a14,14,0,0,1-7.74-2.31l-1.85,3.82a18.37,18.37,0,0,0,9.72,2.65c3.91,0,7-1,8.94-3,1.81-1.85,2.76-4.63,2.76-8.37V15.74h-5Zm.08,6.68a6.13,6.13,0,0,1-6.38,6.1,6,6,0,0,1-6.18-6.1v-.08a5.89,5.89,0,0,1,6.18-6.05A6.09,6.09,0,0,1,331,25.66Z"/><rect class="cls-3" x="341.59" y="15.74" width="5.03" height="22.19"/><rect class="cls-3" x="352.38" y="7.25" width="5.03" height="30.68"/><rect class="cls-3" x="363.17" y="15.74" width="5.03" height="22.19"/><path class="cls-3" d="M379.69,9.65h-5v6.09H372v4.37h2.76V31.8c0,4.87,2.59,6.51,6.26,6.51a8.55,8.55,0,0,0,4.49-1.13V33a6.65,6.65,0,0,1-3.09.75c-1.69,0-2.68-.8-2.68-2.77V20.11h5.85V15.74h-5.85Z"/><path class="cls-3" d="M405.31,15.74l-5.68,16.48-6.1-16.48h-5.35L397.24,38c-.82,1.9-1.69,2.53-3.09,2.53a6,6,0,0,1-2.92-.85l-1.69,3.75a9.74,9.74,0,0,0,5.15,1.38c3.5,0,5.43-1.68,7.16-6.26l8.65-22.78Z"/><circle class="cls-3" cx="344.11" cy="9.76" r="2.51"/><circle class="cls-3" cx="365.68" cy="9.76" r="2.51"/><polygon class="cls-3" points="195.92 11.26 194.93 11.26 194.93 10.71 197.48 10.71 197.48 11.26 196.49 11.26 196.49 14.29 195.92 14.29 195.92 11.26"/><polygon class="cls-3" points="197.94 10.71 198.84 10.71 199.68 13.25 199.69 13.25 200.52 10.71 201.43 10.71 201.43 14.29 200.85 14.29 200.85 11.41 200.85 11.41 199.87 14.29 199.47 14.29 198.5 11.41 198.49 11.41 198.49 14.29 197.94 14.29 197.94 10.71"/><path class="cls-3" d="M178.32,10.59a2.81,2.81,0,0,0-2.89,2.47,11,11,0,0,0-8-3.09A14.15,14.15,0,0,0,153.13,24.3c0,.2,0,.39,0,.58a8.1,8.1,0,0,1,5.15,7.54,7.94,7.94,0,0,1-.45,2.63,14.34,14.34,0,0,0,9.56,3.49,12.25,12.25,0,0,0,8-3.24A2.79,2.79,0,0,0,178.32,38a2.76,2.76,0,0,0,3-3V13.52a2.77,2.77,0,0,0-3-2.93m-11,21.66a8,8,0,1,1,7.95-8,8,8,0,0,1-7.95,8M126.07,10.59a2.81,2.81,0,0,0-2.89,2.47,11,11,0,0,0-8-3.09A14.15,14.15,0,0,0,100.87,24.3a14,14,0,0,0,14.28,14.24,12.25,12.25,0,0,0,8-3.24A2.79,2.79,0,0,0,126.07,38a2.76,2.76,0,0,0,3-3V13.52a2.77,2.77,0,0,0-3-2.93M114.9,32.25a8,8,0,1,1,8-8,8,8,0,0,1-8,8M25.19,0a2.77,2.77,0,0,0-3,2.93V13.1A10.55,10.55,0,0,0,14.27,10,14.68,14.68,0,0,0,0,24.3,14.63,14.63,0,0,0,14.27,38.54a12.09,12.09,0,0,0,8.2-3.45A3.09,3.09,0,0,0,25.67,38a2.48,2.48,0,0,0,2.49-2.64V2.93a2.79,2.79,0,0,0-3-2.93m-11,32.25a8,8,0,1,1,8-8,8,8,0,0,1-8,8m54.2-21.66c-1.9,0-2.88.89-3.12,2.87A12.26,12.26,0,0,0,57.06,10,14.66,14.66,0,0,0,42.79,24.26,14.65,14.65,0,0,0,57.06,38.54c3.44,0,6.16-1,7.9-3-.16,5.75-2.94,8.55-8.47,8.55a2.79,2.79,0,0,0-3,3c0,1.89,1.15,3,3.16,3C67.22,50,71,42.33,71,35.76V13.18a2.48,2.48,0,0,0-2.54-2.59M56.94,32.25a8,8,0,1,1,8-8,8,8,0,0,1-8,8M189.41,10.39a2.86,2.86,0,0,0-2.92,2.93l-.07,21.78a2.82,2.82,0,0,0,2.92,3,2.76,2.76,0,0,0,3-3l.07-21.78a2.79,2.79,0,0,0-3-2.93m-153.6-.12a2.86,2.86,0,0,0-2.93,2.92V35a2.83,2.83,0,0,0,2.93,3,2.76,2.76,0,0,0,3-3V13.19a2.79,2.79,0,0,0-3-2.92m43.3.07a2.86,2.86,0,0,0-2.92,2.92V35a2.82,2.82,0,0,0,2.92,3,2.76,2.76,0,0,0,3-3V13.26a2.79,2.79,0,0,0-3-2.92M97.37,32.21c-1.93-.16-3.13-.7-3.13-2.92V16.73h1.53a2.83,2.83,0,0,0,2.93-2.92,2.77,2.77,0,0,0-2.93-3H94.24V3a2.76,2.76,0,0,0-3-3,2.82,2.82,0,0,0-2.92,3V10.9a2.69,2.69,0,0,0-2.3,2.91,2.81,2.81,0,0,0,2.3,2.89V29.34c0,5.48,3,8.63,8.09,8.63,2.13,0,3.41-1,3.41-2.74a2.7,2.7,0,0,0-2.48-3M137.6,0a2.8,2.8,0,0,0-2.92,2.93V35a2.82,2.82,0,0,0,2.92,3,2.76,2.76,0,0,0,3-3V2.93a2.74,2.74,0,0,0-3-2.93m17.21,29.3c-.1-.14-.21-.29-.32-.42a5.48,5.48,0,0,0-.92-.88c-.11-.09-.23-.17-.36-.26a5.55,5.55,0,0,0-2.08-.81,5.86,5.86,0,0,0-.94-.08,5.52,5.52,0,0,0-2.65.67l-.46.28a5.58,5.58,0,0,0,0,9.24,4.25,4.25,0,0,0,.46.27,5.54,5.54,0,0,0,6.19-.59,6.06,6.06,0,0,0,.76-.76c.11-.14.22-.28.32-.43a5.32,5.32,0,0,0,.51-.94,5.57,5.57,0,0,0,0-4.34,5.79,5.79,0,0,0-.51-.95"/><path class="cls-4" d="M120.19,23.06a5.59,5.59,0,0,1,.14,1.23,5.09,5.09,0,0,1,0,.69,4.94,4.94,0,0,1-.12.67,5.43,5.43,0,0,1-10.68-1.36,5.6,5.6,0,0,1,.11-1.09,5.44,5.44,0,0,1,3.2-3.91,5.42,5.42,0,0,1,4.23,0,5.42,5.42,0,0,1,2.76,2.64,5.65,5.65,0,0,1,.41,1.13m-106-4.2a5.43,5.43,0,1,0,5.42,5.43,5.43,5.43,0,0,0-5.42-5.43m155.25.43a4.24,4.24,0,0,0-.5-.18,5,5,0,0,0-.79-.18,4.47,4.47,0,0,0-.82-.07,5.43,5.43,0,0,0-1.62.25,4.09,4.09,0,0,0-.49.18A5.43,5.43,0,0,0,162,23.2a5.6,5.6,0,0,0-.11,1.09,5.42,5.42,0,0,0,1.59,3.84,5.5,5.5,0,0,0,.8.66,5.34,5.34,0,0,0,1.42.69,5.43,5.43,0,0,0,1.62.24,5.55,5.55,0,0,0,.82-.06,5,5,0,0,0,.79-.18,5.19,5.19,0,0,0,1.42-.69,4.61,4.61,0,0,0,.8-.66,5.42,5.42,0,0,0,1.59-3.84,5.6,5.6,0,0,0-.11-1.09,5.44,5.44,0,0,0-3.2-3.91m-110.42,0a5.42,5.42,0,0,0-4.23,0,5.44,5.44,0,0,0-3.2,3.91,5.6,5.6,0,0,0-.11,1.09,5.43,5.43,0,1,0,10.85,0,5.6,5.6,0,0,0-.11-1.09,5.44,5.44,0,0,0-3.2-3.91"/></g></svg>