<svg xmlns="http://www.w3.org/2000/svg" viewBox="0 0 430.71 50"><defs><style>.cls-1{fill:#2a2a2a;}.cls-2{fill:#649a3d;}.cls-3{fill:#279fea;}.cls-4{fill:#fff;}</style></defs><g id="light_logos" data-name="light logos"><polygon class="cls-1" points="195.92 11.26 194.93 11.26 194.93 10.71 197.48 10.71 197.48 11.26 196.49 11.26 196.49 14.29 195.92 14.29 195.92 11.26"/><polygon class="cls-1" points="197.94 10.71 198.84 10.71 199.68 13.25 199.69 13.25 200.52 10.71 201.43 10.71 201.43 14.29 200.85 14.29 200.85 11.41 200.85 11.41 199.87 14.29 199.47 14.29 198.5 11.41 198.49 11.41 198.49 14.29 197.94 14.29 197.94 10.71"/><path class="cls-1" d="M178.32,10.59a2.81,2.81,0,0,0-2.89,2.47,11,11,0,0,0-8-3.09A14.15,14.15,0,0,0,153.13,24.3c0,.2,0,.39,0,.58a8.1,8.1,0,0,1,5.15,7.54,7.94,7.94,0,0,1-.45,2.63,14.34,14.34,0,0,0,9.56,3.49,12.25,12.25,0,0,0,8-3.24A2.79,2.79,0,0,0,178.32,38a2.76,2.76,0,0,0,3-3V13.52a2.77,2.77,0,0,0-3-2.93m-11,21.66a8,8,0,1,1,7.95-8,8,8,0,0,1-7.95,8M126.07,10.59a2.81,2.81,0,0,0-2.89,2.47,11,11,0,0,0-8-3.09A14.15,14.15,0,0,0,100.87,24.3a14,14,0,0,0,14.28,14.24,12.25,12.25,0,0,0,8-3.24A2.79,2.79,0,0,0,126.07,38a2.76,2.76,0,0,0,3-3V13.52a2.77,2.77,0,0,0-3-2.93M114.9,32.25a8,8,0,1,1,8-8,8,8,0,0,1-8,8M25.19,0a2.76,2.76,0,0,0-3,2.92V13.1A10.55,10.55,0,0,0,14.27,10,14.68,14.68,0,0,0,0,24.3,14.63,14.63,0,0,0,14.27,38.54a12.16,12.16,0,0,0,8.2-3.45A3.09,3.09,0,0,0,25.67,38a2.48,2.48,0,0,0,2.49-2.64V2.92a2.79,2.79,0,0,0-3-2.92m-11,32.25a8,8,0,1,1,8-8,8,8,0,0,1-8,8m54.2-21.66c-1.9,0-2.88.89-3.12,2.87A12.26,12.26,0,0,0,57.06,10,14.66,14.66,0,0,0,42.79,24.26,14.65,14.65,0,0,0,57.06,38.54c3.44,0,6.16-1,7.9-3-.16,5.75-2.94,8.55-8.47,8.55a2.79,2.79,0,0,0-3,3c0,1.89,1.15,3,3.16,3C67.22,50,71,42.33,71,35.76V13.18a2.48,2.48,0,0,0-2.54-2.59M56.94,32.25a8,8,0,1,1,8-8,8,8,0,0,1-8,8M189.41,10.39a2.86,2.86,0,0,0-2.92,2.93l-.07,21.78a2.82,2.82,0,0,0,2.92,3,2.76,2.76,0,0,0,3-3l.07-21.78a2.79,2.79,0,0,0-3-2.93m-153.6-.12a2.86,2.86,0,0,0-2.93,2.92V35a2.83,2.83,0,0,0,2.93,3,2.76,2.76,0,0,0,3-3V13.19a2.79,2.79,0,0,0-3-2.92m43.3.07a2.86,2.86,0,0,0-2.92,2.92V35a2.82,2.82,0,0,0,2.92,3,2.76,2.76,0,0,0,3-3V13.26a2.78,2.78,0,0,0-3-2.92M97.37,32.21c-1.93-.16-3.13-.7-3.13-2.92V16.73h1.53a2.83,2.83,0,0,0,2.93-2.92,2.77,2.77,0,0,0-2.93-3H94.24V3a2.76,2.76,0,0,0-3-3,2.82,2.82,0,0,0-2.92,3V10.9a2.69,2.69,0,0,0-2.3,2.91,2.81,2.81,0,0,0,2.3,2.89V29.34c0,5.48,3,8.63,8.09,8.63,2.13,0,3.41-1,3.41-2.74a2.7,2.7,0,0,0-2.48-3M137.6,0a2.79,2.79,0,0,0-2.92,2.92V35a2.82,2.82,0,0,0,2.92,3,2.76,2.76,0,0,0,3-3V2.92a2.73,2.73,0,0,0-3-2.92m17.21,29.3-.32-.43a5.85,5.85,0,0,0-.92-.87,3.32,3.32,0,0,0-.36-.26,5.55,5.55,0,0,0-2.08-.81,5.86,5.86,0,0,0-.94-.08,5.52,5.52,0,0,0-2.65.67l-.46.28a5.57,5.57,0,0,0,0,9.23,3.14,3.14,0,0,0,.46.28,5.52,5.52,0,0,0,6.19-.6,5.39,5.39,0,0,0,.76-.75c.11-.14.22-.28.32-.43a5.7,5.7,0,0,0,.51-.94,5.57,5.57,0,0,0,0-4.34,5.79,5.79,0,0,0-.51-.95"/><path class="cls-2" d="M120.19,23.06a5.59,5.59,0,0,1,.14,1.23,5.09,5.09,0,0,1,0,.69,4.94,4.94,0,0,1-.12.67,5.43,5.43,0,0,1-10.68-1.36,5.6,5.6,0,0,1,.11-1.09,5.44,5.44,0,0,1,3.2-3.91,5.42,5.42,0,0,1,4.23,0,5.42,5.42,0,0,1,2.76,2.64,5.65,5.65,0,0,1,.41,1.13m-106-4.2a5.43,5.43,0,1,0,5.42,5.43,5.43,5.43,0,0,0-5.42-5.43m155.25.43a4.24,4.24,0,0,0-.5-.18,6.51,6.51,0,0,0-.79-.19,5.55,5.55,0,0,0-.82-.06,5.43,5.43,0,0,0-1.62.25,4.09,4.09,0,0,0-.49.18A5.43,5.43,0,0,0,162,23.2a5.6,5.6,0,0,0-.11,1.09,5.42,5.42,0,0,0,1.59,3.84,5.5,5.5,0,0,0,.8.66,5.34,5.34,0,0,0,1.42.69,5.43,5.43,0,0,0,1.62.24,5.55,5.55,0,0,0,.82-.06,5,5,0,0,0,.79-.18,5.19,5.19,0,0,0,1.42-.69,4.61,4.61,0,0,0,.8-.66,5.42,5.42,0,0,0,1.59-3.84,5.6,5.6,0,0,0-.11-1.09,5.44,5.44,0,0,0-3.2-3.91m-110.42,0a5.42,5.42,0,0,0-4.23,0,5.44,5.44,0,0,0-3.2,3.91,5.6,5.6,0,0,0-.11,1.09,5.43,5.43,0,1,0,10.85,0,5.6,5.6,0,0,0-.11-1.09,5.44,5.44,0,0,0-3.2-3.91"/><path class="cls-1" d="M424.14,18.3h.93v2.94h.54V18.3h1v-.54h-2.46Z"/><path class="cls-1" d="M429.59,17.76l-.83,2.45L428,17.76h-.88v3.48h.54v-2.8l.93,2.8H429l.94-2.8v2.8h.54V17.76Z"/><path class="cls-1" d="M424.14,18.3h.93v2.94h.54V18.3h1v-.54h-2.46Z"/><path class="cls-1" d="M429.59,17.76l-.83,2.45L428,17.76h-.88v3.48h.54v-2.8l.93,2.8H429l.94-2.8v2.8h.54V17.76Z"/><circle class="cls-3" cx="253.42" cy="24.94" r="24"/><path class="cls-4" d="M254.73,38V33.44h-2.6V38l-2.47-1.38L247,38.15l6.46,3.69s6.31-3.64,6.58-3.78l-2.6-1.49Z"/><polygon class="cls-4" points="241.41 19.5 245.17 21.68 246.47 19.36 242.54 17.23 244.71 15.99 244.7 13.04 238.76 16.49 238.77 23.6 241.41 22.11 241.41 19.5"/><polygon class="cls-4" points="261.5 21.68 265.41 19.45 265.39 22.11 268.09 23.62 268.09 16.47 261.86 12.91 261.76 15.81 264.27 17.3 260.3 19.18 261.5 21.68"/><path class="cls-4" d="M268.06,26.57l-2.65-1.52v.17h0v4.84L254.68,24V11.77l4.65,2.64V11.49L253.46,8l-6.16,3.51v3l4.64-2.68V24l-10.52,6.42V25l-2.65,1.52V33.4l5.54,3.09L247,34.94l-4.4-2.42,10.84-6.27,10.66,6.2-4.27,2.47,2.78,1.63,5.43-3.13Z"/><path class="cls-1" d="M289.84,18.2h4.81V23c1.3-3.18,3.7-5.35,7.37-5.19V23h-.27c-4.18,0-7.1,2.77-7.1,8.41v8.09h-4.81Z"/><path class="cls-1" d="M304,28.9v-.08c0-6.07,4.22-11.06,10.18-11.06,6.63,0,10,5.31,10,11.42,0,.45,0,.89-.08,1.37h-15.3a5.85,5.85,0,0,0,6,5.4,7.5,7.5,0,0,0,5.64-2.54l2.8,2.54a10.45,10.45,0,0,1-8.52,4C308.62,39.93,304,35.46,304,28.9Zm15.43-1.57c-.32-3.14-2.13-5.59-5.29-5.59-2.92,0-5,2.29-5.4,5.59Z"/><path class="cls-1" d="M328.44,10.07h4.81V39.45h-4.81Z"/><path class="cls-1" d="M337.55,28.9v-.08c0-6.07,4.22-11.06,10.17-11.06,6.63,0,10,5.31,10,11.42,0,.45,0,.89-.08,1.37h-15.3a5.86,5.86,0,0,0,6,5.4A7.52,7.52,0,0,0,354,33.41l2.8,2.54a10.47,10.47,0,0,1-8.52,4C342.2,39.93,337.55,35.46,337.55,28.9ZM353,27.33c-.32-3.14-2.13-5.59-5.28-5.59-2.92,0-5,2.29-5.41,5.59Z"/><path class="cls-1" d="M360.31,33.33v-.08c0-4.59,3.55-6.84,8.63-6.84a17.24,17.24,0,0,1,5.61.88v-.52c0-3-1.82-4.63-5.17-4.63a14.37,14.37,0,0,0-6,1.33l-1.3-3.82A17.75,17.75,0,0,1,370,17.92c3.12,0,5.44.84,6.9,2.37s2.25,3.78,2.25,6.56v12.6h-4.65V36.79a8.4,8.4,0,0,1-6.79,3.1C363.82,39.89,360.31,37.6,360.31,33.33Zm14.32-1.53V30.35a13.11,13.11,0,0,0-4.74-.84c-3.07,0-4.89,1.32-4.89,3.54v.08c0,2,1.78,3.22,4.06,3.22C372.22,36.35,374.63,34.5,374.63,31.8Z"/><path class="cls-1" d="M382.55,36.67l2.12-3.3A11.67,11.67,0,0,0,391.5,36c2.05,0,3.23-.89,3.23-2.3v-.08c0-1.65-2.21-2.21-4.65-3-3.08-.88-6.51-2.17-6.51-6.19v-.08c0-4.07,3.27-6.52,7.42-6.52a14.23,14.23,0,0,1,7.65,2.41l-1.9,3.46a11.88,11.88,0,0,0-5.87-2c-1.86,0-2.92.93-2.92,2.09v.08c0,1.57,2.25,2.22,4.69,3,3,1,6.47,2.38,6.47,6.2v.08c0,4.47-3.39,6.68-7.73,6.68A14.2,14.2,0,0,1,382.55,36.67Z"/><path class="cls-1" d="M402,28.9v-.08c0-6.07,4.22-11.06,10.18-11.06,6.63,0,10,5.31,10,11.42,0,.45,0,.89-.08,1.37h-15.3a5.85,5.85,0,0,0,6,5.4,7.5,7.5,0,0,0,5.64-2.54l2.8,2.54a10.45,10.45,0,0,1-8.52,4C406.62,39.93,402,35.46,402,28.9Zm15.43-1.57c-.32-3.14-2.14-5.59-5.29-5.59-2.92,0-5,2.29-5.4,5.59Z"/></g></svg>