<svg xmlns="http://www.w3.org/2000/svg" viewBox="0 0 434.2 50"><defs><style>.cls-1{fill:#fff;}.cls-2{fill:#649a3d;}.cls-3{fill:#279fea;}</style></defs><g id="light_logos" data-name="light logos"><polygon class="cls-1" points="195.91 11.26 194.93 11.26 194.93 10.71 197.48 10.71 197.48 11.26 196.49 11.26 196.49 14.29 195.91 14.29 195.91 11.26"/><polygon class="cls-1" points="197.94 10.71 198.84 10.71 199.68 13.25 199.69 13.25 200.52 10.71 201.43 10.71 201.43 14.29 200.85 14.29 200.85 11.41 200.85 11.41 199.87 14.29 199.47 14.29 198.5 11.41 198.49 11.41 198.49 14.29 197.94 14.29 197.94 10.71"/><path class="cls-1" d="M178.32,10.59a2.81,2.81,0,0,0-2.89,2.47,11,11,0,0,0-8-3.09A14.15,14.15,0,0,0,153.13,24.3c0,.2,0,.39,0,.58a8.1,8.1,0,0,1,5.15,7.54,7.94,7.94,0,0,1-.45,2.63,14.34,14.34,0,0,0,9.56,3.49,12.25,12.25,0,0,0,8-3.24A2.79,2.79,0,0,0,178.32,38a2.76,2.76,0,0,0,3-3V13.52a2.77,2.77,0,0,0-3-2.93m-11,21.66a8,8,0,1,1,7.95-8,8,8,0,0,1-7.95,8M126.07,10.59a2.81,2.81,0,0,0-2.89,2.47,11,11,0,0,0-8-3.09A14.15,14.15,0,0,0,100.87,24.3a14,14,0,0,0,14.28,14.24,12.25,12.25,0,0,0,8-3.24A2.79,2.79,0,0,0,126.07,38a2.76,2.76,0,0,0,3-3V13.52a2.77,2.77,0,0,0-3-2.93M114.9,32.25a8,8,0,1,1,8-8,8,8,0,0,1-8,8M25.19,0a2.76,2.76,0,0,0-3,2.92V13.1A10.55,10.55,0,0,0,14.27,10,14.68,14.68,0,0,0,0,24.3,14.63,14.63,0,0,0,14.27,38.54a12.16,12.16,0,0,0,8.2-3.45A3.09,3.09,0,0,0,25.67,38a2.48,2.48,0,0,0,2.49-2.64V2.92a2.79,2.79,0,0,0-3-2.92m-11,32.25a8,8,0,1,1,8-8,8,8,0,0,1-8,8m54.2-21.66c-1.9,0-2.88.89-3.12,2.87A12.26,12.26,0,0,0,57.06,10,14.66,14.66,0,0,0,42.79,24.26,14.65,14.65,0,0,0,57.06,38.54c3.44,0,6.16-1,7.9-3-.16,5.75-2.94,8.55-8.47,8.55a2.79,2.79,0,0,0-3,3c0,1.89,1.15,3,3.16,3C67.22,50,71,42.33,71,35.76V13.18a2.48,2.48,0,0,0-2.54-2.59M56.94,32.25a8,8,0,1,1,8-8,8,8,0,0,1-8,8M189.41,10.39a2.86,2.86,0,0,0-2.92,2.93l-.07,21.78a2.82,2.82,0,0,0,2.92,3,2.76,2.76,0,0,0,3-3l.07-21.78a2.79,2.79,0,0,0-3-2.93m-153.6-.12a2.86,2.86,0,0,0-2.93,2.92V35a2.83,2.83,0,0,0,2.93,3,2.76,2.76,0,0,0,3-3V13.19a2.79,2.79,0,0,0-3-2.92m43.3.07a2.86,2.86,0,0,0-2.92,2.92V35a2.82,2.82,0,0,0,2.92,3,2.76,2.76,0,0,0,3-3V13.26a2.78,2.78,0,0,0-3-2.92M97.37,32.21c-1.93-.16-3.13-.7-3.13-2.92V16.73h1.53a2.83,2.83,0,0,0,2.93-2.92,2.77,2.77,0,0,0-2.93-3H94.24V3a2.76,2.76,0,0,0-3-3,2.82,2.82,0,0,0-2.92,3V10.9a2.69,2.69,0,0,0-2.3,2.91,2.81,2.81,0,0,0,2.3,2.89V29.34c0,5.48,3,8.63,8.09,8.63,2.13,0,3.41-1,3.41-2.74a2.7,2.7,0,0,0-2.48-3M137.6,0a2.79,2.79,0,0,0-2.92,2.92V35a2.82,2.82,0,0,0,2.92,3,2.76,2.76,0,0,0,3-3V2.92a2.73,2.73,0,0,0-3-2.92m17.21,29.3-.32-.43a5.85,5.85,0,0,0-.92-.87,3.32,3.32,0,0,0-.36-.26,5.55,5.55,0,0,0-2.08-.81,5.86,5.86,0,0,0-.94-.08,5.52,5.52,0,0,0-2.65.67l-.46.28a5.57,5.57,0,0,0,0,9.23,3.14,3.14,0,0,0,.46.28,5.52,5.52,0,0,0,6.19-.6,5.39,5.39,0,0,0,.76-.75c.11-.14.22-.28.32-.43a5.7,5.7,0,0,0,.51-.94,5.57,5.57,0,0,0,0-4.34,5.79,5.79,0,0,0-.51-.95"/><path class="cls-2" d="M120.19,23.06a5.59,5.59,0,0,1,.14,1.23,5.09,5.09,0,0,1,0,.69,4.94,4.94,0,0,1-.12.67,5.43,5.43,0,0,1-10.68-1.36,5.6,5.6,0,0,1,.11-1.09,5.44,5.44,0,0,1,3.2-3.91,5.42,5.42,0,0,1,4.23,0,5.42,5.42,0,0,1,2.76,2.64,5.65,5.65,0,0,1,.41,1.13m-106-4.2a5.43,5.43,0,1,0,5.42,5.43,5.43,5.43,0,0,0-5.42-5.43m155.25.43a4.24,4.24,0,0,0-.5-.18,6.51,6.51,0,0,0-.79-.19,5.55,5.55,0,0,0-.82-.06,5.43,5.43,0,0,0-1.62.25,4.09,4.09,0,0,0-.49.18A5.43,5.43,0,0,0,162,23.2a5.6,5.6,0,0,0-.11,1.09,5.42,5.42,0,0,0,1.59,3.84,5.5,5.5,0,0,0,.8.66,5.34,5.34,0,0,0,1.42.69,5.43,5.43,0,0,0,1.62.24,5.55,5.55,0,0,0,.82-.06,5,5,0,0,0,.79-.18,5.19,5.19,0,0,0,1.42-.69,4.61,4.61,0,0,0,.8-.66,5.42,5.42,0,0,0,1.59-3.84,5.6,5.6,0,0,0-.11-1.09,5.44,5.44,0,0,0-3.2-3.91m-110.42,0a5.42,5.42,0,0,0-4.23,0,5.44,5.44,0,0,0-3.2,3.91,5.6,5.6,0,0,0-.11,1.09,5.43,5.43,0,1,0,10.85,0,5.6,5.6,0,0,0-.11-1.09,5.44,5.44,0,0,0-3.2-3.91"/><circle class="cls-3" cx="253.42" cy="25" r="24"/><polygon class="cls-1" points="259.99 22.8 253.91 19.25 247.84 22.8 247.84 29.86 253.91 33.36 259.99 29.86 259.99 22.8"/><polygon class="cls-1" points="242.73 25 239.84 22.45 239.84 34.5 248.65 39.51 248.65 36.11 242.73 32.62 242.73 25"/><polygon class="cls-1" points="265.11 25 265.11 32.75 259.31 36.11 259.31 39.81 267.99 34.46 267.99 22.29 265.11 25"/><polygon class="cls-1" points="253.9 13.4 261.57 17.84 263.67 15.67 253.9 10 244.07 15.72 246.16 17.9 253.9 13.4"/><path class="cls-1" d="M427.9,17.64h.93v3h.54v-3h1V17.1H427.9Z"/><path class="cls-1" d="M433.36,17.1l-.83,2.47-.79-2.47h-.89v3.5h.54V17.79l.94,2.81h.39l.94-2.81V20.6h.54V17.1Z"/><path class="cls-1" d="M289.59,28.24v-.09c0-7.35,4.9-11.51,10.09-11.51a8.84,8.84,0,0,1,7.41,3.91V8.61h5V39.29h-5v-3.7a8.66,8.66,0,0,1-7.41,4.16C294.57,39.75,289.59,35.59,289.59,28.24Zm17.58,0v-.09c0-4.28-3-7.1-6.3-7.1s-6.26,2.73-6.26,7.1v.09c0,4.28,2.89,7.1,6.26,7.1S307.17,32.48,307.17,28.24Z"/><path class="cls-1" d="M316.26,28.28V28.2c0-6.35,4.4-11.56,10.62-11.56,6.92,0,10.42,5.55,10.42,11.93,0,.47,0,.93-.08,1.43h-16a6.1,6.1,0,0,0,6.26,5.63A7.83,7.83,0,0,0,333.39,33l2.92,2.64a10.91,10.91,0,0,1-8.89,4.16C321.11,39.79,316.26,35.13,316.26,28.28Zm16.1-1.64c-.33-3.28-2.23-5.84-5.52-5.84-3,0-5.19,2.4-5.64,5.84Z"/><path class="cls-1" d="M341.42,17.1h5v3.7a8.68,8.68,0,0,1,7.42-4.16c5.1,0,10.09,4.12,10.09,11.51v.09c0,7.35-4.95,11.51-10.09,11.51a8.85,8.85,0,0,1-7.42-3.91V46h-5Zm17.46,11.14v-.09c0-4.28-2.88-7.1-6.22-7.1s-6.34,2.86-6.34,7.1v.09c0,4.24,3,7.1,6.34,7.1S358.88,32.61,358.88,28.24Z"/><path class="cls-1" d="M368.33,8.61h5V39.29h-5Z"/><path class="cls-1" d="M377.57,28.32v-.08a11.6,11.6,0,0,1,23.19-.09v.09A11.48,11.48,0,0,1,389.1,39.79,11.36,11.36,0,0,1,377.57,28.32Zm18.2,0v-.08c0-3.91-2.76-7.15-6.67-7.15s-6.55,3.2-6.55,7.06v.09c0,3.86,2.76,7.1,6.63,7.1C393.22,35.34,395.77,32.14,395.77,28.32Z"/><path class="cls-1" d="M418.68,17.1h5.19l-8.65,22.78c-1.73,4.58-3.67,6.26-7.17,6.26a9.77,9.77,0,0,1-5.15-1.39L404.59,41a6,6,0,0,0,2.93.84c1.4,0,2.26-.63,3.09-2.52L401.55,17.1h5.35L413,33.57Z"/></g></svg>