<svg xmlns="http://www.w3.org/2000/svg" viewBox="0 0 435.7 50"><defs><style>.cls-1{fill:#fff;}</style></defs><g id="light_logos" data-name="light logos"><polygon class="cls-1" points="195.92 11.26 194.93 11.26 194.93 10.71 197.48 10.71 197.48 11.26 196.49 11.26 196.49 14.29 195.92 14.29 195.92 11.26"/><polygon class="cls-1" points="197.94 10.71 198.84 10.71 199.68 13.25 199.69 13.25 200.52 10.71 201.43 10.71 201.43 14.29 200.85 14.29 200.85 11.41 200.85 11.41 199.87 14.29 199.47 14.29 198.5 11.41 198.49 11.41 198.49 14.29 197.94 14.29 197.94 10.71"/><path class="cls-1" d="M178.32,10.59a2.81,2.81,0,0,0-2.89,2.47,11,11,0,0,0-8-3.09A14.15,14.15,0,0,0,153.13,24.3c0,.2,0,.39,0,.58a8.1,8.1,0,0,1,5.15,7.54,7.94,7.94,0,0,1-.45,2.63,14.34,14.34,0,0,0,9.56,3.49,12.25,12.25,0,0,0,8-3.24A2.79,2.79,0,0,0,178.32,38a2.76,2.76,0,0,0,3-3V13.52a2.77,2.77,0,0,0-3-2.93m-11,21.66a8,8,0,1,1,7.95-8,8,8,0,0,1-7.95,8M126.07,10.59a2.81,2.81,0,0,0-2.89,2.47,11,11,0,0,0-8-3.09A14.15,14.15,0,0,0,100.87,24.3a14,14,0,0,0,14.28,14.24,12.25,12.25,0,0,0,8-3.24A2.79,2.79,0,0,0,126.07,38a2.76,2.76,0,0,0,3-3V13.52a2.77,2.77,0,0,0-3-2.93M114.9,32.25a8,8,0,1,1,8-8,8,8,0,0,1-8,8M25.19,0a2.77,2.77,0,0,0-3,2.93V13.1A10.55,10.55,0,0,0,14.27,10,14.68,14.68,0,0,0,0,24.3,14.63,14.63,0,0,0,14.27,38.54a12.09,12.09,0,0,0,8.2-3.45A3.09,3.09,0,0,0,25.67,38a2.48,2.48,0,0,0,2.49-2.64V2.93a2.79,2.79,0,0,0-3-2.93m-11,32.25a8,8,0,1,1,8-8,8,8,0,0,1-8,8m54.2-21.66c-1.9,0-2.88.89-3.12,2.87A12.26,12.26,0,0,0,57.06,10,14.66,14.66,0,0,0,42.79,24.26,14.65,14.65,0,0,0,57.06,38.54c3.44,0,6.16-1,7.9-3-.16,5.75-2.94,8.55-8.47,8.55a2.79,2.79,0,0,0-3,3c0,1.89,1.15,3,3.16,3C67.22,50,71,42.33,71,35.76V13.18a2.48,2.48,0,0,0-2.54-2.59M56.94,32.25a8,8,0,1,1,8-8,8,8,0,0,1-8,8M189.41,10.39a2.86,2.86,0,0,0-2.92,2.93l-.07,21.78a2.82,2.82,0,0,0,2.92,3,2.76,2.76,0,0,0,3-3l.07-21.78a2.79,2.79,0,0,0-3-2.93m-153.6-.12a2.86,2.86,0,0,0-2.93,2.92V35a2.83,2.83,0,0,0,2.93,3,2.76,2.76,0,0,0,3-3V13.19a2.79,2.79,0,0,0-3-2.92m43.3.07a2.86,2.86,0,0,0-2.92,2.92V35a2.82,2.82,0,0,0,2.92,3,2.76,2.76,0,0,0,3-3V13.26a2.79,2.79,0,0,0-3-2.92M97.37,32.21c-1.93-.16-3.13-.7-3.13-2.92V16.73h1.53a2.83,2.83,0,0,0,2.93-2.92,2.77,2.77,0,0,0-2.93-3H94.24V3a2.76,2.76,0,0,0-3-3,2.82,2.82,0,0,0-2.92,3V10.9a2.69,2.69,0,0,0-2.3,2.91,2.81,2.81,0,0,0,2.3,2.89V29.34c0,5.48,3,8.63,8.09,8.63,2.13,0,3.41-1,3.41-2.74a2.7,2.7,0,0,0-2.48-3M137.6,0a2.8,2.8,0,0,0-2.92,2.93V35a2.82,2.82,0,0,0,2.92,3,2.76,2.76,0,0,0,3-3V2.93a2.74,2.74,0,0,0-3-2.93m17.21,29.3c-.1-.14-.21-.29-.32-.42a5.48,5.48,0,0,0-.92-.88c-.11-.09-.23-.17-.36-.26a5.55,5.55,0,0,0-2.08-.81,5.86,5.86,0,0,0-.94-.08,5.52,5.52,0,0,0-2.65.67l-.46.28a5.58,5.58,0,0,0,0,9.24,4.25,4.25,0,0,0,.46.27,5.54,5.54,0,0,0,6.19-.59,6.06,6.06,0,0,0,.76-.76c.11-.14.22-.28.32-.43a5.32,5.32,0,0,0,.51-.94,5.57,5.57,0,0,0,0-4.34,5.79,5.79,0,0,0-.51-.95"/><path class="cls-1" d="M120.19,23.06a5.59,5.59,0,0,1,.14,1.23,5.09,5.09,0,0,1,0,.69,4.94,4.94,0,0,1-.12.67,5.43,5.43,0,0,1-10.68-1.36,5.6,5.6,0,0,1,.11-1.09,5.44,5.44,0,0,1,3.2-3.91,5.42,5.42,0,0,1,4.23,0,5.42,5.42,0,0,1,2.76,2.64,5.65,5.65,0,0,1,.41,1.13m-106-4.2a5.43,5.43,0,1,0,5.42,5.43,5.43,5.43,0,0,0-5.42-5.43m155.25.43a4.24,4.24,0,0,0-.5-.18,5,5,0,0,0-.79-.18,4.47,4.47,0,0,0-.82-.07,5.43,5.43,0,0,0-1.62.25,4.09,4.09,0,0,0-.49.18A5.43,5.43,0,0,0,162,23.2a5.6,5.6,0,0,0-.11,1.09,5.42,5.42,0,0,0,1.59,3.84,5.5,5.5,0,0,0,.8.66,5.34,5.34,0,0,0,1.42.69,5.43,5.43,0,0,0,1.62.24,5.55,5.55,0,0,0,.82-.06,5,5,0,0,0,.79-.18,5.19,5.19,0,0,0,1.42-.69,4.61,4.61,0,0,0,.8-.66,5.42,5.42,0,0,0,1.59-3.84,5.6,5.6,0,0,0-.11-1.09,5.44,5.44,0,0,0-3.2-3.91m-110.42,0a5.42,5.42,0,0,0-4.23,0,5.44,5.44,0,0,0-3.2,3.91,5.6,5.6,0,0,0-.11,1.09,5.43,5.43,0,1,0,10.85,0,5.6,5.6,0,0,0-.11-1.09,5.44,5.44,0,0,0-3.2-3.91"/><path class="cls-1" d="M254.92,1a24,24,0,1,0,24,24A24,24,0,0,0,254.92,1Zm.47,9,9.78,5.67-2.1,2.17-7.68-4.44-7.73,4.5-2.1-2.18Zm-5.24,29.51-8.81-5v-12L244.23,25v7.62l5.92,3.49Zm-.82-9.65V22.8l6.08-3.55,6.07,3.55v7.06l-6.07,3.5Zm20.15,4.6-8.67,5.35v-3.7l5.8-3.36V25l2.87-2.71Z"/><path class="cls-1" d="M429.39,17.5h.94v2.95h.54V17.5h1V17h-2.47Z"/><path class="cls-1" d="M434.86,17,434,19.42,433.23,17h-.88v3.49h.54v-2.8l.94,2.8h.39l.94-2.8v2.8h.54V17Z"/><path class="cls-1" d="M291.09,28.09V28c0-7.36,4.9-11.52,10.09-11.52a8.86,8.86,0,0,1,7.41,3.91V8.47h5V39.14h-5v-3.7a8.65,8.65,0,0,1-7.41,4.16C296.07,39.6,291.09,35.44,291.09,28.09Zm17.58,0V28c0-4.29-3-7.1-6.3-7.1s-6.26,2.73-6.26,7.1v.08c0,4.29,2.88,7.1,6.26,7.1S308.67,32.33,308.67,28.09Z"/><path class="cls-1" d="M317.75,28.13v-.08c0-6.35,4.41-11.56,10.63-11.56,6.92,0,10.42,5.55,10.42,11.94,0,.46,0,.92-.09,1.43h-16A6.1,6.1,0,0,0,329,35.49a7.84,7.84,0,0,0,5.89-2.65l2.93,2.65a10.92,10.92,0,0,1-8.9,4.16C322.61,39.65,317.75,35,317.75,28.13Zm16.11-1.64c-.34-3.27-2.23-5.84-5.52-5.84-3,0-5.19,2.4-5.65,5.84Z"/><path class="cls-1" d="M342.92,17h5v3.69a8.67,8.67,0,0,1,7.41-4.16c5.11,0,10.09,4.12,10.09,11.52v.08c0,7.35-4.94,11.51-10.09,11.51a8.82,8.82,0,0,1-7.41-3.9V45.86h-5Zm17.46,11.13V28c0-4.29-2.89-7.1-6.22-7.1s-6.34,2.85-6.34,7.1v.08c0,4.24,3,7.1,6.34,7.1S360.38,32.46,360.38,28.09Z"/><path class="cls-1" d="M369.83,8.47h5V39.14h-5Z"/><path class="cls-1" d="M379.07,28.17v-.08A11.59,11.59,0,0,1,402.25,28v.08A11.48,11.48,0,0,1,390.6,39.65,11.36,11.36,0,0,1,379.07,28.17Zm18.2,0v-.08c0-3.91-2.76-7.14-6.67-7.14s-6.55,3.19-6.55,7.06v.08c0,3.87,2.76,7.1,6.63,7.1C394.72,35.19,397.27,32,397.27,28.17Z"/><path class="cls-1" d="M420.17,17h5.19l-8.64,22.77C415,44.31,413.05,46,409.55,46a9.68,9.68,0,0,1-5.15-1.39l1.69-3.74a6,6,0,0,0,2.92.84c1.4,0,2.27-.63,3.09-2.52L403,17h5.36l6.09,16.47Z"/></g></svg>