<svg xmlns="http://www.w3.org/2000/svg" viewBox="0 0 47.92 48.11"><g id="light_logos" data-name="light logos"><path d="M24,0a24,24,0,1,0,24,24A24,24,0,0,0,24,0ZM21.31,35.12A2.3,2.3,0,0,1,19,37.41h-5.5a2.3,2.3,0,0,1-2.29-2.29V29.63a2.3,2.3,0,0,1,2.29-2.29H19a2.3,2.3,0,0,1,2.29,2.29Zm8-.38a2.69,2.69,0,0,1-2.7,2.69H23.12a.09.09,0,0,1,0-.17c.78-.33,2.21-1.13,2.24-2.52V26a2.65,2.65,0,0,0-2.67-2.67H13.93a2.5,2.5,0,0,0-2.57,2c0,.05-.13.05-.13,0V22a2.69,2.69,0,0,1,2.7-2.69H26.7A2.66,2.66,0,0,1,29.35,22Zm8.09,0a2.69,2.69,0,0,1-2.7,2.69H31.49a.08.08,0,0,1,0-.15,2.49,2.49,0,0,0,1.94-2.54V17.8a2.33,2.33,0,0,0-2.54-2.54H13.93a2.68,2.68,0,0,0-2.57,2.19c0,.05-.13,0-.13,0v-3.5a2.7,2.7,0,0,1,2.7-2.69H34.76a2.7,2.7,0,0,1,2.68,2.69Z"/></g></svg>