<svg xmlns="http://www.w3.org/2000/svg" viewBox="0 0 47.92 48.11"><defs><style>.cls-1{fill:#61b3b8;}.cls-2{fill:#fff;}</style></defs><g id="light_logos" data-name="light logos"><circle class="cls-1" cx="23.96" cy="23.96" r="23.96"/><path class="cls-2" d="M37.44,13.92V34.74a2.69,2.69,0,0,1-2.7,2.69H31.49a.08.08,0,0,1,0-.15,2.49,2.49,0,0,0,1.94-2.54V17.8a2.33,2.33,0,0,0-2.54-2.54H13.93a2.68,2.68,0,0,0-2.57,2.19c0,.05-.13,0-.13,0v-3.5a2.7,2.7,0,0,1,2.7-2.69H34.76A2.7,2.7,0,0,1,37.44,13.92ZM26.7,19.29H13.93A2.69,2.69,0,0,0,11.23,22v3.37c0,.08.1.08.13,0a2.5,2.5,0,0,1,2.57-2h8.74A2.65,2.65,0,0,1,25.34,26v8.73c0,1.39-1.46,2.19-2.24,2.52a.09.09,0,0,0,0,.17h3.53a2.69,2.69,0,0,0,2.7-2.69V22A2.66,2.66,0,0,0,26.7,19.29ZM21.31,29.63v5.49A2.3,2.3,0,0,1,19,37.41h-5.5a2.3,2.3,0,0,1-2.29-2.29V29.63a2.3,2.3,0,0,1,2.29-2.29H19A2.3,2.3,0,0,1,21.31,29.63Z"/></g></svg>