<svg xmlns="http://www.w3.org/2000/svg" viewBox="0 0 413.71 48"><defs><style>.cls-1{fill:#61b3b8;}.cls-2{fill:#fff;}</style></defs><g id="light_logos" data-name="light logos"><circle class="cls-1" cx="24" cy="24" r="24"/><path class="cls-2" d="M37.5,13.57V34.43a2.7,2.7,0,0,1-2.7,2.69H31.54a.08.08,0,0,1,0-.15,2.49,2.49,0,0,0,1.94-2.54v-17a2.34,2.34,0,0,0-2.55-2.55H14a2.68,2.68,0,0,0-2.57,2.19s-.13,0-.13,0V13.57A2.7,2.7,0,0,1,14,10.88H34.82A2.7,2.7,0,0,1,37.5,13.57ZM26.75,18.94H14a2.7,2.7,0,0,0-2.7,2.7V25c0,.08.1.08.13,0A2.51,2.51,0,0,1,14,23h8.76a2.67,2.67,0,0,1,2.67,2.68v8.75c0,1.38-1.46,2.19-2.24,2.52a.09.09,0,0,0,0,.17H26.7a2.7,2.7,0,0,0,2.7-2.69V21.64A2.67,2.67,0,0,0,26.75,18.94Zm-5.4,10.37v5.5a2.3,2.3,0,0,1-2.3,2.29h-5.5a2.3,2.3,0,0,1-2.3-2.29v-5.5a2.31,2.31,0,0,1,2.3-2.3h5.5A2.31,2.31,0,0,1,21.35,29.31Z"/><path class="cls-2" d="M407.42,7.3h.93v2.94h.54V7.3h1V6.75h-2.46Z"/><path class="cls-2" d="M412.87,6.75,412,9.21l-.79-2.46h-.88v3.49h.54V7.44l.93,2.8h.39l.94-2.8v2.8h.54V6.75Z"/><path class="cls-2" d="M60,28.27v-.08c0-4.71,3.64-7,8.87-7a17.34,17.34,0,0,1,5.74.91v-.54c0-3.1-1.86-4.75-5.3-4.75a14.55,14.55,0,0,0-6.11,1.37l-1.34-3.93A18.32,18.32,0,0,1,70,12.45c3.2,0,5.59.87,7.08,2.44s2.31,3.88,2.31,6.73V34.55H74.57V31.83a8.62,8.62,0,0,1-7,3.18C63.6,35,60,32.65,60,28.27Zm14.7-1.56V25.22a13.29,13.29,0,0,0-4.86-.87c-3.16,0-5,1.36-5,3.64v.08c0,2.1,1.82,3.3,4.17,3.3C72.23,31.37,74.7,29.47,74.7,26.71Z"/><path class="cls-2" d="M84.45,12.74h4.94v3.64a8.53,8.53,0,0,1,7.29-4.09c5,0,9.92,4.05,9.92,11.32v.08c0,7.23-4.86,11.32-9.92,11.32a8.71,8.71,0,0,1-7.29-3.84v10H84.45Zm17.17,11v-.08c0-4.22-2.83-7-6.11-7s-6.24,2.81-6.24,7v.08c0,4.17,2.92,7,6.24,7S101.62,28,101.62,23.69Z"/><path class="cls-2" d="M110.73,12.74h4.94v3.64A8.52,8.52,0,0,1,123,12.29c5,0,9.91,4.05,9.91,11.32v.08C132.87,30.92,128,35,123,35a8.69,8.69,0,0,1-7.29-3.84v10h-4.94Zm17.16,11v-.08c0-4.22-2.83-7-6.11-7s-6.23,2.81-6.23,7v.08c0,4.17,2.91,7,6.23,7S127.89,28,127.89,23.69Z"/><path class="cls-2" d="M149.23,12.74h4.94v3.31c1.38-1.94,3.24-3.76,6.52-3.76a6.78,6.78,0,0,1,6.4,3.84,8.55,8.55,0,0,1,7.2-3.84c4.66,0,7.49,3,7.49,8.34V34.55h-4.9V22.16c0-3.47-1.58-5.33-4.33-5.33S168,18.73,168,22.24V34.55h-4.9V22.12c0-3.39-1.62-5.29-4.33-5.29s-4.58,2.07-4.58,5.41V34.55h-4.94Z"/><path class="cls-2" d="M185.65,28.27v-.08c0-4.71,3.64-7,8.86-7a17.45,17.45,0,0,1,5.75.91v-.54c0-3.1-1.86-4.75-5.3-4.75a14.55,14.55,0,0,0-6.11,1.37l-1.34-3.93a18.32,18.32,0,0,1,8.1-1.78c3.2,0,5.58.87,7.08,2.44S205,18.77,205,21.62V34.55h-4.78V31.83a8.62,8.62,0,0,1-7,3.18C189.25,35,185.65,32.65,185.65,28.27Zm14.69-1.56V25.22a13.19,13.19,0,0,0-4.85-.87c-3.16,0-5,1.36-5,3.64v.08c0,2.1,1.82,3.3,4.17,3.3C197.87,31.37,200.34,29.47,200.34,26.71Z"/><path class="cls-2" d="M210.26,12.74h4.93v3.35a7.73,7.73,0,0,1,6.68-3.8c4.82,0,7.62,3.3,7.62,8.34V34.55h-4.9V22.16c0-3.39-1.66-5.33-4.58-5.33s-4.82,2-4.82,5.41V34.55h-4.93Z"/><path class="cls-2" d="M233.29,28.27v-.08c0-4.71,3.65-7,8.87-7a17.45,17.45,0,0,1,5.75.91v-.54c0-3.1-1.87-4.75-5.31-4.75a14.58,14.58,0,0,0-6.11,1.37l-1.34-3.93a18.32,18.32,0,0,1,8.1-1.78c3.2,0,5.59.87,7.09,2.44s2.3,3.88,2.3,6.73V34.55h-4.77V31.83a8.65,8.65,0,0,1-7,3.18C236.89,35,233.29,32.65,233.29,28.27ZM248,26.71V25.22a13.29,13.29,0,0,0-4.86-.87c-3.16,0-5,1.36-5,3.64v.08c0,2.1,1.82,3.3,4.17,3.3C245.52,31.37,248,29.47,248,26.71Z"/><path class="cls-2" d="M257.66,38.64l1.82-3.76a13.74,13.74,0,0,0,7.61,2.28c4.37,0,6.76-2.28,6.76-6.65V28.85a9,9,0,0,1-7.53,4c-5.06,0-9.72-3.8-9.72-10.2v-.09c0-6.44,4.74-10.24,9.72-10.24A9.15,9.15,0,0,1,273.81,16V12.74h4.9V30.09c0,3.68-.93,6.4-2.71,8.22-1.95,2-4.94,2.94-8.79,2.94A18.07,18.07,0,0,1,257.66,38.64Zm16.23-16.07v-.08a6,6,0,0,0-6.27-5.95,5.8,5.8,0,0,0-6.08,5.95v.08a5.87,5.87,0,0,0,6.08,6A6,6,0,0,0,273.89,22.57Z"/><path class="cls-2" d="M283,23.73v-.08c0-6.24,4.33-11.36,10.45-11.36,6.8,0,10.24,5.45,10.24,11.73,0,.46,0,.91-.08,1.41H287.92A6,6,0,0,0,294.07,31a7.7,7.7,0,0,0,5.79-2.6l2.88,2.6A10.74,10.74,0,0,1,294,35.05C287.8,35.05,283,30.46,283,23.73Zm15.83-1.61c-.32-3.22-2.19-5.74-5.42-5.74-3,0-5.11,2.35-5.55,5.74Z"/><path class="cls-2" d="M308,12.74h4.94v3.31c1.37-1.94,3.24-3.76,6.52-3.76a6.77,6.77,0,0,1,6.39,3.84A8.56,8.56,0,0,1,333,12.29c4.66,0,7.49,3,7.49,8.34V34.55h-4.9V22.16c0-3.47-1.58-5.33-4.33-5.33s-4.58,1.9-4.58,5.41V34.55h-4.89V22.12c0-3.39-1.62-5.29-4.34-5.29s-4.57,2.07-4.57,5.41V34.55H308Z"/><path class="cls-2" d="M344.67,23.73v-.08c0-6.24,4.34-11.36,10.45-11.36,6.8,0,10.24,5.45,10.24,11.73,0,.46,0,.91-.08,1.41H349.57A6,6,0,0,0,355.73,31a7.73,7.73,0,0,0,5.79-2.6l2.87,2.6a10.72,10.72,0,0,1-8.74,4.09C349.45,35.05,344.67,30.46,344.67,23.73Zm15.83-1.61c-.32-3.22-2.18-5.74-5.42-5.74-3,0-5.1,2.35-5.55,5.74Z"/><path class="cls-2" d="M369.61,12.74h4.94v3.35a7.73,7.73,0,0,1,6.68-3.8c4.82,0,7.61,3.3,7.61,8.34V34.55h-4.9V22.16c0-3.39-1.66-5.33-4.57-5.33s-4.82,2-4.82,5.41V34.55h-4.94Z"/><path class="cls-2" d="M394.77,28.52V17h-2.72v-4.3h2.72v-6h4.89v6h5.75V17h-5.75v10.7c0,1.94,1,2.72,2.64,2.72a6.4,6.4,0,0,0,3-.74v4.09a8.34,8.34,0,0,1-4.41,1.12C397.32,34.93,394.77,33.31,394.77,28.52Z"/></g></svg>