<svg xmlns="http://www.w3.org/2000/svg" viewBox="0 0 204.78 48"><defs><style>.cls-1{fill:#2a2a2a;}</style></defs><g id="light_logos" data-name="light logos"><path class="cls-1" d="M24,0A24,24,0,1,0,48,24,24,24,0,0,0,24,0Zm.47,9,9.78,5.67-2.1,2.17L24.47,12.4l-7.73,4.5-2.1-2.18ZM19.23,38.51l-8.81-5v-12L13.31,24v7.62l5.92,3.49Zm-.82-9.65V21.8l6.08-3.55,6.07,3.55v7.06l-6.07,3.5Zm20.15,4.6-8.68,5.35v-3.7l5.8-3.36V24l2.88-2.71Z"/><path class="cls-1" d="M198.47,16.5h.94v2.95H200V16.5h1V16h-2.46Z"/><path class="cls-1" d="M203.94,16l-.84,2.46L202.31,16h-.88v3.49H202v-2.8l.93,2.8h.4l.94-2.8v2.8h.54V16Z"/><path class="cls-1" d="M60.16,27.09V27c0-7.36,4.91-11.52,10.09-11.52a8.86,8.86,0,0,1,7.42,3.91V7.47h5V38.14h-5v-3.7a8.66,8.66,0,0,1-7.42,4.16C65.15,38.6,60.16,34.44,60.16,27.09Zm17.59,0V27c0-4.29-3-7.1-6.3-7.1s-6.26,2.73-6.26,7.1v.08c0,4.29,2.88,7.1,6.26,7.1S77.75,31.33,77.75,27.09Z"/><path class="cls-1" d="M86.83,27.13v-.08c0-6.35,4.41-11.56,10.63-11.56,6.92,0,10.42,5.55,10.42,11.94,0,.46,0,.92-.09,1.43h-16a6.12,6.12,0,0,0,6.26,5.63A7.84,7.84,0,0,0,104,31.84l2.93,2.65A10.92,10.92,0,0,1,98,38.65C91.69,38.65,86.83,34,86.83,27.13Zm16.1-1.64c-.33-3.27-2.22-5.84-5.51-5.84-3,0-5.19,2.4-5.65,5.84Z"/><path class="cls-1" d="M112,16h5v3.69a8.66,8.66,0,0,1,7.41-4.16c5.11,0,10.09,4.12,10.09,11.52v.08c0,7.35-4.94,11.51-10.09,11.51A8.82,8.82,0,0,1,117,34.7V44.86h-5Zm17.47,11.13V27c0-4.29-2.89-7.1-6.22-7.1s-6.35,2.85-6.35,7.1v.08c0,4.24,3,7.1,6.35,7.1S129.46,31.46,129.46,27.09Z"/><path class="cls-1" d="M138.91,7.47h5V38.14h-5Z"/><path class="cls-1" d="M148.15,27.17v-.08A11.59,11.59,0,0,1,171.33,27v.08a11.48,11.48,0,0,1-11.65,11.56A11.36,11.36,0,0,1,148.15,27.17Zm18.2,0v-.08c0-3.91-2.76-7.14-6.67-7.14s-6.55,3.19-6.55,7.06v.08c0,3.87,2.76,7.1,6.63,7.1C163.79,34.19,166.35,31,166.35,27.17Z"/><path class="cls-1" d="M189.25,16h5.19l-8.65,22.77c-1.73,4.58-3.66,6.26-7.16,6.26a9.66,9.66,0,0,1-5.15-1.39l1.69-3.74a6,6,0,0,0,2.92.84c1.4,0,2.27-.63,3.09-2.52L172.12,16h5.36l6.09,16.47Z"/></g></svg>