<svg xmlns="http://www.w3.org/2000/svg" viewBox="0 0 204.78 48"><defs><style>.cls-1{fill:#279fea;}.cls-2{fill:#fff;}</style></defs><g id="light_logos" data-name="light logos"><circle class="cls-1" cx="24" cy="24" r="24"/><polygon class="cls-2" points="30.56 21.8 24.49 18.25 18.41 21.8 18.41 28.86 24.49 32.36 30.56 28.86 30.56 21.8"/><polygon class="cls-2" points="13.31 24 10.42 21.45 10.42 33.5 19.23 38.51 19.23 35.11 13.31 31.62 13.31 24"/><polygon class="cls-2" points="35.68 24 35.68 31.75 29.89 35.11 29.89 38.81 38.56 33.46 38.56 21.29 35.68 24"/><polygon class="cls-2" points="24.47 12.4 32.15 16.84 34.25 14.67 24.47 9 14.64 14.72 16.74 16.9 24.47 12.4"/><path class="cls-2" d="M198.47,16.65h.94v3H200v-3h1V16.1h-2.46Z"/><path class="cls-2" d="M203.94,16.1l-.84,2.47-.79-2.47h-.88v3.5H202V16.79l.93,2.81h.4l.94-2.81V19.6h.54V16.1Z"/><path class="cls-2" d="M60.16,27.24v-.09c0-7.35,4.91-11.51,10.09-11.51a8.86,8.86,0,0,1,7.42,3.91V7.62h5V38.29h-5v-3.7a8.68,8.68,0,0,1-7.42,4.16C65.15,38.75,60.16,34.59,60.16,27.24Zm17.59,0v-.09c0-4.28-3-7.1-6.3-7.1s-6.26,2.73-6.26,7.1v.09c0,4.28,2.88,7.1,6.26,7.1S77.75,31.48,77.75,27.24Z"/><path class="cls-2" d="M86.83,27.28V27.2c0-6.35,4.41-11.56,10.63-11.56,6.92,0,10.42,5.55,10.42,11.93,0,.47,0,.93-.09,1.43h-16a6.11,6.11,0,0,0,6.26,5.63A7.83,7.83,0,0,0,104,32l2.93,2.64A10.92,10.92,0,0,1,98,38.79C91.69,38.79,86.83,34.13,86.83,27.28Zm16.1-1.64c-.33-3.28-2.22-5.84-5.51-5.84-3,0-5.19,2.4-5.65,5.84Z"/><path class="cls-2" d="M112,16.1h5v3.7a8.66,8.66,0,0,1,7.41-4.16c5.11,0,10.09,4.12,10.09,11.51v.09c0,7.35-4.94,11.51-10.09,11.51A8.83,8.83,0,0,1,117,34.84V45h-5Zm17.47,11.14v-.09c0-4.28-2.89-7.1-6.22-7.1s-6.35,2.86-6.35,7.1v.09c0,4.24,3,7.1,6.35,7.1S129.46,31.61,129.46,27.24Z"/><path class="cls-2" d="M138.91,7.62h5V38.29h-5Z"/><path class="cls-2" d="M148.15,27.32v-.08a11.59,11.59,0,0,1,23.18-.09v.09a11.48,11.48,0,0,1-11.65,11.55A11.36,11.36,0,0,1,148.15,27.32Zm18.2,0v-.08c0-3.91-2.76-7.14-6.67-7.14s-6.55,3.19-6.55,7v.09c0,3.86,2.76,7.1,6.63,7.1C163.79,34.34,166.35,31.15,166.35,27.32Z"/><path class="cls-2" d="M189.25,16.1h5.19l-8.65,22.78c-1.73,4.58-3.66,6.26-7.16,6.26a9.75,9.75,0,0,1-5.15-1.39L175.17,40a6,6,0,0,0,2.92.84c1.4,0,2.27-.63,3.09-2.52L172.12,16.1h5.36l6.09,16.47Z"/></g></svg>