<svg xmlns="http://www.w3.org/2000/svg" viewBox="0 0 643.07 50"><defs><style>.cls-1{fill:#fff;}.cls-2{fill:#9a9a9a;}</style></defs><g id="light_logos" data-name="light logos"><path class="cls-1" d="M253.36,1a24,24,0,1,0,24,24A24,24,0,0,0,253.36,1Zm-2.65,35.18a2.3,2.3,0,0,1-2.3,2.29h-5.5a2.3,2.3,0,0,1-2.3-2.29v-5.5a2.3,2.3,0,0,1,2.3-2.29h5.5a2.3,2.3,0,0,1,2.3,2.29Zm8-.38a2.7,2.7,0,0,1-2.7,2.7h-3.53a.09.09,0,0,1,0-.18c.78-.32,2.22-1.13,2.25-2.52V27.05a2.65,2.65,0,0,0-2.68-2.67h-8.75a2.52,2.52,0,0,0-2.58,2s-.13,0-.13,0V23a2.71,2.71,0,0,1,2.71-2.7h12.79a2.65,2.65,0,0,1,2.65,2.7Zm8.1,0a2.7,2.7,0,0,1-2.7,2.7h-3.25c-.08,0-.1-.13,0-.15a2.51,2.51,0,0,0,1.95-2.55v-17a2.35,2.35,0,0,0-2.55-2.55h-17a2.71,2.71,0,0,0-2.58,2.2c0,.05-.13,0-.13,0V15a2.71,2.71,0,0,1,2.71-2.7h20.87a2.7,2.7,0,0,1,2.67,2.7Z"/><path class="cls-1" d="M636.79,8.29h.93v3h.54v-3h1V7.75h-2.45Z"/><path class="cls-1" d="M642.24,7.75l-.84,2.46-.78-2.46h-.89v3.49h.54V8.44l.94,2.8h.39l.93-2.8v2.8h.54V7.75Z"/><path class="cls-1" d="M289.36,29.27v-.08c0-4.71,3.65-7,8.87-7a17.45,17.45,0,0,1,5.75.91v-.54c0-3.1-1.86-4.75-5.3-4.75a14.78,14.78,0,0,0-6.12,1.36l-1.33-3.92a18.24,18.24,0,0,1,8.09-1.78c3.2,0,5.59.87,7.09,2.44s2.31,3.88,2.31,6.73V35.55h-4.78V32.83A8.65,8.65,0,0,1,297,36C293,36,289.36,33.65,289.36,29.27Zm14.7-1.57V26.22a13.21,13.21,0,0,0-4.86-.87c-3.16,0-5,1.36-5,3.64v.08c0,2.1,1.82,3.3,4.17,3.3C301.59,32.37,304.06,30.47,304.06,27.7Z"/><path class="cls-1" d="M313.82,13.74h4.94v3.64A8.52,8.52,0,0,1,326,13.29c5,0,9.92,4.05,9.92,11.32v.08C336,31.92,331.11,36,326,36a8.69,8.69,0,0,1-7.28-3.84v10h-4.94Zm17.16,11v-.08c0-4.22-2.83-7-6.11-7s-6.23,2.8-6.23,7v.08c0,4.17,2.91,7,6.23,7S331,29,331,24.69Z"/><path class="cls-1" d="M340.09,13.74H345v3.64a8.53,8.53,0,0,1,7.29-4.09c5,0,9.92,4.05,9.92,11.32v.08c0,7.23-4.86,11.32-9.92,11.32A8.71,8.71,0,0,1,345,32.17v10h-4.94Zm17.17,11v-.08c0-4.22-2.83-7-6.11-7s-6.24,2.8-6.24,7v.08c0,4.17,2.92,7,6.24,7S357.26,29,357.26,24.69Z"/><path class="cls-1" d="M378.6,13.74h4.93v3.31c1.38-1.94,3.24-3.76,6.52-3.76a6.77,6.77,0,0,1,6.4,3.84,8.56,8.56,0,0,1,7.21-3.84c4.65,0,7.49,3,7.49,8.34V35.55h-4.9V23.16c0-3.47-1.58-5.33-4.33-5.33s-4.58,1.9-4.58,5.41V35.55h-4.9V23.12c0-3.39-1.62-5.29-4.33-5.29s-4.58,2.07-4.58,5.41V35.55H378.6Z"/><path class="cls-1" d="M415,29.27v-.08c0-4.71,3.65-7,8.87-7a17.45,17.45,0,0,1,5.75.91v-.54c0-3.1-1.86-4.75-5.31-4.75a14.73,14.73,0,0,0-6.11,1.36l-1.34-3.92a18.32,18.32,0,0,1,8.1-1.78c3.2,0,5.59.87,7.09,2.44s2.3,3.88,2.3,6.73V35.55h-4.77V32.83a8.65,8.65,0,0,1-7,3.18C418.62,36,415,33.65,415,29.27Zm14.7-1.57V26.22a13.29,13.29,0,0,0-4.86-.87c-3.16,0-5,1.36-5,3.64v.08c0,2.1,1.82,3.3,4.17,3.3C427.24,32.37,429.71,30.47,429.71,27.7Z"/><path class="cls-1" d="M439.62,13.74h4.94v3.35a7.7,7.7,0,0,1,6.68-3.8c4.82,0,7.61,3.3,7.61,8.34V35.55H454V23.16c0-3.39-1.66-5.33-4.57-5.33s-4.82,2-4.82,5.41V35.55h-4.94Z"/><path class="cls-1" d="M462.66,29.27v-.08c0-4.71,3.64-7,8.86-7a17.45,17.45,0,0,1,5.75.91v-.54c0-3.1-1.86-4.75-5.3-4.75a14.78,14.78,0,0,0-6.12,1.36l-1.33-3.92a18.29,18.29,0,0,1,8.1-1.78c3.19,0,5.58.87,7.08,2.44S482,19.77,482,22.62V35.55h-4.78V32.83a8.63,8.63,0,0,1-7,3.18C466.26,36,462.66,33.65,462.66,29.27Zm14.69-1.57V26.22a13.21,13.21,0,0,0-4.86-.87c-3.15,0-5,1.36-5,3.64v.08c0,2.1,1.83,3.3,4.17,3.3C474.88,32.37,477.35,30.47,477.35,27.7Z"/><path class="cls-1" d="M487,39.64l1.82-3.76a13.76,13.76,0,0,0,7.61,2.27c4.38,0,6.76-2.27,6.76-6.64V29.85a9,9,0,0,1-7.53,4c-5.06,0-9.71-3.8-9.71-10.2v-.09c0-6.44,4.73-10.24,9.71-10.24A9.14,9.14,0,0,1,503.17,17V13.74h4.9V31.09c0,3.68-.93,6.4-2.71,8.22-1.94,2-4.94,2.93-8.78,2.93A18.07,18.07,0,0,1,487,39.64Zm16.24-16.07v-.08A6,6,0,0,0,497,17.54a5.8,5.8,0,0,0-6.07,5.95v.08a5.87,5.87,0,0,0,6.07,6A6,6,0,0,0,503.26,23.57Z"/><path class="cls-1" d="M512.39,24.73v-.08c0-6.24,4.33-11.36,10.44-11.36,6.8,0,10.24,5.45,10.24,11.73,0,.45,0,.91-.08,1.4H517.28A6,6,0,0,0,523.44,32a7.7,7.7,0,0,0,5.79-2.6L532.1,32a10.72,10.72,0,0,1-8.74,4.09C517.16,36.05,512.39,31.46,512.39,24.73Zm15.83-1.61c-.33-3.22-2.19-5.74-5.43-5.74-3,0-5.1,2.35-5.55,5.74Z"/><path class="cls-1" d="M537.32,13.74h4.94v3.31c1.38-1.94,3.24-3.76,6.52-3.76a6.77,6.77,0,0,1,6.4,3.84,8.56,8.56,0,0,1,7.21-3.84c4.65,0,7.49,3,7.49,8.34V35.55H565V23.16c0-3.47-1.58-5.33-4.34-5.33s-4.57,1.9-4.57,5.41V35.55h-4.9V23.12c0-3.39-1.62-5.29-4.33-5.29s-4.58,2.07-4.58,5.41V35.55h-4.94Z"/><path class="cls-1" d="M574,24.73v-.08c0-6.24,4.33-11.36,10.44-11.36,6.81,0,10.25,5.45,10.25,11.73a13.86,13.86,0,0,1-.09,1.4h-15.7A6,6,0,0,0,585.09,32a7.7,7.7,0,0,0,5.79-2.6l2.87,2.6A10.71,10.71,0,0,1,585,36.05C578.81,36.05,574,31.46,574,24.73Zm15.83-1.61c-.33-3.22-2.19-5.74-5.43-5.74-3,0-5.1,2.35-5.54,5.74Z"/><path class="cls-1" d="M599,13.74h4.94v3.35a7.7,7.7,0,0,1,6.68-3.8c4.81,0,7.61,3.3,7.61,8.34V35.55h-4.9V23.16c0-3.39-1.66-5.33-4.58-5.33s-4.81,2-4.81,5.41V35.55H599Z"/><path class="cls-1" d="M624.13,29.52V18h-2.71v-4.3h2.71v-6H629v6h5.75V18H629v10.7c0,1.94,1,2.72,2.63,2.72a6.44,6.44,0,0,0,3-.74v4.09a8.38,8.38,0,0,1-4.42,1.11C626.68,35.92,624.13,34.31,624.13,29.52Z"/><polygon class="cls-1" points="195.91 11.26 194.92 11.26 194.92 10.71 197.48 10.71 197.48 11.26 196.49 11.26 196.49 14.29 195.91 14.29 195.91 11.26"/><polygon class="cls-1" points="197.94 10.71 198.84 10.71 199.68 13.25 199.69 13.25 200.52 10.71 201.42 10.71 201.42 14.29 200.85 14.29 200.85 11.41 200.84 11.41 199.86 14.29 199.46 14.29 198.5 11.41 198.49 11.41 198.49 14.29 197.94 14.29 197.94 10.71"/><path class="cls-1" d="M178.32,10.59a2.81,2.81,0,0,0-2.89,2.47,11,11,0,0,0-8-3.09A14.15,14.15,0,0,0,153.12,24.3c0,.2,0,.39,0,.58a8.1,8.1,0,0,1,5.15,7.54,8.2,8.2,0,0,1-.45,2.63,14.32,14.32,0,0,0,9.56,3.49,12.25,12.25,0,0,0,8-3.24A2.79,2.79,0,0,0,178.32,38a2.76,2.76,0,0,0,3-3V13.52a2.77,2.77,0,0,0-3-2.93m-11,21.66a8,8,0,1,1,8-8,8,8,0,0,1-8,8M126.06,10.59a2.82,2.82,0,0,0-2.89,2.47,11,11,0,0,0-8-3.09A14.15,14.15,0,0,0,100.87,24.3a14,14,0,0,0,14.28,14.24,12.2,12.2,0,0,0,8-3.24A2.81,2.81,0,0,0,126.06,38a2.76,2.76,0,0,0,3-3V13.52a2.77,2.77,0,0,0-3-2.93M114.9,32.25a8,8,0,1,1,7.95-8,8,8,0,0,1-7.95,8M25.19,0a2.76,2.76,0,0,0-3,2.92V13.1A10.58,10.58,0,0,0,14.27,10,14.68,14.68,0,0,0,0,24.3,14.63,14.63,0,0,0,14.27,38.54a12.16,12.16,0,0,0,8.2-3.45A3.08,3.08,0,0,0,25.67,38a2.49,2.49,0,0,0,2.49-2.64V2.92a2.79,2.79,0,0,0-3-2.92m-11,32.25a8,8,0,1,1,8-8,8,8,0,0,1-8,8m54.2-21.66c-1.9,0-2.87.89-3.12,2.87A12.23,12.23,0,0,0,57.06,10,14.66,14.66,0,0,0,42.79,24.26,14.65,14.65,0,0,0,57.06,38.54c3.44,0,6.15-1,7.9-3-.17,5.75-2.94,8.55-8.47,8.55a2.79,2.79,0,0,0-3,3c0,1.89,1.15,3,3.16,3C67.21,50,71,42.33,71,35.76V13.18a2.48,2.48,0,0,0-2.54-2.59M56.93,32.25a8,8,0,1,1,8-8,8,8,0,0,1-8,8M189.41,10.39a2.86,2.86,0,0,0-2.92,2.93l-.08,21.78a2.82,2.82,0,0,0,2.92,3,2.76,2.76,0,0,0,3-3l.07-21.78a2.8,2.8,0,0,0-3-2.93M35.8,10.27a2.86,2.86,0,0,0-2.92,2.92V35a2.82,2.82,0,0,0,2.92,3,2.76,2.76,0,0,0,3-3V13.19a2.78,2.78,0,0,0-3-2.92m43.31.07a2.86,2.86,0,0,0-2.92,2.92V35a2.82,2.82,0,0,0,2.92,3,2.76,2.76,0,0,0,3-3V13.26a2.79,2.79,0,0,0-3-2.92M97.37,32.21c-1.94-.16-3.13-.7-3.13-2.92V16.73h1.53a2.83,2.83,0,0,0,2.92-2.92,2.76,2.76,0,0,0-2.92-3H94.24V3a2.76,2.76,0,0,0-3-3,2.82,2.82,0,0,0-2.92,3V10.9a2.69,2.69,0,0,0-2.3,2.91,2.8,2.8,0,0,0,2.3,2.89V29.34c0,5.48,3,8.63,8.09,8.63,2.13,0,3.4-1,3.4-2.74a2.69,2.69,0,0,0-2.47-3M137.6,0a2.8,2.8,0,0,0-2.93,2.92V35a2.82,2.82,0,0,0,2.93,3,2.76,2.76,0,0,0,3-3V2.92a2.73,2.73,0,0,0-3-2.92m17.21,29.3-.32-.43a5.85,5.85,0,0,0-.92-.87l-.36-.26a5.61,5.61,0,0,0-2.08-.81,5.86,5.86,0,0,0-.94-.08,5.52,5.52,0,0,0-2.65.67l-.46.28a5.57,5.57,0,0,0,0,9.23,3.14,3.14,0,0,0,.46.28,5.52,5.52,0,0,0,6.19-.6,5.39,5.39,0,0,0,.76-.75c.11-.14.22-.28.32-.43a5.7,5.7,0,0,0,.51-.94,5.57,5.57,0,0,0,0-4.34,5.79,5.79,0,0,0-.51-.95"/><path class="cls-2" d="M120.18,23.06a5,5,0,0,1,.1,1.92,5,5,0,0,1-.13.67,5.42,5.42,0,0,1-10.67-1.36,4.92,4.92,0,0,1,.11-1.09,5.44,5.44,0,0,1,3.2-3.91,5.39,5.39,0,0,1,4.22,0,5.4,5.4,0,0,1,2.77,2.64,5.62,5.62,0,0,1,.4,1.13m-106-4.2a5.43,5.43,0,1,0,5.43,5.43,5.43,5.43,0,0,0-5.43-5.43m155.26.43a5,5,0,0,0-.5-.18,7,7,0,0,0-.79-.19,5.59,5.59,0,0,0-.83-.06,5.37,5.37,0,0,0-1.61.25,5,5,0,0,0-.5.18A5.44,5.44,0,0,0,162,23.2a5.6,5.6,0,0,0-.11,1.09,5.42,5.42,0,0,0,1.59,3.84,4.61,4.61,0,0,0,.8.66,5.19,5.19,0,0,0,1.42.69,5.36,5.36,0,0,0,1.61.24,5.59,5.59,0,0,0,.83-.06,5.25,5.25,0,0,0,2.21-.87,5,5,0,0,0,.8-.66,5.42,5.42,0,0,0,1.59-3.84,5.6,5.6,0,0,0-.11-1.09,5.44,5.44,0,0,0-3.2-3.91M59,19.29a5.39,5.39,0,0,0-4.22,0,5.44,5.44,0,0,0-3.2,3.91,5.6,5.6,0,0,0-.11,1.09,5.43,5.43,0,1,0,10.85,0,5.6,5.6,0,0,0-.11-1.09A5.43,5.43,0,0,0,59,19.29"/></g></svg>