<svg xmlns="http://www.w3.org/2000/svg" viewBox="0 0 643.07 50"><defs><style>.cls-1{fill:#fff;}</style></defs><g id="light_logos" data-name="light logos"><path class="cls-1" d="M253.42,1a24,24,0,1,0,24,24A24,24,0,0,0,253.42,1Zm-2.65,35.18a2.3,2.3,0,0,1-2.3,2.29H243a2.3,2.3,0,0,1-2.3-2.29v-5.5a2.3,2.3,0,0,1,2.3-2.29h5.5a2.3,2.3,0,0,1,2.3,2.29Zm8-.38a2.7,2.7,0,0,1-2.7,2.7h-3.53a.09.09,0,0,1,0-.18c.78-.32,2.22-1.13,2.25-2.52V27.05a2.65,2.65,0,0,0-2.68-2.67h-8.76a2.52,2.52,0,0,0-2.57,2s-.13,0-.13,0V23a2.7,2.7,0,0,1,2.7-2.7h12.8a2.66,2.66,0,0,1,2.65,2.7Zm8.1,0a2.7,2.7,0,0,1-2.7,2.7H261c-.08,0-.1-.13,0-.15a2.49,2.49,0,0,0,1.94-2.55v-17a2.35,2.35,0,0,0-2.55-2.55h-17a2.71,2.71,0,0,0-2.57,2.2c0,.05-.13,0-.13,0V15a2.7,2.7,0,0,1,2.7-2.7h20.88a2.7,2.7,0,0,1,2.67,2.7Z"/><path class="cls-1" d="M636.84,8.3h.94v2.94h.54V8.3h1V7.75h-2.46Z"/><path class="cls-1" d="M642.3,7.75l-.84,2.46-.78-2.46h-.89v3.49h.54V8.44l.93,2.8h.4l.93-2.8v2.8h.54V7.75Z"/><path class="cls-1" d="M289.42,29.27v-.08c0-4.71,3.65-7,8.87-7a17.45,17.45,0,0,1,5.75.91v-.54c0-3.1-1.86-4.75-5.31-4.75a14.58,14.58,0,0,0-6.11,1.37l-1.34-3.93a18.32,18.32,0,0,1,8.1-1.78c3.2,0,5.59.87,7.09,2.44s2.31,3.88,2.31,6.73V35.55H304V32.83A8.65,8.65,0,0,1,297,36C293,36,289.42,33.65,289.42,29.27Zm14.7-1.56V26.22a13.29,13.29,0,0,0-4.86-.87c-3.16,0-5,1.36-5,3.64v.08c0,2.1,1.82,3.3,4.17,3.3C301.65,32.37,304.12,30.47,304.12,27.71Z"/><path class="cls-1" d="M313.88,13.74h4.94v3.64a8.5,8.5,0,0,1,7.28-4.09c5,0,9.92,4.05,9.92,11.32v.08C336,31.92,331.16,36,326.1,36a8.67,8.67,0,0,1-7.28-3.84v10h-4.94Zm17.16,11v-.08c0-4.22-2.83-7-6.11-7s-6.24,2.81-6.24,7v.08c0,4.17,2.92,7,6.24,7S331,29,331,24.69Z"/><path class="cls-1" d="M340.15,13.74h4.94v3.64a8.53,8.53,0,0,1,7.29-4.09c5,0,9.92,4.05,9.92,11.32v.08c0,7.23-4.86,11.32-9.92,11.32a8.71,8.71,0,0,1-7.29-3.84v10h-4.94Zm17.17,11v-.08c0-4.22-2.84-7-6.12-7s-6.23,2.81-6.23,7v.08c0,4.17,2.91,7,6.23,7S357.32,29,357.32,24.69Z"/><path class="cls-1" d="M378.65,13.74h4.94v3.31c1.38-1.94,3.24-3.76,6.52-3.76a6.78,6.78,0,0,1,6.4,3.84,8.56,8.56,0,0,1,7.21-3.84c4.65,0,7.48,3,7.48,8.34V35.55h-4.89V23.16c0-3.47-1.58-5.33-4.34-5.33s-4.57,1.9-4.57,5.41V35.55h-4.9V23.12c0-3.39-1.62-5.29-4.33-5.29s-4.58,2.07-4.58,5.41V35.55h-4.94Z"/><path class="cls-1" d="M415.07,29.27v-.08c0-4.71,3.64-7,8.87-7a17.45,17.45,0,0,1,5.75.91v-.54c0-3.1-1.87-4.75-5.31-4.75a14.55,14.55,0,0,0-6.11,1.37l-1.34-3.93a18.32,18.32,0,0,1,8.1-1.78c3.2,0,5.59.87,7.09,2.44s2.3,3.88,2.3,6.73V35.55h-4.77V32.83a8.65,8.65,0,0,1-7,3.18C418.67,36,415.07,33.65,415.07,29.27Zm14.7-1.56V26.22a13.29,13.29,0,0,0-4.86-.87c-3.16,0-5,1.36-5,3.64v.08c0,2.1,1.82,3.3,4.17,3.3C427.3,32.37,429.77,30.47,429.77,27.71Z"/><path class="cls-1" d="M439.68,13.74h4.94v3.35a7.72,7.72,0,0,1,6.68-3.8c4.82,0,7.61,3.3,7.61,8.34V35.55H454V23.16c0-3.39-1.66-5.33-4.58-5.33s-4.81,2-4.81,5.41V35.55h-4.94Z"/><path class="cls-1" d="M462.71,29.27v-.08c0-4.71,3.65-7,8.87-7a17.45,17.45,0,0,1,5.75.91v-.54c0-3.1-1.86-4.75-5.3-4.75a14.63,14.63,0,0,0-6.12,1.37l-1.33-3.93a18.28,18.28,0,0,1,8.09-1.78c3.2,0,5.59.87,7.09,2.44s2.31,3.88,2.31,6.73V35.55h-4.78V32.83a8.65,8.65,0,0,1-7,3.18C466.32,36,462.71,33.65,462.71,29.27Zm14.7-1.56V26.22a13.21,13.21,0,0,0-4.86-.87c-3.16,0-5,1.36-5,3.64v.08c0,2.1,1.82,3.3,4.17,3.3C474.94,32.37,477.41,30.47,477.41,27.71Z"/><path class="cls-1" d="M487.08,39.64l1.82-3.76a13.76,13.76,0,0,0,7.61,2.28c4.37,0,6.76-2.28,6.76-6.65V29.85a9,9,0,0,1-7.53,4c-5.06,0-9.71-3.8-9.71-10.2v-.09c0-6.44,4.73-10.24,9.71-10.24A9.14,9.14,0,0,1,503.23,17V13.74h4.9V31.09c0,3.68-.93,6.4-2.71,8.22-1.94,2-4.94,2.94-8.79,2.94A18.07,18.07,0,0,1,487.08,39.64Zm16.23-16.07v-.08A6,6,0,0,0,497,17.54,5.8,5.8,0,0,0,491,23.49v.08a5.87,5.87,0,0,0,6.07,6A6,6,0,0,0,503.31,23.57Z"/><path class="cls-1" d="M512.44,24.73v-.08c0-6.24,4.34-11.36,10.45-11.36,6.8,0,10.24,5.45,10.24,11.73,0,.46,0,.91-.08,1.41H517.34A6,6,0,0,0,523.5,32a7.73,7.73,0,0,0,5.79-2.6l2.87,2.6a10.72,10.72,0,0,1-8.74,4.09C517.22,36.05,512.44,31.46,512.44,24.73Zm15.83-1.61c-.32-3.22-2.18-5.74-5.42-5.74-3,0-5.1,2.35-5.55,5.74Z"/><path class="cls-1" d="M537.38,13.74h4.94v3.31c1.38-1.94,3.24-3.76,6.52-3.76a6.78,6.78,0,0,1,6.4,3.84,8.55,8.55,0,0,1,7.2-3.84c4.66,0,7.49,3,7.49,8.34V35.55H565V23.16c0-3.47-1.57-5.33-4.33-5.33s-4.57,1.9-4.57,5.41V35.55h-4.9V23.12c0-3.39-1.62-5.29-4.33-5.29s-4.58,2.07-4.58,5.41V35.55h-4.94Z"/><path class="cls-1" d="M574.1,24.73v-.08c0-6.24,4.33-11.36,10.44-11.36,6.8,0,10.24,5.45,10.24,11.73,0,.46,0,.91-.08,1.41H579A6,6,0,0,0,585.15,32a7.7,7.7,0,0,0,5.79-2.6l2.87,2.6a10.72,10.72,0,0,1-8.74,4.09C578.87,36.05,574.1,31.46,574.1,24.73Zm15.83-1.61c-.33-3.22-2.19-5.74-5.43-5.74-3,0-5.1,2.35-5.55,5.74Z"/><path class="cls-1" d="M599,13.74H604v3.35a7.73,7.73,0,0,1,6.68-3.8c4.82,0,7.62,3.3,7.62,8.34V35.55h-4.9V23.16c0-3.39-1.66-5.33-4.58-5.33s-4.82,2-4.82,5.41V35.55H599Z"/><path class="cls-1" d="M624.19,29.52V18h-2.71v-4.3h2.71v-6h4.9v6h5.75V18h-5.75v10.7c0,1.94,1,2.72,2.63,2.72a6.47,6.47,0,0,0,3-.74v4.09a8.41,8.41,0,0,1-4.42,1.12C626.74,35.93,624.19,34.31,624.19,29.52Z"/><polygon class="cls-1" points="195.85 11.26 194.87 11.26 194.87 10.71 197.42 10.71 197.42 11.26 196.43 11.26 196.43 14.29 195.85 14.29 195.85 11.26"/><polygon class="cls-1" points="197.88 10.71 198.78 10.71 199.62 13.25 199.63 13.25 200.46 10.71 201.36 10.71 201.36 14.29 200.79 14.29 200.79 11.41 200.78 11.41 199.81 14.29 199.4 14.29 198.44 11.41 198.43 11.41 198.43 14.29 197.88 14.29 197.88 10.71"/><path class="cls-1" d="M178.26,10.59a2.81,2.81,0,0,0-2.89,2.47,11,11,0,0,0-8-3.09A14.15,14.15,0,0,0,153.07,24.3c0,.2,0,.39,0,.58a8.1,8.1,0,0,1,5.15,7.54,8.2,8.2,0,0,1-.45,2.63,14.32,14.32,0,0,0,9.56,3.49,12.25,12.25,0,0,0,8-3.24A2.79,2.79,0,0,0,178.26,38a2.76,2.76,0,0,0,3-3V13.52a2.77,2.77,0,0,0-3-2.93m-11,21.66a8,8,0,1,1,7.95-8,8,8,0,0,1-7.95,8M126,10.59a2.83,2.83,0,0,0-2.9,2.47,11,11,0,0,0-8-3.09A14.15,14.15,0,0,0,100.81,24.3a14,14,0,0,0,14.28,14.24,12.25,12.25,0,0,0,8-3.24A2.79,2.79,0,0,0,126,38a2.76,2.76,0,0,0,3-3V13.52a2.77,2.77,0,0,0-3-2.93M114.84,32.25a8,8,0,1,1,8-8,8,8,0,0,1-8,8M25.13,0a2.77,2.77,0,0,0-3,2.93V13.1A10.55,10.55,0,0,0,14.21,10,14.68,14.68,0,0,0-.06,24.3,14.63,14.63,0,0,0,14.21,38.54a12.11,12.11,0,0,0,8.2-3.45A3.09,3.09,0,0,0,25.61,38a2.48,2.48,0,0,0,2.49-2.64V2.93a2.79,2.79,0,0,0-3-2.93m-11,32.25a8,8,0,1,1,8-8,8,8,0,0,1-8,8m54.2-21.66c-1.89,0-2.87.89-3.12,2.87A12.21,12.21,0,0,0,57,10,14.66,14.66,0,0,0,42.73,24.26,14.65,14.65,0,0,0,57,38.54c3.44,0,6.15-1,7.9-3-.17,5.75-2.94,8.55-8.47,8.55a2.79,2.79,0,0,0-3,3c0,1.89,1.15,3,3.16,3,10.54,0,14.27-7.67,14.27-14.24V13.18a2.48,2.48,0,0,0-2.54-2.59M56.88,32.25a8,8,0,1,1,7.95-8,8,8,0,0,1-7.95,8M189.35,10.39a2.86,2.86,0,0,0-2.92,2.93l-.08,21.78a2.82,2.82,0,0,0,2.93,3,2.76,2.76,0,0,0,3-3l.07-21.78a2.79,2.79,0,0,0-3-2.93m-153.6-.12a2.86,2.86,0,0,0-2.93,2.92V35a2.82,2.82,0,0,0,2.93,3,2.76,2.76,0,0,0,3-3V13.19a2.79,2.79,0,0,0-3-2.92m43.3.07a2.86,2.86,0,0,0-2.92,2.92V35a2.82,2.82,0,0,0,2.92,3,2.76,2.76,0,0,0,3-3V13.26a2.79,2.79,0,0,0-3-2.92M97.31,32.21c-1.93-.16-3.13-.7-3.13-2.92V16.73h1.53a2.82,2.82,0,0,0,2.92-2.92,2.76,2.76,0,0,0-2.92-3H94.18V3a2.76,2.76,0,0,0-3-3,2.82,2.82,0,0,0-2.92,3V10.9A2.69,2.69,0,0,0,86,13.81a2.8,2.8,0,0,0,2.3,2.89V29.34c0,5.48,2.95,8.63,8.09,8.63,2.13,0,3.4-1,3.4-2.74a2.69,2.69,0,0,0-2.47-3M137.54,0a2.8,2.8,0,0,0-2.93,2.93V35a2.83,2.83,0,0,0,2.93,3,2.76,2.76,0,0,0,3-3V2.93a2.74,2.74,0,0,0-3-2.93m17.21,29.3c-.1-.14-.21-.29-.32-.42a5.48,5.48,0,0,0-.92-.88c-.11-.09-.23-.17-.36-.26a5.55,5.55,0,0,0-2.08-.81,5.86,5.86,0,0,0-.94-.08,5.52,5.52,0,0,0-2.65.67l-.46.28A5.58,5.58,0,0,0,147,37a4.25,4.25,0,0,0,.46.27,5.54,5.54,0,0,0,6.19-.59,6.06,6.06,0,0,0,.76-.76c.11-.14.22-.28.32-.43a5.32,5.32,0,0,0,.51-.94,5.57,5.57,0,0,0,0-4.34,5.79,5.79,0,0,0-.51-.95"/><path class="cls-1" d="M120.12,23.06a5,5,0,0,1,.1,1.92,4.94,4.94,0,0,1-.12.67,6,6,0,0,1-.49,1.23,5.42,5.42,0,0,1-10.19-2.59,5.6,5.6,0,0,1,.11-1.09,5.44,5.44,0,0,1,3.2-3.91,5.39,5.39,0,0,1,4.22,0,5.4,5.4,0,0,1,2.77,2.64,5.07,5.07,0,0,1,.4,1.13m-106-4.2a5.43,5.43,0,1,0,5.43,5.43,5.43,5.43,0,0,0-5.43-5.43m155.26.43a4.24,4.24,0,0,0-.5-.18,5.32,5.32,0,0,0-.79-.18,4.47,4.47,0,0,0-.82-.07,5.38,5.38,0,0,0-1.62.25,5,5,0,0,0-.5.18A5.44,5.44,0,0,0,162,23.2a5.6,5.6,0,0,0-.11,1.09,5.42,5.42,0,0,0,1.59,3.84,5,5,0,0,0,.8.66,5.29,5.29,0,0,0,3,.93,5.55,5.55,0,0,0,.82-.06,5.32,5.32,0,0,0,.79-.18,5.19,5.19,0,0,0,1.42-.69,4.61,4.61,0,0,0,.8-.66,5.42,5.42,0,0,0,1.59-3.84,5.6,5.6,0,0,0-.11-1.09,5.44,5.44,0,0,0-3.2-3.91M59,19.29a5.42,5.42,0,0,0-4.23,0,5.44,5.44,0,0,0-3.2,3.91,5.6,5.6,0,0,0-.11,1.09,5.43,5.43,0,1,0,10.85,0,5.6,5.6,0,0,0-.11-1.09A5.44,5.44,0,0,0,59,19.29"/></g></svg>