<svg xmlns="http://www.w3.org/2000/svg" viewBox="0 0 643.07 50"><defs><style>.cls-1{fill:#61b3b8;}.cls-2{fill:#fff;}.cls-3{fill:#649a3d;}</style></defs><g id="light_logos" data-name="light logos"><circle class="cls-1" cx="253.36" cy="25" r="24"/><path class="cls-2" d="M266.86,14.57V35.43a2.7,2.7,0,0,1-2.7,2.69h-3.25a.08.08,0,0,1,0-.15,2.49,2.49,0,0,0,1.94-2.54v-17a2.34,2.34,0,0,0-2.55-2.55h-17a2.69,2.69,0,0,0-2.57,2.19s-.13,0-.13,0V14.57a2.71,2.71,0,0,1,2.7-2.7h20.88A2.7,2.7,0,0,1,266.86,14.57Zm-10.75,5.37h-12.8a2.7,2.7,0,0,0-2.7,2.7V26c0,.08.1.08.13,0A2.51,2.51,0,0,1,243.31,24h8.76a2.67,2.67,0,0,1,2.68,2.68v8.75c0,1.38-1.47,2.19-2.25,2.52a.09.09,0,0,0,0,.17h3.53a2.7,2.7,0,0,0,2.7-2.69V22.64A2.67,2.67,0,0,0,256.11,19.94Zm-5.4,10.37v5.5a2.3,2.3,0,0,1-2.3,2.29h-5.5a2.3,2.3,0,0,1-2.3-2.29v-5.5a2.31,2.31,0,0,1,2.3-2.3h5.5A2.31,2.31,0,0,1,250.71,30.31Z"/><path class="cls-2" d="M636.78,8.29h.94v3h.54v-3h1V7.75h-2.46Z"/><path class="cls-2" d="M642.24,7.75l-.84,2.46-.79-2.46h-.88v3.49h.54V8.44l.93,2.8h.4l.93-2.8v2.8h.54V7.75Z"/><path class="cls-2" d="M289.36,29.27v-.08c0-4.71,3.64-7,8.87-7a17.45,17.45,0,0,1,5.75.91v-.54c0-3.1-1.87-4.75-5.31-4.75a14.55,14.55,0,0,0-6.11,1.37l-1.34-3.93a18.32,18.32,0,0,1,8.1-1.78c3.2,0,5.59.87,7.09,2.44s2.3,3.88,2.3,6.73V35.55h-4.77V32.83A8.65,8.65,0,0,1,297,36C293,36,289.36,33.65,289.36,29.27Zm14.7-1.56V26.22a13.29,13.29,0,0,0-4.86-.87c-3.16,0-5,1.36-5,3.64v.08c0,2.1,1.82,3.3,4.17,3.3C301.59,32.37,304.06,30.47,304.06,27.71Z"/><path class="cls-2" d="M313.82,13.74h4.93v3.64A8.53,8.53,0,0,1,326,13.29c5,0,9.92,4.05,9.92,11.32v.08C336,31.92,331.1,36,326,36a8.71,8.71,0,0,1-7.29-3.84v10h-4.93Zm17.16,11v-.08c0-4.22-2.83-7-6.11-7s-6.24,2.81-6.24,7v.08c0,4.17,2.92,7,6.24,7S331,29,331,24.69Z"/><path class="cls-2" d="M340.09,13.74H345v3.64a8.53,8.53,0,0,1,7.29-4.09c5,0,9.92,4.05,9.92,11.32v.08c0,7.23-4.86,11.32-9.92,11.32A8.69,8.69,0,0,1,345,32.17v10h-4.94Zm17.17,11v-.08c0-4.22-2.84-7-6.12-7s-6.23,2.81-6.23,7v.08c0,4.17,2.91,7,6.23,7S357.26,29,357.26,24.69Z"/><path class="cls-2" d="M378.59,13.74h4.94v3.31c1.38-1.94,3.24-3.76,6.52-3.76a6.78,6.78,0,0,1,6.4,3.84,8.55,8.55,0,0,1,7.2-3.84c4.66,0,7.49,3,7.49,8.34V35.55h-4.9V23.16c0-3.47-1.57-5.33-4.33-5.33s-4.57,1.9-4.57,5.41V35.55h-4.9V23.12c0-3.39-1.62-5.29-4.33-5.29s-4.58,2.07-4.58,5.41V35.55h-4.94Z"/><path class="cls-2" d="M415,29.27v-.08c0-4.71,3.64-7,8.87-7a17.39,17.39,0,0,1,5.74.91v-.54c0-3.1-1.86-4.75-5.3-4.75a14.55,14.55,0,0,0-6.11,1.37l-1.34-3.93a18.32,18.32,0,0,1,8.1-1.78c3.2,0,5.59.87,7.08,2.44s2.31,3.88,2.31,6.73V35.55h-4.78V32.83a8.62,8.62,0,0,1-7,3.18C418.61,36,415,33.65,415,29.27Zm14.7-1.56V26.22a13.29,13.29,0,0,0-4.86-.87c-3.16,0-5,1.36-5,3.64v.08c0,2.1,1.82,3.3,4.17,3.3C427.24,32.37,429.71,30.47,429.71,27.71Z"/><path class="cls-2" d="M439.62,13.74h4.94v3.35a7.72,7.72,0,0,1,6.68-3.8c4.81,0,7.61,3.3,7.61,8.34V35.55H454V23.16c0-3.39-1.66-5.33-4.58-5.33s-4.81,2-4.81,5.41V35.55h-4.94Z"/><path class="cls-2" d="M462.65,29.27v-.08c0-4.71,3.65-7,8.87-7a17.45,17.45,0,0,1,5.75.91v-.54c0-3.1-1.86-4.75-5.3-4.75a14.59,14.59,0,0,0-6.12,1.37l-1.33-3.93a18.24,18.24,0,0,1,8.09-1.78c3.2,0,5.59.87,7.09,2.44S482,19.77,482,22.62V35.55h-4.78V32.83a8.65,8.65,0,0,1-7,3.18C466.26,36,462.65,33.65,462.65,29.27Zm14.7-1.56V26.22a13.25,13.25,0,0,0-4.86-.87c-3.16,0-5,1.36-5,3.64v.08c0,2.1,1.82,3.3,4.17,3.3C474.88,32.37,477.35,30.47,477.35,27.71Z"/><path class="cls-2" d="M487,39.64l1.82-3.76a13.76,13.76,0,0,0,7.61,2.28c4.37,0,6.76-2.28,6.76-6.65V29.85a9,9,0,0,1-7.53,4c-5.06,0-9.72-3.8-9.72-10.2v-.09c0-6.44,4.74-10.24,9.72-10.24A9.15,9.15,0,0,1,503.17,17V13.74h4.9V31.09c0,3.68-.93,6.4-2.71,8.22-1.95,2-4.94,2.94-8.79,2.94A18.07,18.07,0,0,1,487,39.64Zm16.23-16.07v-.08A6,6,0,0,0,497,17.54a5.81,5.81,0,0,0-6.08,5.95v.08a5.88,5.88,0,0,0,6.08,6A6,6,0,0,0,503.25,23.57Z"/><path class="cls-2" d="M512.38,24.73v-.08c0-6.24,4.33-11.36,10.45-11.36,6.8,0,10.24,5.45,10.24,11.73,0,.46,0,.91-.08,1.41H517.28A6,6,0,0,0,523.43,32a7.7,7.7,0,0,0,5.79-2.6L532.1,32a10.74,10.74,0,0,1-8.75,4.09C517.16,36.05,512.38,31.46,512.38,24.73Zm15.83-1.61c-.32-3.22-2.18-5.74-5.42-5.74-3,0-5.1,2.35-5.55,5.74Z"/><path class="cls-2" d="M537.32,13.74h4.94v3.31c1.38-1.94,3.24-3.76,6.52-3.76a6.78,6.78,0,0,1,6.4,3.84,8.55,8.55,0,0,1,7.2-3.84c4.66,0,7.49,3,7.49,8.34V35.55H565V23.16c0-3.47-1.58-5.33-4.33-5.33s-4.57,1.9-4.57,5.41V35.55h-4.9V23.12c0-3.39-1.62-5.29-4.33-5.29s-4.58,2.07-4.58,5.41V35.55h-4.94Z"/><path class="cls-2" d="M574,24.73v-.08c0-6.24,4.34-11.36,10.45-11.36,6.8,0,10.24,5.45,10.24,11.73,0,.46,0,.91-.08,1.41H578.93A6,6,0,0,0,585.09,32a7.7,7.7,0,0,0,5.79-2.6l2.87,2.6A10.72,10.72,0,0,1,585,36.05C578.81,36.05,574,31.46,574,24.73Zm15.84-1.61c-.33-3.22-2.19-5.74-5.43-5.74-3,0-5.1,2.35-5.55,5.74Z"/><path class="cls-2" d="M599,13.74h4.94v3.35a7.73,7.73,0,0,1,6.68-3.8c4.82,0,7.61,3.3,7.61,8.34V35.55h-4.89V23.16c0-3.39-1.66-5.33-4.58-5.33s-4.82,2-4.82,5.41V35.55H599Z"/><path class="cls-2" d="M624.13,29.52V18h-2.72v-4.3h2.72v-6H629v6h5.74V18H629v10.7c0,1.94,1,2.72,2.63,2.72a6.4,6.4,0,0,0,3-.74v4.09a8.34,8.34,0,0,1-4.41,1.12C626.68,35.93,624.13,34.31,624.13,29.52Z"/><polygon class="cls-2" points="195.92 11.26 194.93 11.26 194.93 10.71 197.48 10.71 197.48 11.26 196.49 11.26 196.49 14.29 195.92 14.29 195.92 11.26"/><polygon class="cls-2" points="197.94 10.71 198.84 10.71 199.68 13.25 199.69 13.25 200.52 10.71 201.43 10.71 201.43 14.29 200.85 14.29 200.85 11.41 200.85 11.41 199.87 14.29 199.47 14.29 198.5 11.41 198.49 11.41 198.49 14.29 197.94 14.29 197.94 10.71"/><path class="cls-2" d="M178.32,10.59a2.81,2.81,0,0,0-2.89,2.47,11,11,0,0,0-8-3.09A14.15,14.15,0,0,0,153.13,24.3c0,.2,0,.39,0,.58a8.1,8.1,0,0,1,5.15,7.54,7.94,7.94,0,0,1-.45,2.63,14.34,14.34,0,0,0,9.56,3.49,12.25,12.25,0,0,0,8-3.24A2.79,2.79,0,0,0,178.32,38a2.76,2.76,0,0,0,3-3V13.52a2.77,2.77,0,0,0-3-2.93m-11,21.66a8,8,0,1,1,7.95-8,8,8,0,0,1-7.95,8M126.07,10.59a2.81,2.81,0,0,0-2.89,2.47,11,11,0,0,0-8-3.09A14.15,14.15,0,0,0,100.87,24.3a14,14,0,0,0,14.28,14.24,12.25,12.25,0,0,0,8-3.24A2.79,2.79,0,0,0,126.07,38a2.76,2.76,0,0,0,3-3V13.52a2.77,2.77,0,0,0-3-2.93M114.9,32.25a8,8,0,1,1,8-8,8,8,0,0,1-8,8M25.19,0a2.77,2.77,0,0,0-3,2.93V13.1A10.55,10.55,0,0,0,14.27,10,14.68,14.68,0,0,0,0,24.3,14.63,14.63,0,0,0,14.27,38.54a12.09,12.09,0,0,0,8.2-3.45A3.09,3.09,0,0,0,25.67,38a2.48,2.48,0,0,0,2.49-2.64V2.93a2.79,2.79,0,0,0-3-2.93m-11,32.25a8,8,0,1,1,8-8,8,8,0,0,1-8,8m54.2-21.66c-1.9,0-2.88.89-3.12,2.87A12.26,12.26,0,0,0,57.06,10,14.66,14.66,0,0,0,42.79,24.26,14.65,14.65,0,0,0,57.06,38.54c3.44,0,6.16-1,7.9-3-.16,5.75-2.94,8.55-8.47,8.55a2.79,2.79,0,0,0-3,3c0,1.89,1.15,3,3.16,3C67.22,50,71,42.33,71,35.76V13.18a2.48,2.48,0,0,0-2.54-2.59M56.94,32.25a8,8,0,1,1,8-8,8,8,0,0,1-8,8M189.41,10.39a2.86,2.86,0,0,0-2.92,2.93l-.07,21.78a2.82,2.82,0,0,0,2.92,3,2.76,2.76,0,0,0,3-3l.07-21.78a2.79,2.79,0,0,0-3-2.93m-153.6-.12a2.86,2.86,0,0,0-2.93,2.92V35a2.83,2.83,0,0,0,2.93,3,2.76,2.76,0,0,0,3-3V13.19a2.79,2.79,0,0,0-3-2.92m43.3.07a2.86,2.86,0,0,0-2.92,2.92V35a2.82,2.82,0,0,0,2.92,3,2.76,2.76,0,0,0,3-3V13.26a2.79,2.79,0,0,0-3-2.92M97.37,32.21c-1.93-.16-3.13-.7-3.13-2.92V16.73h1.53a2.83,2.83,0,0,0,2.93-2.92,2.77,2.77,0,0,0-2.93-3H94.24V3a2.76,2.76,0,0,0-3-3,2.82,2.82,0,0,0-2.92,3V10.9a2.69,2.69,0,0,0-2.3,2.91,2.81,2.81,0,0,0,2.3,2.89V29.34c0,5.48,3,8.63,8.09,8.63,2.13,0,3.41-1,3.41-2.74a2.7,2.7,0,0,0-2.48-3M137.6,0a2.8,2.8,0,0,0-2.92,2.93V35a2.82,2.82,0,0,0,2.92,3,2.76,2.76,0,0,0,3-3V2.93a2.74,2.74,0,0,0-3-2.93m17.21,29.3c-.1-.14-.21-.29-.32-.42a5.48,5.48,0,0,0-.92-.88c-.11-.09-.23-.17-.36-.26a5.55,5.55,0,0,0-2.08-.81,5.86,5.86,0,0,0-.94-.08,5.52,5.52,0,0,0-2.65.67l-.46.28a5.58,5.58,0,0,0,0,9.24,4.25,4.25,0,0,0,.46.27,5.54,5.54,0,0,0,6.19-.59,6.06,6.06,0,0,0,.76-.76c.11-.14.22-.28.32-.43a5.32,5.32,0,0,0,.51-.94,5.57,5.57,0,0,0,0-4.34,5.79,5.79,0,0,0-.51-.95"/><path class="cls-3" d="M120.19,23.06a5.59,5.59,0,0,1,.14,1.23,5.09,5.09,0,0,1,0,.69,4.94,4.94,0,0,1-.12.67,5.43,5.43,0,0,1-10.68-1.36,5.6,5.6,0,0,1,.11-1.09,5.44,5.44,0,0,1,3.2-3.91,5.42,5.42,0,0,1,4.23,0,5.42,5.42,0,0,1,2.76,2.64,5.65,5.65,0,0,1,.41,1.13m-106-4.2a5.43,5.43,0,1,0,5.42,5.43,5.43,5.43,0,0,0-5.42-5.43m155.25.43a4.24,4.24,0,0,0-.5-.18,5,5,0,0,0-.79-.18,4.47,4.47,0,0,0-.82-.07,5.43,5.43,0,0,0-1.62.25,4.09,4.09,0,0,0-.49.18A5.43,5.43,0,0,0,162,23.2a5.6,5.6,0,0,0-.11,1.09,5.42,5.42,0,0,0,1.59,3.84,5.5,5.5,0,0,0,.8.66,5.34,5.34,0,0,0,1.42.69,5.43,5.43,0,0,0,1.62.24,5.55,5.55,0,0,0,.82-.06,5,5,0,0,0,.79-.18,5.19,5.19,0,0,0,1.42-.69,4.61,4.61,0,0,0,.8-.66,5.42,5.42,0,0,0,1.59-3.84,5.6,5.6,0,0,0-.11-1.09,5.44,5.44,0,0,0-3.2-3.91m-110.42,0a5.42,5.42,0,0,0-4.23,0,5.44,5.44,0,0,0-3.2,3.91,5.6,5.6,0,0,0-.11,1.09,5.43,5.43,0,1,0,10.85,0,5.6,5.6,0,0,0-.11-1.09,5.44,5.44,0,0,0-3.2-3.91"/></g></svg>