<svg xmlns="http://www.w3.org/2000/svg" viewBox="0 0 47.98 48"><defs><style>.cls-1{fill:#33d389;}.cls-2{fill:#fff;}</style></defs><g id="light_logos" data-name="light logos"><circle class="cls-1" cx="24" cy="24" r="24"/><path class="cls-2" d="M39,10.87H37.37a.81.81,0,0,0-.75.75v3.81A15.31,15.31,0,0,0,23.75,8.52a15.48,15.48,0,1,0,10.42,27,.7.7,0,0,0,0-1.12l-1.24-1.24a.77.77,0,0,0-1,0,11.78,11.78,0,0,1-8.19,3.1A12.26,12.26,0,1,1,34.91,18.92H30.44a.81.81,0,0,0-.75.74v1.48a.81.81,0,0,0,.75.74H39a.8.8,0,0,0,.74-.74V11.62A.81.81,0,0,0,39,10.87Z"/><path class="cls-2" d="M24.37,16.2a.53.53,0,0,0,.5-.5s.14-1.2.14-1.6-.27-.62-.51-.63a10.43,10.43,0,0,0-10.79,9.17,10.3,10.3,0,0,0,2.23,7.55,10.19,10.19,0,0,0,6.32,3.72.55.55,0,0,0,.62-.5s.22-1,.25-1.36,0-.55-.37-.62a7.19,7.19,0,0,1-5.21-3.59,8.26,8.26,0,0,1-1.12-3.47A7.55,7.55,0,0,1,24.37,16.2Z"/><path class="cls-2" d="M29.83,27.47a.48.48,0,0,0-.13-.75l-.86-.62a.59.59,0,0,0-.75.13,4.29,4.29,0,0,1-6.57,0,3.08,3.08,0,0,1-.37-.5,4,4,0,0,1-.13-4,.45.45,0,0,0-.12-.62l-1-.74a.6.6,0,0,0-.75.25A6.16,6.16,0,0,0,18.91,26a5.5,5.5,0,0,0,1.49,2.11,6.13,6.13,0,0,0,4.34,1.73A6.23,6.23,0,0,0,29.83,27.47Z"/></g></svg>