<svg xmlns="http://www.w3.org/2000/svg" viewBox="0 0 191.37 48"><g id="light_logos" data-name="light logos"><path d="M24,0A24,24,0,1,0,48,24,24,24,0,0,0,24,0ZM39.75,21.15a.8.8,0,0,1-.74.74H30.45a.81.81,0,0,1-.75-.74V19.67a.81.81,0,0,1,.75-.74h4.47A12.27,12.27,0,1,0,23.75,36.26a11.78,11.78,0,0,0,8.19-3.1.77.77,0,0,1,1,0l1.24,1.24a.7.7,0,0,1,0,1.12,15.51,15.51,0,1,1-10.42-27,15.31,15.31,0,0,1,12.87,6.91V11.62a.81.81,0,0,1,.75-.75H39a.81.81,0,0,1,.74.75ZM16.43,24.37a8.26,8.26,0,0,0,1.12,3.47,7.19,7.19,0,0,0,5.21,3.59c.33.07.39.37.37.62s-.25,1.36-.25,1.36a.55.55,0,0,1-.62.5,10.19,10.19,0,0,1-6.32-3.72,10.3,10.3,0,0,1-2.23-7.55A10.43,10.43,0,0,1,24.5,13.47c.24,0,.51.17.51.63s-.14,1.6-.14,1.6a.53.53,0,0,1-.5.5A7.55,7.55,0,0,0,16.43,24.37Zm4,3.72A5.38,5.38,0,0,1,18.92,26a6.13,6.13,0,0,1,.24-5.32.6.6,0,0,1,.75-.25l1,.74a.45.45,0,0,1,.12.62,4,4,0,0,0,.13,4,3.08,3.08,0,0,0,.37.5,4.29,4.29,0,0,0,6.57,0,.59.59,0,0,1,.75-.13l.86.62a.48.48,0,0,1,.13.75,6.23,6.23,0,0,1-5.09,2.35A6.13,6.13,0,0,1,20.4,28.09Z"/><path d="M185.09,15.25h1V18.2h.49V15.25h1v-.54h-2.45Z"/><path d="M190.54,14.71l-.84,2.46-.78-2.46H188V18.2h.54V15.4l.94,2.8h.39l.93-2.8v2.8h.54V14.71Z"/><path d="M70.42,14.42a18.58,18.58,0,0,0-8.24,1.8l1.36,4a14.87,14.87,0,0,1,6.22-1.39c3.5,0,5.39,1.68,5.39,4.83v.55a17.75,17.75,0,0,0-5.85-.93c-5.31,0-9,2.36-9,7.15v.08C60.28,35,64,37.36,68,37.36a8.78,8.78,0,0,0,7.08-3.23V36.9H80V23.75c0-2.9-.74-5.26-2.35-6.85S73.67,14.42,70.42,14.42Zm4.82,14.5c0,2.81-2.52,4.74-5.81,4.74-2.39,0-4.25-1.21-4.25-3.36v-.08c0-2.31,1.9-3.7,5.11-3.7a13.71,13.71,0,0,1,4.95.88Z"/><path d="M101.51,18a9.33,9.33,0,0,0-7.62-3.78c-5.07,0-9.89,3.86-9.89,10.42v.09c0,6.51,4.74,10.38,9.89,10.38a9.14,9.14,0,0,0,7.66-4v1.68c0,4.46-2.43,6.77-6.88,6.77a14,14,0,0,1-7.75-2.31l-1.85,3.82a18.39,18.39,0,0,0,9.72,2.65c3.92,0,7-1,8.94-3,1.81-1.85,2.76-4.63,2.76-8.37V14.71h-5Zm.08,6.68a6.13,6.13,0,0,1-6.39,6.1A6,6,0,0,1,89,24.71v-.08a5.89,5.89,0,0,1,6.17-6.05,6.09,6.09,0,0,1,6.39,6.05Z"/><rect x="112.17" y="14.71" width="5.03" height="22.19"/><rect x="122.96" y="6.22" width="5.03" height="30.68"/><rect x="133.75" y="14.71" width="5.03" height="22.19"/><path d="M150.27,8.62h-5v6.09h-2.76v4.37h2.76V30.76c0,4.88,2.6,6.52,6.27,6.52A8.46,8.46,0,0,0,156,36.14V32a6.54,6.54,0,0,1-3.09.76c-1.69,0-2.68-.8-2.68-2.77V19.08h5.85V14.71h-5.85Z"/><path d="M175.89,14.71l-5.68,16.48-6.1-16.48h-5.36l9.07,22.23c-.83,1.89-1.69,2.52-3.09,2.52a6,6,0,0,1-2.93-.84l-1.69,3.74a9.68,9.68,0,0,0,5.15,1.39c3.5,0,5.44-1.68,7.17-6.26l8.65-22.78Z"/><circle cx="114.68" cy="8.73" r="2.51"/><circle cx="136.26" cy="8.73" r="2.51"/></g></svg>