<svg xmlns="http://www.w3.org/2000/svg" viewBox="0 0 48 48"><defs><style>.cls-1{fill:#2a2a2a;}</style></defs><g id="light_logos" data-name="light logos"><path class="cls-1" d="M24,0A24,24,0,1,0,48,24,24,24,0,0,0,24,0ZM39.75,21.15a.8.8,0,0,1-.74.74H30.45a.81.81,0,0,1-.75-.74V19.67a.81.81,0,0,1,.75-.74h4.47A12.27,12.27,0,1,0,23.75,36.26a11.78,11.78,0,0,0,8.19-3.1.77.77,0,0,1,1,0l1.24,1.24a.7.7,0,0,1,0,1.12,15.51,15.51,0,1,1-10.42-27,15.31,15.31,0,0,1,12.87,6.91V11.62a.81.81,0,0,1,.75-.75H39a.81.81,0,0,1,.74.75ZM16.43,24.37a8.26,8.26,0,0,0,1.12,3.47,7.19,7.19,0,0,0,5.21,3.59c.33.07.39.37.37.62s-.25,1.36-.25,1.36a.55.55,0,0,1-.62.5,10.19,10.19,0,0,1-6.32-3.72,10.3,10.3,0,0,1-2.23-7.55A10.43,10.43,0,0,1,24.5,13.47c.24,0,.51.17.51.63s-.14,1.6-.14,1.6a.53.53,0,0,1-.5.5A7.55,7.55,0,0,0,16.43,24.37Zm4,3.72A5.38,5.38,0,0,1,18.92,26a6.13,6.13,0,0,1,.24-5.32.6.6,0,0,1,.75-.25l1,.74a.45.45,0,0,1,.12.62,4,4,0,0,0,.13,4,3.08,3.08,0,0,0,.37.5,4.29,4.29,0,0,0,6.57,0,.59.59,0,0,1,.75-.13l.86.62a.48.48,0,0,1,.13.75,6.23,6.23,0,0,1-5.09,2.35A6.13,6.13,0,0,1,20.4,28.09Z"/></g></svg>