<svg xmlns="http://www.w3.org/2000/svg" viewBox="0 0 191.37 48">
    <defs>
        <style>
            .cls-1 {
                fill: #33d389;
            }

            .cls-2 {
                fill: #fff;
            }
        </style>
    </defs>
    <g id="light_logos" data-name="light logos">
        <circle class="cls-1" cx="24" cy="24" r="24" />
        <path class="cls-2"
            d="M39,10.87H37.37a.81.81,0,0,0-.75.75v3.81A15.31,15.31,0,0,0,23.75,8.52a15.48,15.48,0,1,0,10.42,27,.7.7,0,0,0,0-1.12l-1.24-1.24a.77.77,0,0,0-1,0,11.78,11.78,0,0,1-8.19,3.1A12.26,12.26,0,1,1,34.91,18.92H30.44a.81.81,0,0,0-.75.74v1.48a.81.81,0,0,0,.75.74H39a.8.8,0,0,0,.74-.74V11.62A.81.81,0,0,0,39,10.87Z" />
        <path class="cls-2"
            d="M24.37,16.2a.53.53,0,0,0,.5-.5s.14-1.2.14-1.6-.27-.62-.51-.63a10.43,10.43,0,0,0-10.79,9.17,10.3,10.3,0,0,0,2.23,7.55,10.19,10.19,0,0,0,6.32,3.72.55.55,0,0,0,.62-.5s.22-1,.25-1.36,0-.55-.37-.62a7.19,7.19,0,0,1-5.21-3.59,8.26,8.26,0,0,1-1.12-3.47A7.55,7.55,0,0,1,24.37,16.2Z" />
        <path class="cls-2"
            d="M29.83,27.47a.48.48,0,0,0-.13-.75l-.86-.62a.59.59,0,0,0-.75.13,4.29,4.29,0,0,1-6.57,0,3.08,3.08,0,0,1-.37-.5,4,4,0,0,1-.13-4,.45.45,0,0,0-.12-.62l-1-.74a.6.6,0,0,0-.75.25A6.16,6.16,0,0,0,18.91,26a5.5,5.5,0,0,0,1.49,2.11,6.13,6.13,0,0,0,4.34,1.73A6.23,6.23,0,0,0,29.83,27.47Z" />
        <path class="cls-2" d="M185.09,15.25H186V18.2h.54V15.25h1v-.54h-2.45Z" />
        <path class="cls-2" d="M190.54,14.71l-.84,2.46-.78-2.46H188V18.2h.54V15.4l.94,2.8h.39l.93-2.8v2.8h.54V14.71Z" />
        <path class="cls-2"
            d="M70.41,14.42a18.57,18.57,0,0,0-8.23,1.8l1.36,4a14.87,14.87,0,0,1,6.22-1.39c3.5,0,5.39,1.68,5.39,4.83v.55a17.75,17.75,0,0,0-5.85-.93c-5.31,0-9,2.36-9,7.15v.08C60.28,35,64,37.36,68,37.36a8.78,8.78,0,0,0,7.08-3.23V36.9H80V23.75c0-2.9-.74-5.26-2.35-6.85S73.67,14.42,70.41,14.42Zm4.83,14.5c0,2.81-2.52,4.74-5.81,4.74-2.39,0-4.25-1.21-4.25-3.36v-.08c0-2.31,1.9-3.7,5.11-3.7a13.71,13.71,0,0,1,4.95.88Z" />
        <path class="cls-2"
            d="M101.51,18a9.33,9.33,0,0,0-7.62-3.78c-5.07,0-9.89,3.86-9.89,10.42v.09c0,6.51,4.74,10.38,9.89,10.38a9.14,9.14,0,0,0,7.66-4v1.68c0,4.46-2.43,6.77-6.88,6.77a14,14,0,0,1-7.75-2.31l-1.85,3.82a18.49,18.49,0,0,0,9.72,2.65c3.92,0,7-1,8.94-3,1.81-1.85,2.76-4.63,2.76-8.37V14.71h-5Zm.08,6.68a6.13,6.13,0,0,1-6.39,6.1A6,6,0,0,1,89,24.71v-.08a5.89,5.89,0,0,1,6.17-6.05,6.09,6.09,0,0,1,6.39,6.05Z" />
        <rect class="cls-2" x="112.17" y="14.71" width="5.03" height="22.19" />
        <rect class="cls-2" x="122.96" y="6.22" width="5.03" height="30.68" />
        <rect class="cls-2" x="133.75" y="14.71" width="5.03" height="22.19" />
        <path class="cls-2"
            d="M150.27,8.62h-5v6.09h-2.76v4.37h2.76V30.76c0,4.88,2.6,6.52,6.27,6.52A8.39,8.39,0,0,0,156,36.14V32a6.47,6.47,0,0,1-3.08.76c-1.69,0-2.68-.8-2.68-2.77V19.08h5.85V14.71h-5.85Z" />
        <path class="cls-2"
            d="M175.89,14.71l-5.68,16.48-6.1-16.48h-5.36l9.07,22.23c-.83,1.89-1.69,2.52-3.09,2.52a6,6,0,0,1-2.93-.84l-1.69,3.74a9.68,9.68,0,0,0,5.15,1.39c3.5,0,5.44-1.68,7.17-6.26l8.65-22.78Z" />
        <circle class="cls-2" cx="114.68" cy="8.73" r="2.51" />
        <circle class="cls-2" cx="136.26" cy="8.73" r="2.51" />
    </g>
</svg>