<svg xmlns="http://www.w3.org/2000/svg" viewBox="0 0 718.61 50"><g id="light_logos" data-name="light logos"><circle cx="260.97" cy="26.42" r="0.9"/><circle cx="259.77" cy="31.37" r="0.9"/><path d="M252.42,12.25a1.76,1.76,0,0,0-1.8,1.72,1.82,1.82,0,0,0,1.8,1.8,1.76,1.76,0,0,0,1.8-1.72A1.83,1.83,0,0,0,252.42,12.25Z"/><path d="M253.47,1a24,24,0,1,0,24,24A24,24,0,0,0,253.47,1ZM261,28.3a1.87,1.87,0,0,1-1.8-1.28H255a2.43,2.43,0,0,0-2.32-1.72,2.48,2.48,0,1,0,0,4.95,2.68,2.68,0,0,0,2.4-1.73h2.62V30.7H258a1.87,1.87,0,0,1,1.8-1.28,2,2,0,1,1,0,3.9,1.87,1.87,0,0,1-1.8-1.2h-2.48a1.82,1.82,0,0,0-1.57-1,1.65,1.65,0,1,0,0,3.3,1.61,1.61,0,0,0,1.57-1.12h2.18v1.57a1.77,1.77,0,0,1-.53,1.2l-3.52,3.53a1.5,1.5,0,0,1-1.2.52,1.76,1.76,0,0,1-1.2-.52l-3.3-3.3-.9-.9a1.29,1.29,0,0,1,.07-1.8l.68-.75v-.15l-.75-.83a1.58,1.58,0,0,1-.3-.9,1.28,1.28,0,0,1,.37-.9l.68-.6v-.15l-.75-.82a1.64,1.64,0,0,1-.3-.9,1,1,0,0,1,.52-.83l.38-.37V24.77a7.45,7.45,0,0,1-.9-.75l-.45-.45a16.26,16.26,0,0,1-2.55-8.92A1.84,1.84,0,0,1,244.77,13l7-2.85a2.08,2.08,0,0,1,.68-.15,1.68,1.68,0,0,1,.75.22l7,2.93a1.73,1.73,0,0,1,1.05,1.57,15.58,15.58,0,0,1-2.32,8.7l-.23.23a8.36,8.36,0,0,1-.9.82v1.2h1.5A1.91,1.91,0,0,1,261,24.55a1.88,1.88,0,0,1,0,3.75Zm-7.1-.54a1.13,1.13,0,1,1-2.25,0,1.1,1.1,0,0,1,1.13-1.12A1.14,1.14,0,0,1,253.87,27.76Zm.76,5a.72.72,0,1,1-.72-.72A.72.72,0,0,1,254.63,32.75Z"/><path d="M712.26,16.81h.94v3h.54v-3h1v-.54h-2.46Z"/><path d="M717.72,16.27l-.84,2.46-.78-2.46h-.89v3.49h.54V17l.94,2.8h.39L718,17v2.8h.54V16.27Z"/><polygon points="309.56 16.73 303.5 16.73 294.49 26.56 294.49 8.25 289.47 8.25 289.47 38.91 294.49 38.91 294.49 32.57 297.58 29.29 304 38.91 309.85 38.91 300.91 25.76 309.56 16.73"/><path d="M321.11,16.27c-6.22,0-10.63,5.21-10.63,11.55v.09c0,6.84,4.86,11.51,11.16,11.51a10.91,10.91,0,0,0,8.89-4.16l-2.92-2.65a7.84,7.84,0,0,1-5.89,2.65,6.12,6.12,0,0,1-6.26-5.63h16c0-.51.08-1,.08-1.43C331.52,21.82,328,16.27,321.11,16.27Zm-5.69,10c.46-3.45,2.6-5.84,5.64-5.84,3.3,0,5.19,2.56,5.52,5.84Z"/><path d="M344,33.2l-6.1-16.47h-5.35L341.62,39c-.82,1.89-1.69,2.52-3.09,2.52a6,6,0,0,1-2.92-.84l-1.69,3.74a9.75,9.75,0,0,0,5.15,1.39c3.5,0,5.43-1.68,7.16-6.26l8.65-22.77h-5.19Z"/><path d="M391.68,25.34l-3.83-2.05A47.73,47.73,0,0,1,384.77,29l-4.94-5.13c3.83-1.47,6.34-3.78,6.34-7.64V16.1c0-4-3.09-7.1-7.66-7.1-5.15,0-8.28,3.45-8.28,7.44v.08a9.8,9.8,0,0,0,2.39,6.14c-3.95,1.68-6.17,4.41-6.17,8.19v.08c0,5.08,4.07,8.4,9.47,8.4a12.55,12.55,0,0,0,8.81-3.82l3.83,4,3.78-2.77L387.77,32A43.34,43.34,0,0,0,391.68,25.34ZM375,16.61a3.36,3.36,0,0,1,3.46-3.53,3.14,3.14,0,0,1,3.25,3.32v.08c0,2.1-1.57,3.49-4.53,4.58-1.61-1.81-2.18-2.9-2.18-4.37Zm1.44,18.44c-2.8,0-4.82-1.81-4.82-4.29v-.08c0-1.89,1.16-3.7,3.83-4.87l6.42,6.67A7.84,7.84,0,0,1,376.41,35.05Z"/><path d="M420.71,20.18a8.86,8.86,0,0,0-7.41-3.91c-5.19,0-10.09,4.16-10.09,11.51v.08c0,7.35,5,11.51,10.09,11.51a8.65,8.65,0,0,0,7.41-4.16v3.7h5V8.25h-5Zm.08,7.68c0,4.25-3,7.1-6.3,7.1s-6.26-2.81-6.26-7.1v-.08c0-4.37,2.84-7.1,6.26-7.1s6.3,2.82,6.3,7.1Z"/><path d="M440,16.44a18.61,18.61,0,0,0-8.24,1.8l1.36,4a14.91,14.91,0,0,1,6.22-1.39c3.5,0,5.39,1.68,5.39,4.83v.55a17.64,17.64,0,0,0-5.84-.93c-5.31,0-9,2.35-9,7.14v.09c0,4.45,3.66,6.84,7.74,6.84a8.78,8.78,0,0,0,7.08-3.23v2.77h4.86V25.76c0-2.89-.74-5.25-2.35-6.84S443.24,16.44,440,16.44Zm4.82,14.49c0,2.81-2.52,4.75-5.81,4.75-2.39,0-4.24-1.22-4.24-3.36v-.09c0-2.31,1.89-3.69,5.11-3.69a13.48,13.48,0,0,1,4.94.88Z"/><path d="M460.41,10.64h-5v6.09h-2.76V21.1h2.76V32.78c0,4.87,2.6,6.51,6.26,6.51a8.55,8.55,0,0,0,4.49-1.13V34a6.65,6.65,0,0,1-3.09.75c-1.69,0-2.68-.79-2.68-2.77V21.1h5.85V16.73h-5.85Z"/><path d="M479.23,16.44a18.57,18.57,0,0,0-8.23,1.8l1.36,4a14.86,14.86,0,0,1,6.21-1.39c3.5,0,5.4,1.68,5.4,4.83v.55a17.75,17.75,0,0,0-5.85-.93c-5.31,0-9,2.35-9,7.14v.09c0,4.45,3.67,6.84,7.74,6.84a8.8,8.8,0,0,0,7.09-3.23v2.77h4.85V25.76c0-2.89-.74-5.25-2.34-6.84S482.48,16.44,479.23,16.44Zm4.82,14.49c0,2.81-2.51,4.75-5.81,4.75-2.38,0-4.24-1.22-4.24-3.36v-.09c0-2.31,1.9-3.69,5.11-3.69a13.44,13.44,0,0,1,4.94.88Z"/><path d="M518.67,16.27a8.67,8.67,0,0,0-7.41,4.16v-3.7h-5v28.9h5V35.47a8.84,8.84,0,0,0,7.41,3.9c5.15,0,10.09-4.16,10.09-11.51v-.08C528.76,20.39,523.78,16.27,518.67,16.27Zm5,11.59c0,4.37-2.8,7.1-6.22,7.1s-6.34-2.85-6.34-7.1v-.08c0-4.24,3-7.1,6.34-7.1s6.22,2.82,6.22,7.1Z"/><path d="M538.26,21.73v-5h-5V38.91h5V30.47c0-5.88,3-8.78,7.41-8.78H546V16.31C542.13,16.15,539.62,18.41,538.26,21.73Z"/><path d="M559.51,16.27A11.48,11.48,0,0,0,547.9,27.86V28a11.35,11.35,0,0,0,11.52,11.47,11.48,11.48,0,0,0,11.66-11.56v-.08A11.38,11.38,0,0,0,559.51,16.27ZM566.09,28c0,3.82-2.55,7-6.58,7-3.87,0-6.63-3.23-6.63-7.1v-.08c0-3.86,2.55-7.06,6.54-7.06s6.67,3.24,6.67,7.14Z"/><path d="M580.93,10.64h-5v6.09h-2.76V21.1H576V32.78c0,4.87,2.59,6.51,6.25,6.51a8.5,8.5,0,0,0,4.49-1.13V34a6.62,6.62,0,0,1-3.09.75c-1.68,0-2.67-.79-2.67-2.77V21.1h5.84V16.73h-5.84Z"/><path d="M599.85,16.27c-6.22,0-10.62,5.21-10.62,11.55v.09c0,6.84,4.86,11.51,11.16,11.51a10.91,10.91,0,0,0,8.89-4.16l-2.93-2.65a7.8,7.8,0,0,1-5.88,2.65,6.11,6.11,0,0,1-6.26-5.63h16c0-.51.09-1,.09-1.43C610.27,21.82,606.77,16.27,599.85,16.27Zm-5.68,10c.45-3.45,2.59-5.84,5.64-5.84,3.29,0,5.19,2.56,5.52,5.84Z"/><path d="M624.8,35c-3.83,0-6.5-3.15-6.5-7.1v-.08c0-3.86,2.67-7.06,6.3-7.06,2.47,0,4.07,1.18,5.6,2.78l3.13-3.41a10.93,10.93,0,0,0-8.69-3.82,11.33,11.33,0,0,0-11.32,11.59V28a11.21,11.21,0,0,0,11.24,11.47,10.93,10.93,0,0,0,8.89-4.16l-3-3A7.6,7.6,0,0,1,624.8,35Z"/><path d="M643.7,10.64h-5v6.09H636V21.1h2.76V32.78c0,4.87,2.59,6.51,6.26,6.51a8.49,8.49,0,0,0,4.48-1.13V34a6.58,6.58,0,0,1-3.08.75c-1.69,0-2.68-.79-2.68-2.77V21.1h5.85V16.73H643.7Z"/><rect x="653.85" y="16.73" width="5.02" height="22.18"/><path d="M674.85,16.27a11.48,11.48,0,0,0-11.61,11.59V28a11.36,11.36,0,0,0,11.53,11.47,11.48,11.48,0,0,0,11.65-11.56v-.08A11.38,11.38,0,0,0,674.85,16.27ZM681.44,28c0,3.82-2.55,7-6.59,7-3.87,0-6.62-3.23-6.62-7.1v-.08c0-3.86,2.55-7.06,6.54-7.06s6.67,3.24,6.67,7.14Z"/><path d="M702.53,16.27a7.86,7.86,0,0,0-6.8,3.87V16.73h-5V38.91h5V26.39c0-3.44,2-5.5,4.9-5.5s4.65,2,4.65,5.42v12.6h5V24.76C710.27,19.63,707.43,16.27,702.53,16.27Z"/><circle cx="656.36" cy="10.76" r="2.51"/><polygon points="195.97 11.26 194.99 11.26 194.99 10.71 197.54 10.71 197.54 11.26 196.55 11.26 196.55 14.29 195.97 14.29 195.97 11.26"/><polygon points="198 10.71 198.9 10.71 199.74 13.25 199.75 13.25 200.58 10.71 201.48 10.71 201.48 14.29 200.91 14.29 200.91 11.41 200.91 11.41 199.93 14.29 199.53 14.29 198.56 11.41 198.55 11.41 198.55 14.29 198 14.29 198 10.71"/><path d="M178.38,10.59a2.81,2.81,0,0,0-2.89,2.47,11,11,0,0,0-8-3.09A14.15,14.15,0,0,0,153.19,24.3c0,.2,0,.39,0,.58a8.1,8.1,0,0,1,5.15,7.54,7.94,7.94,0,0,1-.45,2.63,14.32,14.32,0,0,0,9.56,3.49,12.25,12.25,0,0,0,8-3.24A2.79,2.79,0,0,0,178.38,38a2.76,2.76,0,0,0,3-3V13.52a2.77,2.77,0,0,0-3-2.93m-11,21.66a8,8,0,1,1,8-8,8,8,0,0,1-8,8M126.13,10.59a2.81,2.81,0,0,0-2.89,2.47,11,11,0,0,0-8-3.09A14.15,14.15,0,0,0,100.93,24.3a14,14,0,0,0,14.28,14.24,12.25,12.25,0,0,0,8-3.24A2.79,2.79,0,0,0,126.13,38a2.76,2.76,0,0,0,3-3V13.52a2.77,2.77,0,0,0-3-2.93M115,32.25a8,8,0,1,1,8-8,8,8,0,0,1-8,8M25.25,0a2.76,2.76,0,0,0-3,2.92V13.1a10.55,10.55,0,0,0-8-3.13A14.68,14.68,0,0,0,.06,24.3,14.63,14.63,0,0,0,14.33,38.54a12.16,12.16,0,0,0,8.2-3.45A3.09,3.09,0,0,0,25.73,38a2.48,2.48,0,0,0,2.49-2.64V2.92a2.79,2.79,0,0,0-3-2.92m-11,32.25a8,8,0,1,1,8-8,8,8,0,0,1-8,8m54.2-21.66c-1.9,0-2.88.89-3.13,2.87A12.21,12.21,0,0,0,57.12,10,14.66,14.66,0,0,0,42.85,24.26,14.65,14.65,0,0,0,57.12,38.54c3.44,0,6.16-1,7.9-3-.16,5.75-2.94,8.55-8.47,8.55a2.79,2.79,0,0,0-3,3c0,1.89,1.15,3,3.16,3C67.28,50,71,42.33,71,35.76V13.18a2.48,2.48,0,0,0-2.54-2.59M57,32.25a8,8,0,1,1,8-8,8,8,0,0,1-8,8M189.47,10.39a2.86,2.86,0,0,0-2.92,2.93l-.08,21.78a2.82,2.82,0,0,0,2.93,3,2.76,2.76,0,0,0,3-3l.07-21.78a2.79,2.79,0,0,0-3-2.93m-153.6-.12a2.86,2.86,0,0,0-2.93,2.92V35a2.83,2.83,0,0,0,2.93,3,2.76,2.76,0,0,0,3-3V13.19a2.79,2.79,0,0,0-3-2.92m43.3.07a2.86,2.86,0,0,0-2.92,2.92V35a2.82,2.82,0,0,0,2.92,3,2.76,2.76,0,0,0,3-3V13.26a2.78,2.78,0,0,0-3-2.92M97.43,32.21c-1.93-.16-3.13-.7-3.13-2.92V16.73h1.53a2.83,2.83,0,0,0,2.93-2.92,2.77,2.77,0,0,0-2.93-3H94.3V3a2.76,2.76,0,0,0-3-3,2.82,2.82,0,0,0-2.92,3V10.9a2.69,2.69,0,0,0-2.3,2.91,2.81,2.81,0,0,0,2.3,2.89V29.34c0,5.48,3,8.63,8.09,8.63,2.13,0,3.4-1,3.4-2.74a2.69,2.69,0,0,0-2.47-3M137.66,0a2.79,2.79,0,0,0-2.92,2.92V35a2.82,2.82,0,0,0,2.92,3,2.76,2.76,0,0,0,3-3V2.92a2.73,2.73,0,0,0-3-2.92m17.21,29.3-.32-.43a5.85,5.85,0,0,0-.92-.87,3.32,3.32,0,0,0-.36-.26,5.55,5.55,0,0,0-2.08-.81,5.86,5.86,0,0,0-.94-.08,5.52,5.52,0,0,0-2.65.67l-.46.28a5.57,5.57,0,0,0,0,9.23,3.14,3.14,0,0,0,.46.28,5.52,5.52,0,0,0,6.19-.6,5.39,5.39,0,0,0,.76-.75c.11-.14.22-.28.32-.43a5.7,5.7,0,0,0,.51-.94,5.57,5.57,0,0,0,0-4.34,5.79,5.79,0,0,0-.51-.95"/><path d="M120.25,23.06a5.59,5.59,0,0,1,.14,1.23,5.09,5.09,0,0,1,0,.69,4.94,4.94,0,0,1-.12.67,5.43,5.43,0,0,1-10.68-1.36,5.6,5.6,0,0,1,.11-1.09,5.44,5.44,0,0,1,3.2-3.91,5.39,5.39,0,0,1,4.22,0,5.4,5.4,0,0,1,2.77,2.64,5.65,5.65,0,0,1,.41,1.13m-106-4.2a5.43,5.43,0,1,0,5.42,5.43,5.43,5.43,0,0,0-5.42-5.43m155.25.43a4.24,4.24,0,0,0-.5-.18,6.51,6.51,0,0,0-.79-.19,5.55,5.55,0,0,0-.82-.06,5.43,5.43,0,0,0-1.62.25,4.09,4.09,0,0,0-.49.18,5.43,5.43,0,0,0-3.21,3.91,5.6,5.6,0,0,0-.11,1.09,5.42,5.42,0,0,0,1.59,3.84,5.5,5.5,0,0,0,.8.66,5.34,5.34,0,0,0,1.42.69,5.43,5.43,0,0,0,1.62.24,5.55,5.55,0,0,0,.82-.06,5,5,0,0,0,.79-.18,5.19,5.19,0,0,0,1.42-.69,4.61,4.61,0,0,0,.8-.66,5.42,5.42,0,0,0,1.59-3.84,5.6,5.6,0,0,0-.11-1.09,5.44,5.44,0,0,0-3.2-3.91m-110.42,0a5.42,5.42,0,0,0-4.23,0,5.44,5.44,0,0,0-3.2,3.91,5.6,5.6,0,0,0-.11,1.09,5.43,5.43,0,1,0,10.85,0,5.6,5.6,0,0,0-.11-1.09,5.44,5.44,0,0,0-3.2-3.91"/></g></svg>