<svg xmlns="http://www.w3.org/2000/svg" viewBox="0 0 718.61 50"><defs><style>.cls-1{fill:#205ab7;}.cls-2{fill:#fff;}.cls-3{fill:#2a2a2a;}.cls-4{fill:#649a3d;}</style></defs><g id="light_logos" data-name="light logos"><circle class="cls-1" cx="253.43" cy="25.01" r="24"/><path class="cls-2" d="M246.42,23.55a4.78,4.78,0,0,0,.45.45c.31.28.6.52.9.75v1.57l-.38.38c-.41.38-.52.52-.52.82a1.31,1.31,0,0,0,.3.9c.17.22.75.83.75.83v.15l-.68.6a1.24,1.24,0,0,0-.37.9,1.64,1.64,0,0,0,.3.9l.75.82v.15l-.68.75a1.29,1.29,0,0,0-.07,1.8l.9.9,3.3,3.3a1.77,1.77,0,0,0,1.2.53,1.48,1.48,0,0,0,1.2-.53L257.29,36a1.77,1.77,0,0,0,.53-1.2V33.22h-2.18a1.61,1.61,0,0,1-1.57,1.13,1.65,1.65,0,0,1,0-3.3,1.82,1.82,0,0,1,1.57,1.05h2.48a1.87,1.87,0,0,0,1.8,1.2,2,2,0,0,0,0-3.9,1.86,1.86,0,0,0-1.8,1.27h-.23V28.5h-2.62a2.69,2.69,0,0,1-2.4,1.72,2.48,2.48,0,1,1,0-4.95A2.43,2.43,0,0,1,255.19,27h4.13a1.88,1.88,0,1,0,1.8-2.48,1.9,1.9,0,0,0-1.73,1.13h-1.5v-1.2a9.71,9.71,0,0,0,.9-.83l.23-.22c1.78-2,2.32-4.95,2.32-8.7a1.74,1.74,0,0,0-1-1.58l-7-2.92a1.71,1.71,0,0,0-.75-.23,2.38,2.38,0,0,0-.68.15l-7,2.85a1.84,1.84,0,0,0-1,1.65c0,3.6,1,7.05,2.55,8.93m14.7,1.95a.9.9,0,1,1-.9.9A.91.91,0,0,1,261.12,25.5Zm-1.2,4.95a.9.9,0,0,1,0,1.8.92.92,0,0,1-.9-.9A.86.86,0,0,1,259.92,30.45Zm-7.35-14.7a1.83,1.83,0,0,1-1.8-1.8,1.76,1.76,0,0,1,1.8-1.73,1.83,1.83,0,0,1,1.8,1.8A1.77,1.77,0,0,1,252.57,15.75Z"/><path class="cls-2" d="M253.34,32.72a.72.72,0,1,0,.72-.72A.72.72,0,0,0,253.34,32.72Z"/><path class="cls-2" d="M251.77,27.73a1.13,1.13,0,1,0,2.25,0,1.14,1.14,0,0,0-1.12-1.12A1.1,1.1,0,0,0,251.77,27.73Z"/><path class="cls-3" d="M712.32,16.81h.94v3h.54v-3h1v-.54h-2.46Z"/><path class="cls-3" d="M717.78,16.27l-.84,2.46-.78-2.46h-.89v3.49h.54V17l.94,2.8h.39l.93-2.8v2.8h.54V16.27Z"/><polygon class="cls-3" points="309.62 16.73 303.56 16.73 294.55 26.56 294.55 8.25 289.52 8.25 289.52 38.91 294.55 38.91 294.55 32.57 297.63 29.29 304.06 38.91 309.9 38.91 300.97 25.76 309.62 16.73"/><path class="cls-3" d="M321.16,16.27c-6.21,0-10.62,5.21-10.62,11.55v.09c0,6.84,4.86,11.51,11.16,11.51a10.91,10.91,0,0,0,8.89-4.16l-2.92-2.65a7.84,7.84,0,0,1-5.89,2.65,6.12,6.12,0,0,1-6.26-5.63h16c0-.51.08-1,.08-1.43C331.58,21.82,328.08,16.27,321.16,16.27Zm-5.68,10c.45-3.45,2.59-5.84,5.64-5.84,3.3,0,5.19,2.56,5.52,5.84Z"/><path class="cls-3" d="M344.07,33.2,338,16.73h-5.35L341.68,39c-.83,1.89-1.69,2.52-3.09,2.52a6,6,0,0,1-2.92-.84L334,44.37a9.75,9.75,0,0,0,5.15,1.39c3.5,0,5.43-1.68,7.16-6.26l8.65-22.77h-5.19Z"/><path class="cls-3" d="M391.74,25.34l-3.83-2.05A47.73,47.73,0,0,1,384.83,29l-4.95-5.13c3.83-1.47,6.35-3.78,6.35-7.64V16.1c0-4-3.09-7.1-7.66-7.1-5.15,0-8.28,3.45-8.28,7.44v.08a9.74,9.74,0,0,0,2.39,6.14c-3.95,1.68-6.18,4.41-6.18,8.19v.08c0,5.08,4.08,8.4,9.47,8.4a12.53,12.53,0,0,0,8.81-3.82l3.83,4,3.79-2.77L387.83,32A43.34,43.34,0,0,0,391.74,25.34ZM375,16.61a3.36,3.36,0,0,1,3.45-3.53,3.14,3.14,0,0,1,3.26,3.32v.08c0,2.1-1.57,3.49-4.53,4.58-1.61-1.81-2.18-2.9-2.18-4.37Zm1.44,18.44c-2.8,0-4.82-1.81-4.82-4.29v-.08c0-1.89,1.15-3.7,3.83-4.87l6.42,6.67A7.86,7.86,0,0,1,376.47,35.05Z"/><path class="cls-3" d="M420.77,20.18a8.86,8.86,0,0,0-7.41-3.91c-5.19,0-10.09,4.16-10.09,11.51v.08c0,7.35,5,11.51,10.09,11.51a8.65,8.65,0,0,0,7.41-4.16v3.7h5V8.25h-5Zm.08,7.68c0,4.25-3,7.1-6.3,7.1s-6.26-2.81-6.26-7.1v-.08c0-4.37,2.84-7.1,6.26-7.1s6.3,2.82,6.3,7.1Z"/><path class="cls-3" d="M440.05,16.44a18.61,18.61,0,0,0-8.24,1.8l1.36,4a14.91,14.91,0,0,1,6.22-1.39c3.5,0,5.39,1.68,5.39,4.83v.55a17.75,17.75,0,0,0-5.85-.93c-5.31,0-9,2.35-9,7.14v.09c0,4.45,3.66,6.84,7.74,6.84a8.78,8.78,0,0,0,7.08-3.23v2.77h4.86V25.76c0-2.89-.74-5.25-2.35-6.84S443.3,16.44,440.05,16.44Zm4.81,14.49c0,2.81-2.51,4.75-5.8,4.75-2.39,0-4.24-1.22-4.24-3.36v-.09c0-2.31,1.89-3.69,5.1-3.69a13.4,13.4,0,0,1,4.94.88Z"/><path class="cls-3" d="M460.47,10.64h-5v6.09h-2.76V21.1h2.76V32.78c0,4.87,2.59,6.51,6.26,6.51a8.55,8.55,0,0,0,4.49-1.13V34a6.65,6.65,0,0,1-3.09.75c-1.69,0-2.68-.79-2.68-2.77V21.1h5.85V16.73h-5.85Z"/><path class="cls-3" d="M479.29,16.44a18.57,18.57,0,0,0-8.23,1.8l1.36,4a14.83,14.83,0,0,1,6.21-1.39c3.5,0,5.4,1.68,5.4,4.83v.55a17.75,17.75,0,0,0-5.85-.93c-5.31,0-9,2.35-9,7.14v.09c0,4.45,3.67,6.84,7.74,6.84A8.77,8.77,0,0,0,484,36.14v2.77h4.86V25.76c0-2.89-.74-5.25-2.34-6.84S482.54,16.44,479.29,16.44Zm4.82,14.49c0,2.81-2.51,4.75-5.81,4.75-2.38,0-4.24-1.22-4.24-3.36v-.09c0-2.31,1.9-3.69,5.11-3.69a13.48,13.48,0,0,1,4.94.88Z"/><path class="cls-3" d="M518.73,16.27a8.67,8.67,0,0,0-7.41,4.16v-3.7h-5v28.9h5V35.47a8.82,8.82,0,0,0,7.41,3.9c5.15,0,10.09-4.16,10.09-11.51v-.08C528.82,20.39,523.84,16.27,518.73,16.27Zm5,11.59c0,4.37-2.79,7.1-6.21,7.1s-6.34-2.85-6.34-7.1v-.08c0-4.24,3-7.1,6.34-7.1s6.21,2.82,6.21,7.1Z"/><path class="cls-3" d="M538.32,21.73v-5h-5V38.91h5V30.47c0-5.88,3-8.78,7.41-8.78H546V16.31C542.19,16.15,539.68,18.41,538.32,21.73Z"/><path class="cls-3" d="M559.57,16.27A11.48,11.48,0,0,0,548,27.86V28a11.35,11.35,0,0,0,11.52,11.47,11.48,11.48,0,0,0,11.65-11.56v-.08A11.37,11.37,0,0,0,559.57,16.27ZM566.15,28c0,3.82-2.55,7-6.58,7-3.87,0-6.63-3.23-6.63-7.1v-.08c0-3.86,2.55-7.06,6.54-7.06s6.67,3.24,6.67,7.14Z"/><path class="cls-3" d="M581,10.64h-5v6.09h-2.75V21.1H576V32.78c0,4.87,2.6,6.51,6.26,6.51a8.5,8.5,0,0,0,4.49-1.13V34a6.65,6.65,0,0,1-3.09.75C582,34.75,581,34,581,32V21.1h5.84V16.73H581Z"/><path class="cls-3" d="M599.91,16.27c-6.22,0-10.62,5.21-10.62,11.55v.09c0,6.84,4.85,11.51,11.15,11.51a10.92,10.92,0,0,0,8.9-4.16l-2.93-2.65a7.82,7.82,0,0,1-5.88,2.65,6.11,6.11,0,0,1-6.26-5.63h16c0-.51.08-1,.08-1.43C610.32,21.82,606.83,16.27,599.91,16.27Zm-5.68,10c.45-3.45,2.59-5.84,5.64-5.84,3.29,0,5.18,2.56,5.52,5.84Z"/><path class="cls-3" d="M624.86,35c-3.83,0-6.5-3.15-6.5-7.1v-.08c0-3.86,2.67-7.06,6.3-7.06,2.47,0,4.07,1.18,5.6,2.78l3.12-3.41a10.89,10.89,0,0,0-8.68-3.82,11.33,11.33,0,0,0-11.32,11.59V28a11.21,11.21,0,0,0,11.24,11.47,10.93,10.93,0,0,0,8.89-4.16l-3-3A7.6,7.6,0,0,1,624.86,35Z"/><path class="cls-3" d="M643.76,10.64h-5v6.09H636V21.1h2.76V32.78c0,4.87,2.59,6.51,6.26,6.51a8.49,8.49,0,0,0,4.48-1.13V34a6.58,6.58,0,0,1-3.08.75c-1.69,0-2.68-.79-2.68-2.77V21.1h5.85V16.73h-5.85Z"/><rect class="cls-3" x="653.91" y="16.73" width="5.02" height="22.18"/><path class="cls-3" d="M674.91,16.27A11.48,11.48,0,0,0,663.3,27.86V28a11.36,11.36,0,0,0,11.53,11.47,11.48,11.48,0,0,0,11.65-11.56v-.08A11.38,11.38,0,0,0,674.91,16.27ZM681.5,28c0,3.82-2.55,7-6.59,7-3.87,0-6.62-3.23-6.62-7.1v-.08c0-3.86,2.55-7.06,6.54-7.06s6.67,3.24,6.67,7.14Z"/><path class="cls-3" d="M702.59,16.27a7.86,7.86,0,0,0-6.8,3.87V16.73h-5V38.91h5V26.39c0-3.44,2-5.5,4.9-5.5s4.65,2,4.65,5.42v12.6h5V24.76C710.32,19.63,707.48,16.27,702.59,16.27Z"/><circle class="cls-3" cx="656.42" cy="10.76" r="2.51"/><polygon class="cls-3" points="195.92 11.26 194.93 11.26 194.93 10.71 197.48 10.71 197.48 11.26 196.49 11.26 196.49 14.29 195.92 14.29 195.92 11.26"/><polygon class="cls-3" points="197.94 10.71 198.84 10.71 199.68 13.25 199.69 13.25 200.52 10.71 201.43 10.71 201.43 14.29 200.85 14.29 200.85 11.41 200.85 11.41 199.87 14.29 199.47 14.29 198.5 11.41 198.49 11.41 198.49 14.29 197.94 14.29 197.94 10.71"/><path class="cls-3" d="M178.32,10.59a2.81,2.81,0,0,0-2.89,2.47,11,11,0,0,0-8-3.09A14.15,14.15,0,0,0,153.13,24.3c0,.2,0,.39,0,.58a8.1,8.1,0,0,1,5.15,7.54,7.94,7.94,0,0,1-.45,2.63,14.34,14.34,0,0,0,9.56,3.49,12.25,12.25,0,0,0,8-3.24A2.79,2.79,0,0,0,178.32,38a2.76,2.76,0,0,0,3-3V13.52a2.77,2.77,0,0,0-3-2.93m-11,21.66a8,8,0,1,1,7.95-8,8,8,0,0,1-7.95,8M126.07,10.59a2.81,2.81,0,0,0-2.89,2.47,11,11,0,0,0-8-3.09A14.15,14.15,0,0,0,100.87,24.3a14,14,0,0,0,14.28,14.24,12.25,12.25,0,0,0,8-3.24A2.79,2.79,0,0,0,126.07,38a2.76,2.76,0,0,0,3-3V13.52a2.77,2.77,0,0,0-3-2.93M114.9,32.25a8,8,0,1,1,8-8,8,8,0,0,1-8,8M25.19,0a2.76,2.76,0,0,0-3,2.92V13.1A10.55,10.55,0,0,0,14.27,10,14.68,14.68,0,0,0,0,24.3,14.63,14.63,0,0,0,14.27,38.54a12.14,12.14,0,0,0,8.2-3.45A3.09,3.09,0,0,0,25.67,38a2.48,2.48,0,0,0,2.49-2.64V2.92a2.79,2.79,0,0,0-3-2.92m-11,32.25a8,8,0,1,1,8-8,8,8,0,0,1-8,8m54.2-21.66c-1.9,0-2.88.89-3.12,2.87A12.26,12.26,0,0,0,57.06,10,14.66,14.66,0,0,0,42.79,24.26,14.65,14.65,0,0,0,57.06,38.54c3.44,0,6.16-1,7.9-3-.16,5.75-2.94,8.55-8.47,8.55a2.79,2.79,0,0,0-3,3c0,1.89,1.15,3,3.16,3C67.22,50,71,42.33,71,35.76V13.18a2.48,2.48,0,0,0-2.54-2.59M56.94,32.25a8,8,0,1,1,8-8,8,8,0,0,1-8,8M189.41,10.39a2.86,2.86,0,0,0-2.92,2.93l-.07,21.78a2.82,2.82,0,0,0,2.92,3,2.76,2.76,0,0,0,3-3l.07-21.78a2.79,2.79,0,0,0-3-2.93m-153.6-.12a2.86,2.86,0,0,0-2.93,2.92V35a2.83,2.83,0,0,0,2.93,3,2.76,2.76,0,0,0,3-3V13.19a2.79,2.79,0,0,0-3-2.92m43.3.07a2.86,2.86,0,0,0-2.92,2.92V35a2.82,2.82,0,0,0,2.92,3,2.76,2.76,0,0,0,3-3V13.26a2.78,2.78,0,0,0-3-2.92M97.37,32.21c-1.93-.16-3.13-.7-3.13-2.92V16.73h1.53a2.83,2.83,0,0,0,2.93-2.92,2.77,2.77,0,0,0-2.93-3H94.24V3a2.76,2.76,0,0,0-3-3,2.82,2.82,0,0,0-2.92,3V10.9a2.69,2.69,0,0,0-2.3,2.91,2.81,2.81,0,0,0,2.3,2.89V29.34c0,5.48,3,8.63,8.09,8.63,2.13,0,3.41-1,3.41-2.74a2.7,2.7,0,0,0-2.48-3M137.6,0a2.79,2.79,0,0,0-2.92,2.92V35a2.82,2.82,0,0,0,2.92,3,2.76,2.76,0,0,0,3-3V2.92a2.73,2.73,0,0,0-3-2.92m17.21,29.3-.32-.43a5.85,5.85,0,0,0-.92-.87,3.32,3.32,0,0,0-.36-.26,5.55,5.55,0,0,0-2.08-.81,5.86,5.86,0,0,0-.94-.08,5.52,5.52,0,0,0-2.65.67l-.46.28a5.57,5.57,0,0,0,0,9.23,3.14,3.14,0,0,0,.46.28,5.52,5.52,0,0,0,6.19-.6,5.39,5.39,0,0,0,.76-.75c.11-.14.22-.28.32-.43a5.7,5.7,0,0,0,.51-.94,5.57,5.57,0,0,0,0-4.34,5.79,5.79,0,0,0-.51-.95"/><path class="cls-4" d="M120.19,23.06a5.59,5.59,0,0,1,.14,1.23,5.09,5.09,0,0,1,0,.69,4.94,4.94,0,0,1-.12.67,5.43,5.43,0,0,1-10.68-1.36,5.6,5.6,0,0,1,.11-1.09,5.44,5.44,0,0,1,3.2-3.91,5.42,5.42,0,0,1,4.23,0,5.42,5.42,0,0,1,2.76,2.64,5.65,5.65,0,0,1,.41,1.13m-106-4.2a5.43,5.43,0,1,0,5.42,5.43,5.43,5.43,0,0,0-5.42-5.43m155.25.43a4.24,4.24,0,0,0-.5-.18,6.51,6.51,0,0,0-.79-.19,5.55,5.55,0,0,0-.82-.06,5.43,5.43,0,0,0-1.62.25,4.09,4.09,0,0,0-.49.18A5.43,5.43,0,0,0,162,23.2a5.6,5.6,0,0,0-.11,1.09,5.42,5.42,0,0,0,1.59,3.84,5.5,5.5,0,0,0,.8.66,5.34,5.34,0,0,0,1.42.69,5.43,5.43,0,0,0,1.62.24,5.55,5.55,0,0,0,.82-.06,5,5,0,0,0,.79-.18,5.19,5.19,0,0,0,1.42-.69,4.61,4.61,0,0,0,.8-.66,5.42,5.42,0,0,0,1.59-3.84,5.6,5.6,0,0,0-.11-1.09,5.44,5.44,0,0,0-3.2-3.91m-110.42,0a5.42,5.42,0,0,0-4.23,0,5.44,5.44,0,0,0-3.2,3.91,5.6,5.6,0,0,0-.11,1.09,5.43,5.43,0,1,0,10.85,0,5.6,5.6,0,0,0-.11-1.09,5.44,5.44,0,0,0-3.2-3.91"/></g></svg>