<svg xmlns="http://www.w3.org/2000/svg" viewBox="0 0 718.61 50"><defs><style>.cls-1{fill:#fff;}</style></defs><g id="light_logos" data-name="light logos"><circle class="cls-1" cx="261.2" cy="26.42" r="0.9"/><circle class="cls-1" cx="260" cy="31.37" r="0.9"/><path class="cls-1" d="M252.65,12.25a1.76,1.76,0,0,0-1.8,1.72,1.83,1.83,0,0,0,1.8,1.8,1.76,1.76,0,0,0,1.8-1.72A1.83,1.83,0,0,0,252.65,12.25Z"/><path class="cls-1" d="M253.7,1a24,24,0,1,0,24,24A24,24,0,0,0,253.7,1Zm7.5,27.3A1.88,1.88,0,0,1,259.4,27h-4.13A2.43,2.43,0,0,0,253,25.3a2.48,2.48,0,1,0,0,4.95,2.68,2.68,0,0,0,2.4-1.73H258V30.7h.23a1.88,1.88,0,0,1,1.8-1.28,1.95,1.95,0,0,1,0,3.9,1.88,1.88,0,0,1-1.8-1.2h-2.48a1.82,1.82,0,0,0-1.57-1,1.65,1.65,0,0,0,0,3.3,1.61,1.61,0,0,0,1.57-1.12h2.18v1.57a1.81,1.81,0,0,1-.52,1.2l-3.53,3.53a1.5,1.5,0,0,1-1.2.52,1.76,1.76,0,0,1-1.2-.52l-3.3-3.3-.9-.9a1.29,1.29,0,0,1,.07-1.8l.68-.75v-.15l-.75-.83a1.58,1.58,0,0,1-.3-.9,1.28,1.28,0,0,1,.37-.9l.68-.6v-.15l-.75-.82a1.64,1.64,0,0,1-.3-.9,1,1,0,0,1,.52-.83l.38-.37V24.77A7.45,7.45,0,0,1,247,24l-.45-.45A16.26,16.26,0,0,1,244,14.65,1.84,1.84,0,0,1,245,13l7-2.85a2.08,2.08,0,0,1,.68-.15,1.64,1.64,0,0,1,.75.22l7,2.93a1.72,1.72,0,0,1,1.06,1.57,15.5,15.5,0,0,1-2.33,8.7l-.23.23a7.51,7.51,0,0,1-.9.82v1.2h1.5a1.91,1.91,0,0,1,1.73-1.12,1.88,1.88,0,0,1,0,3.75Zm-7.09-.54a1.13,1.13,0,1,1-2.25,0A1.1,1.1,0,0,1,253,26.64,1.15,1.15,0,0,1,254.11,27.76Zm.75,5a.72.72,0,1,1-.72-.72A.72.72,0,0,1,254.86,32.75Z"/><path class="cls-1" d="M712.5,16.81h.93v3H714v-3h1v-.54H712.5Z"/><path class="cls-1" d="M718,16.27l-.83,2.46-.79-2.46h-.88v3.49H716V17l.93,2.8h.39l.94-2.8v2.8h.54V16.27Z"/><polygon class="cls-1" points="309.79 16.73 303.74 16.73 294.72 26.56 294.72 8.25 289.7 8.25 289.7 38.91 294.72 38.91 294.72 32.57 297.81 29.29 304.23 38.91 310.08 38.91 301.14 25.76 309.79 16.73"/><path class="cls-1" d="M321.34,16.27c-6.22,0-10.62,5.21-10.62,11.55v.09c0,6.84,4.85,11.51,11.15,11.51a10.92,10.92,0,0,0,8.9-4.16l-2.93-2.65A7.84,7.84,0,0,1,322,35.26a6.11,6.11,0,0,1-6.26-5.63h16c0-.51.08-1,.08-1.43C331.75,21.82,328.26,16.27,321.34,16.27Zm-5.68,10c.45-3.45,2.59-5.84,5.64-5.84,3.29,0,5.18,2.56,5.51,5.84Z"/><path class="cls-1" d="M344.24,33.2l-6.09-16.47H332.8L341.85,39c-.82,1.89-1.68,2.52-3.08,2.52a6,6,0,0,1-2.93-.84l-1.69,3.74a9.77,9.77,0,0,0,5.15,1.39c3.5,0,5.43-1.68,7.16-6.26l8.65-22.77h-5.19Z"/><path class="cls-1" d="M391.92,25.34l-3.83-2.05A49.22,49.22,0,0,1,385,29l-4.94-5.13c3.83-1.47,6.34-3.78,6.34-7.64V16.1c0-4-3.09-7.1-7.66-7.1-5.14,0-8.27,3.45-8.27,7.44v.08a9.78,9.78,0,0,0,2.38,6.14c-4,1.68-6.17,4.41-6.17,8.19v.08c0,5.08,4.08,8.4,9.47,8.4A12.53,12.53,0,0,0,385,35.51l3.83,4,3.79-2.77L388,32A44.16,44.16,0,0,0,391.92,25.34ZM375.2,16.61a3.36,3.36,0,0,1,3.46-3.53,3.14,3.14,0,0,1,3.25,3.32v.08c0,2.1-1.56,3.49-4.53,4.58-1.6-1.81-2.18-2.9-2.18-4.37Zm1.44,18.44c-2.8,0-4.81-1.81-4.81-4.29v-.08c0-1.89,1.15-3.7,3.82-4.87l6.43,6.67A7.88,7.88,0,0,1,376.64,35.05Z"/><path class="cls-1" d="M420.94,20.18a8.84,8.84,0,0,0-7.41-3.91c-5.19,0-10.09,4.16-10.09,11.51v.08c0,7.35,5,11.51,10.09,11.51a8.64,8.64,0,0,0,7.41-4.16v3.7h5V8.25h-5Zm.08,7.68c0,4.25-3,7.1-6.3,7.1s-6.25-2.81-6.25-7.1v-.08c0-4.37,2.84-7.1,6.25-7.1s6.3,2.82,6.3,7.1Z"/><path class="cls-1" d="M440.22,16.44a18.57,18.57,0,0,0-8.23,1.8l1.36,4a14.83,14.83,0,0,1,6.21-1.39c3.5,0,5.4,1.68,5.4,4.83v.55a17.75,17.75,0,0,0-5.85-.93c-5.31,0-9,2.35-9,7.14v.09c0,4.45,3.67,6.84,7.74,6.84a8.77,8.77,0,0,0,7.08-3.23v2.77h4.86V25.76c0-2.89-.74-5.25-2.34-6.84S443.47,16.44,440.22,16.44ZM445,30.93c0,2.81-2.51,4.75-5.81,4.75-2.38,0-4.24-1.22-4.24-3.36v-.09c0-2.31,1.9-3.69,5.11-3.69a13.48,13.48,0,0,1,4.94.88Z"/><path class="cls-1" d="M460.65,10.64h-5v6.09h-2.75V21.1h2.75V32.78c0,4.87,2.6,6.51,6.26,6.51a8.5,8.5,0,0,0,4.49-1.13V34a6.65,6.65,0,0,1-3.09.75c-1.68,0-2.67-.79-2.67-2.77V21.1h5.84V16.73h-5.84Z"/><path class="cls-1" d="M479.47,16.44a18.61,18.61,0,0,0-8.24,1.8l1.36,4a14.91,14.91,0,0,1,6.22-1.39c3.5,0,5.39,1.68,5.39,4.83v.55a17.75,17.75,0,0,0-5.85-.93c-5.31,0-9,2.35-9,7.14v.09c0,4.45,3.66,6.84,7.74,6.84a8.78,8.78,0,0,0,7.08-3.23v2.77H489V25.76c0-2.89-.74-5.25-2.35-6.84S482.72,16.44,479.47,16.44Zm4.81,14.49c0,2.81-2.51,4.75-5.8,4.75-2.39,0-4.24-1.22-4.24-3.36v-.09c0-2.31,1.89-3.69,5.1-3.69a13.4,13.4,0,0,1,4.94.88Z"/><path class="cls-1" d="M518.91,16.27a8.66,8.66,0,0,0-7.41,4.16v-3.7h-5v28.9h5V35.47a8.81,8.81,0,0,0,7.41,3.9c5.14,0,10.08-4.16,10.08-11.51v-.08C529,20.39,524,16.27,518.91,16.27Zm5,11.59c0,4.37-2.8,7.1-6.22,7.1s-6.34-2.85-6.34-7.1v-.08c0-4.24,3-7.1,6.34-7.1s6.22,2.82,6.22,7.1Z"/><path class="cls-1" d="M538.49,21.73v-5h-5V38.91h5V30.47c0-5.88,3-8.78,7.41-8.78h.29V16.31C542.36,16.15,539.85,18.41,538.49,21.73Z"/><path class="cls-1" d="M559.74,16.27a11.48,11.48,0,0,0-11.61,11.59V28a11.36,11.36,0,0,0,11.53,11.47,11.48,11.48,0,0,0,11.65-11.56v-.08A11.38,11.38,0,0,0,559.74,16.27ZM566.33,28c0,3.82-2.56,7-6.59,7-3.87,0-6.63-3.23-6.63-7.1v-.08c0-3.86,2.55-7.06,6.55-7.06s6.67,3.24,6.67,7.14Z"/><path class="cls-1" d="M581.16,10.64h-5v6.09h-2.76V21.1h2.76V32.78c0,4.87,2.59,6.51,6.26,6.51a8.49,8.49,0,0,0,4.48-1.13V34a6.58,6.58,0,0,1-3.08.75c-1.69,0-2.68-.79-2.68-2.77V21.1H587V16.73h-5.85Z"/><path class="cls-1" d="M600.08,16.27c-6.21,0-10.62,5.21-10.62,11.55v.09c0,6.84,4.86,11.51,11.16,11.51a10.91,10.91,0,0,0,8.89-4.16l-2.92-2.65a7.84,7.84,0,0,1-5.89,2.65,6.12,6.12,0,0,1-6.26-5.63h16c0-.51.08-1,.08-1.43C610.5,21.82,607,16.27,600.08,16.27Zm-5.68,10c.45-3.45,2.59-5.84,5.64-5.84,3.3,0,5.19,2.56,5.52,5.84Z"/><path class="cls-1" d="M625,35c-3.83,0-6.51-3.15-6.51-7.1v-.08c0-3.86,2.68-7.06,6.3-7.06,2.47,0,4.08,1.18,5.6,2.78l3.13-3.41a10.91,10.91,0,0,0-8.69-3.82,11.34,11.34,0,0,0-11.32,11.59V28a11.22,11.22,0,0,0,11.24,11.47,10.93,10.93,0,0,0,8.89-4.16l-3-3A7.63,7.63,0,0,1,625,35Z"/><path class="cls-1" d="M643.93,10.64h-5v6.09h-2.76V21.1H639V32.78c0,4.87,2.6,6.51,6.26,6.51a8.55,8.55,0,0,0,4.49-1.13V34a6.65,6.65,0,0,1-3.09.75c-1.69,0-2.68-.79-2.68-2.77V21.1h5.85V16.73h-5.85Z"/><rect class="cls-1" x="654.09" y="16.73" width="5.02" height="22.18"/><path class="cls-1" d="M675.09,16.27a11.48,11.48,0,0,0-11.61,11.59V28A11.36,11.36,0,0,0,675,39.42a11.48,11.48,0,0,0,11.65-11.56v-.08A11.38,11.38,0,0,0,675.09,16.27ZM681.68,28c0,3.82-2.56,7-6.59,7-3.87,0-6.63-3.23-6.63-7.1v-.08c0-3.86,2.55-7.06,6.55-7.06s6.67,3.24,6.67,7.14Z"/><path class="cls-1" d="M702.76,16.27A7.83,7.83,0,0,0,696,20.14V16.73h-5V38.91h5V26.39c0-3.44,2-5.5,4.89-5.5s4.66,2,4.66,5.42v12.6h5V24.76C710.5,19.63,707.66,16.27,702.76,16.27Z"/><circle class="cls-1" cx="656.6" cy="10.76" r="2.51"/><polygon class="cls-1" points="195.74 11.26 194.75 11.26 194.75 10.71 197.31 10.71 197.31 11.26 196.32 11.26 196.32 14.29 195.74 14.29 195.74 11.26"/><polygon class="cls-1" points="197.77 10.71 198.67 10.71 199.51 13.25 199.52 13.25 200.35 10.71 201.25 10.71 201.25 14.29 200.68 14.29 200.68 11.41 200.67 11.41 199.69 14.29 199.29 14.29 198.33 11.41 198.32 11.41 198.32 14.29 197.77 14.29 197.77 10.71"/><path class="cls-1" d="M178.15,10.59a2.81,2.81,0,0,0-2.89,2.47,11,11,0,0,0-8-3.09A14.15,14.15,0,0,0,153,24.3c0,.2,0,.39,0,.58a8.1,8.1,0,0,1,5.14,7.54,8.2,8.2,0,0,1-.44,2.63,14.32,14.32,0,0,0,9.56,3.49,12.25,12.25,0,0,0,8-3.24A2.79,2.79,0,0,0,178.15,38a2.76,2.76,0,0,0,3-3V13.52a2.77,2.77,0,0,0-3-2.93m-11,21.66a8,8,0,1,1,8-8,8,8,0,0,1-8,8M125.89,10.59A2.82,2.82,0,0,0,123,13.06,11,11,0,0,0,115,10,14.15,14.15,0,0,0,100.7,24.3,13.94,13.94,0,0,0,115,38.54a12.23,12.23,0,0,0,8-3.24A2.81,2.81,0,0,0,125.89,38a2.76,2.76,0,0,0,3-3V13.52a2.77,2.77,0,0,0-3-2.93M114.73,32.25a8,8,0,1,1,8-8,8,8,0,0,1-8,8M25,0a2.76,2.76,0,0,0-3,2.92V13.1a10.58,10.58,0,0,0-8-3.13A14.68,14.68,0,0,0-.17,24.3,14.63,14.63,0,0,0,14.1,38.54a12.16,12.16,0,0,0,8.2-3.45A3.08,3.08,0,0,0,25.5,38,2.49,2.49,0,0,0,28,35.33V2.92A2.79,2.79,0,0,0,25,0M14,32.25a8,8,0,1,1,8-8,8,8,0,0,1-8,8m54.2-21.66c-1.9,0-2.87.89-3.12,2.87A12.23,12.23,0,0,0,56.89,10,14.66,14.66,0,0,0,42.62,24.26,14.65,14.65,0,0,0,56.89,38.54c3.44,0,6.15-1,7.9-3-.17,5.75-2.94,8.55-8.47,8.55a2.79,2.79,0,0,0-3,3c0,1.89,1.15,3,3.16,3C67,50,70.78,42.33,70.78,35.76V13.18a2.48,2.48,0,0,0-2.54-2.59M56.76,32.25a8,8,0,1,1,8-8,8,8,0,0,1-8,8M189.24,10.39a2.86,2.86,0,0,0-2.92,2.93l-.08,21.78a2.82,2.82,0,0,0,2.92,3,2.76,2.76,0,0,0,3-3l.07-21.78a2.8,2.8,0,0,0-3-2.93M35.63,10.27a2.86,2.86,0,0,0-2.92,2.92V35a2.82,2.82,0,0,0,2.92,3,2.76,2.76,0,0,0,3-3V13.19a2.78,2.78,0,0,0-3-2.92m43.31.07A2.86,2.86,0,0,0,76,13.26V35a2.83,2.83,0,0,0,2.93,3,2.76,2.76,0,0,0,3-3V13.26a2.79,2.79,0,0,0-3-2.92M97.2,32.21c-1.94-.16-3.13-.7-3.13-2.92V16.73H95.6a2.83,2.83,0,0,0,2.92-2.92,2.77,2.77,0,0,0-2.92-3H94.07V3a2.76,2.76,0,0,0-3-3,2.82,2.82,0,0,0-2.93,3V10.9a2.69,2.69,0,0,0-2.29,2.91,2.8,2.8,0,0,0,2.29,2.89V29.34c0,5.48,3,8.63,8.1,8.63,2.13,0,3.4-1,3.4-2.74a2.69,2.69,0,0,0-2.47-3M137.42,0a2.79,2.79,0,0,0-2.92,2.92V35a2.82,2.82,0,0,0,2.92,3,2.76,2.76,0,0,0,3-3V2.92a2.74,2.74,0,0,0-3-2.92m17.22,29.3c-.1-.14-.21-.29-.33-.43a5.37,5.37,0,0,0-.91-.87l-.36-.26a5.62,5.62,0,0,0-3-.89,5.52,5.52,0,0,0-2.65.67l-.46.28a5.57,5.57,0,0,0,0,9.23,3.14,3.14,0,0,0,.46.28,5.52,5.52,0,0,0,6.19-.6,4.84,4.84,0,0,0,.75-.75,4.46,4.46,0,0,0,.33-.43,5.7,5.7,0,0,0,.51-.94,5.57,5.57,0,0,0,0-4.34,5.79,5.79,0,0,0-.51-.95"/><path class="cls-1" d="M120,23.06a5,5,0,0,1,.14,1.23,5.12,5.12,0,0,1,0,.69,5,5,0,0,1-.13.67,5.42,5.42,0,0,1-10.67-1.36,4.92,4.92,0,0,1,.11-1.09,5.44,5.44,0,0,1,3.2-3.91,5.39,5.39,0,0,1,4.22,0,5.4,5.4,0,0,1,2.77,2.64,5.62,5.62,0,0,1,.4,1.13M14,18.86a5.43,5.43,0,1,0,5.43,5.43A5.43,5.43,0,0,0,14,18.86m155.26.43a5,5,0,0,0-.5-.18,7,7,0,0,0-.79-.19,5.69,5.69,0,0,0-.83-.06,5.37,5.37,0,0,0-1.61.25,4.24,4.24,0,0,0-.5.18,5.44,5.44,0,0,0-3.2,3.91,5.6,5.6,0,0,0-.11,1.09,5.42,5.42,0,0,0,1.59,3.84,4.61,4.61,0,0,0,.8.66,5.19,5.19,0,0,0,1.42.69,5.36,5.36,0,0,0,1.61.24,5.69,5.69,0,0,0,.83-.06,5.25,5.25,0,0,0,2.21-.87,5,5,0,0,0,.8-.66,5.42,5.42,0,0,0,1.59-3.84,5.6,5.6,0,0,0-.11-1.09,5.44,5.44,0,0,0-3.2-3.91m-110.43,0a5.39,5.39,0,0,0-4.22,0,5.44,5.44,0,0,0-3.2,3.91,5.6,5.6,0,0,0-.11,1.09,5.43,5.43,0,1,0,10.85,0,5.6,5.6,0,0,0-.11-1.09,5.43,5.43,0,0,0-3.21-3.91"/></g></svg>