<svg xmlns="http://www.w3.org/2000/svg" viewBox="0 0 519.73 50"><defs><style>.cls-1{fill:#fff;}</style></defs><g id="light_logos" data-name="light logos"><path class="cls-1" d="M253.47,1a24,24,0,1,0,24,24A24,24,0,0,0,253.47,1Zm15,26.58a3.48,3.48,0,0,1-1.73-.45l-2,2.13a3.39,3.39,0,0,1,.5,1.8,3.62,3.62,0,0,1-7.23,0,3.66,3.66,0,0,1,.21-1.15l-2-1.31a6,6,0,0,1-8.24,1.07l-2,2.13A3.64,3.64,0,1,1,242.71,30a3.71,3.71,0,0,1,1.93.53l2-2.13a5.58,5.58,0,0,1-1-3.28,5.51,5.51,0,0,1,1-3.15L244,19.55a3.71,3.71,0,0,1-1.89.54,3.57,3.57,0,0,1-3.61-3.53A3.67,3.67,0,0,1,242.12,13a3.57,3.57,0,0,1,3.62,3.52,3.33,3.33,0,0,1-.47,1.72l2.61,2.38a5.93,5.93,0,0,1,3.66-1.23A5.69,5.69,0,0,1,257.08,27l2.14,1.39a3.76,3.76,0,0,1,2.44-.9,3.82,3.82,0,0,1,1.81.49l2-2.13A3.71,3.71,0,0,1,264.9,24a3.57,3.57,0,1,1,3.53,3.6Z"/><path class="cls-1" d="M251.54,21.6a3.57,3.57,0,1,0,3.65,3.56A3.62,3.62,0,0,0,251.54,21.6Z"/><path class="cls-1" d="M513.47,15h.93v3H515V15h1v-.54h-2.46Z"/><path class="cls-1" d="M518.92,14.43l-.83,2.46-.79-2.46h-.88v3.49H517v-2.8l.93,2.8h.39l.94-2.8v2.8h.54V14.43Z"/><rect class="cls-1" x="289.47" y="14.89" width="4.96" height="21.89"/><path class="cls-1" d="M311.63,14.43a7.74,7.74,0,0,0-6.7,3.81V14.89h-5V36.77h5V24.42c0-3.4,2-5.43,4.83-5.43s4.59,2,4.59,5.35V36.77h4.92v-14C319.27,17.75,316.46,14.43,311.63,14.43Z"/><path class="cls-1" d="M330.13,8.87h-4.92v6h-2.72V19.2h2.72V30.72c0,4.81,2.56,6.43,6.18,6.43A8.42,8.42,0,0,0,335.82,36V31.92a6.49,6.49,0,0,1-3.05.75c-1.67,0-2.64-.79-2.64-2.74V19.2h5.77V14.89h-5.77Z"/><path class="cls-1" d="M348.8,14.43c-6.13,0-10.48,5.14-10.48,11.4v.08c0,6.76,4.79,11.36,11,11.36a10.81,10.81,0,0,0,8.78-4.1l-2.89-2.62a7.73,7.73,0,0,1-5.81,2.62,6,6,0,0,1-6.17-5.56H359c0-.5.08-.95.08-1.41C359.08,19.9,355.63,14.43,348.8,14.43Zm-5.61,9.87c.45-3.4,2.56-5.77,5.57-5.77,3.25,0,5.12,2.53,5.45,5.77Z"/><rect class="cls-1" x="363.53" y="6.51" width="4.96" height="30.26"/><rect class="cls-1" x="374.15" y="6.51" width="4.96" height="30.26"/><rect class="cls-1" x="384.79" y="14.89" width="4.96" height="21.89"/><path class="cls-1" d="M411.28,18.16a9.19,9.19,0,0,0-7.51-3.73c-5,0-9.76,3.81-9.76,10.28v.08c0,6.43,4.68,10.24,9.76,10.24a9,9,0,0,0,7.55-4v1.66c0,4.39-2.39,6.67-6.78,6.67a13.73,13.73,0,0,1-7.64-2.28l-1.83,3.78a18.18,18.18,0,0,0,9.59,2.61c3.86,0,6.86-1,8.82-3,1.78-1.82,2.72-4.55,2.72-8.24V14.89h-4.92Zm.08,6.59a6,6,0,0,1-6.29,6,5.89,5.89,0,0,1-6.1-6v-.08a5.82,5.82,0,0,1,6.1-6,6,6,0,0,1,6.29,6Z"/><path class="cls-1" d="M431,14.43c-6.14,0-10.48,5.14-10.48,11.4v.08c0,6.76,4.79,11.36,11,11.36a10.77,10.77,0,0,0,8.77-4.1l-2.88-2.62a7.74,7.74,0,0,1-5.81,2.62,6,6,0,0,1-6.18-5.56h15.77c0-.5.08-.95.08-1.41C441.29,19.9,437.83,14.43,431,14.43ZM425.4,24.3c.45-3.4,2.56-5.77,5.57-5.77,3.25,0,5.12,2.53,5.44,5.77Z"/><path class="cls-1" d="M457.21,14.43a7.74,7.74,0,0,0-6.7,3.81V14.89h-5V36.77h5V24.42c0-3.4,2-5.43,4.83-5.43s4.6,2,4.6,5.35V36.77h4.91v-14C464.85,17.75,462.05,14.43,457.21,14.43Z"/><path class="cls-1" d="M480.22,32.88c-3.78,0-6.42-3.11-6.42-7v-.08c0-3.82,2.64-7,6.22-7,2.44,0,4,1.16,5.52,2.74l3.09-3.36a10.73,10.73,0,0,0-8.57-3.77,11.18,11.18,0,0,0-11.17,11.44V26A11.07,11.07,0,0,0,480,37.27a10.77,10.77,0,0,0,8.77-4.1l-3-3A7.52,7.52,0,0,1,480.22,32.88Z"/><path class="cls-1" d="M511.46,26.2c0-6.3-3.45-11.77-10.28-11.77-6.13,0-10.48,5.14-10.48,11.4v.08c0,6.76,4.8,11.36,11,11.36a10.79,10.79,0,0,0,8.78-4.1l-2.89-2.62a7.71,7.71,0,0,1-5.81,2.62,6,6,0,0,1-6.17-5.56h15.76C511.42,27.11,511.46,26.66,511.46,26.2Zm-15.88-1.9c.44-3.4,2.56-5.77,5.56-5.77,3.25,0,5.12,2.53,5.45,5.77Z"/><circle class="cls-1" cx="291.94" cy="8.99" r="2.48"/><circle class="cls-1" cx="387.27" cy="8.99" r="2.48"/><polygon class="cls-1" points="195.89 11.26 194.9 11.26 194.9 10.71 197.45 10.71 197.45 11.26 196.46 11.26 196.46 14.29 195.89 14.29 195.89 11.26"/><polygon class="cls-1" points="197.91 10.71 198.81 10.71 199.65 13.25 199.66 13.25 200.49 10.71 201.4 10.71 201.4 14.29 200.83 14.29 200.83 11.41 200.82 11.41 199.84 14.29 199.44 14.29 198.47 11.41 198.46 11.41 198.46 14.29 197.91 14.29 197.91 10.71"/><path class="cls-1" d="M178.29,10.59a2.81,2.81,0,0,0-2.89,2.47,11,11,0,0,0-8-3.09A14.15,14.15,0,0,0,153.1,24.3c0,.2,0,.39,0,.58a8.1,8.1,0,0,1,5.15,7.54,7.94,7.94,0,0,1-.45,2.63,14.36,14.36,0,0,0,9.56,3.49,12.25,12.25,0,0,0,8-3.24A2.79,2.79,0,0,0,178.29,38a2.76,2.76,0,0,0,3-3V13.52a2.76,2.76,0,0,0-3-2.93m-11,21.66a8,8,0,1,1,7.95-8,8,8,0,0,1-7.95,8M126,10.59a2.81,2.81,0,0,0-2.89,2.47,11,11,0,0,0-8-3.09A14.15,14.15,0,0,0,100.85,24.3a13.94,13.94,0,0,0,14.27,14.24,12.25,12.25,0,0,0,8-3.24A2.79,2.79,0,0,0,126,38a2.76,2.76,0,0,0,3-3V13.52a2.77,2.77,0,0,0-3-2.93M114.87,32.25a8,8,0,1,1,8-8,8,8,0,0,1-8,8M25.16,0a2.77,2.77,0,0,0-3,2.93V13.1a10.55,10.55,0,0,0-8-3.13A14.68,14.68,0,0,0,0,24.3,14.63,14.63,0,0,0,14.24,38.54a12.09,12.09,0,0,0,8.2-3.45A3.09,3.09,0,0,0,25.64,38a2.49,2.49,0,0,0,2.5-2.64V2.93a2.8,2.8,0,0,0-3-2.93m-11,32.25a8,8,0,1,1,8-8,8,8,0,0,1-8,8m54.2-21.66c-1.9,0-2.88.89-3.12,2.87A12.23,12.23,0,0,0,57,10,14.66,14.66,0,0,0,42.76,24.26,14.65,14.65,0,0,0,57,38.54c3.43,0,6.15-1,7.89-3-.16,5.75-2.94,8.55-8.47,8.55a2.79,2.79,0,0,0-3,3c0,1.89,1.15,3,3.16,3,10.54,0,14.28-7.67,14.28-14.24V13.18a2.48,2.48,0,0,0-2.54-2.59M56.91,32.25a8,8,0,1,1,8-8,8,8,0,0,1-8,8M189.38,10.39a2.86,2.86,0,0,0-2.92,2.93l-.07,21.78a2.82,2.82,0,0,0,2.92,3,2.76,2.76,0,0,0,3-3l.07-21.78a2.79,2.79,0,0,0-3-2.93m-153.6-.12a2.86,2.86,0,0,0-2.93,2.92V35a2.83,2.83,0,0,0,2.93,3,2.76,2.76,0,0,0,3-3V13.19a2.79,2.79,0,0,0-3-2.92m43.3.07a2.86,2.86,0,0,0-2.92,2.92V35a2.82,2.82,0,0,0,2.92,3,2.76,2.76,0,0,0,3-3V13.26a2.79,2.79,0,0,0-3-2.92M97.34,32.21c-1.93-.16-3.13-.7-3.13-2.92V16.73h1.53a2.83,2.83,0,0,0,2.93-2.92,2.77,2.77,0,0,0-2.93-3H94.21V3a2.76,2.76,0,0,0-3-3,2.82,2.82,0,0,0-2.92,3V10.9A2.7,2.7,0,0,0,86,13.81a2.81,2.81,0,0,0,2.3,2.89V29.34c0,5.48,3,8.63,8.09,8.63,2.13,0,3.41-1,3.41-2.74a2.7,2.7,0,0,0-2.48-3M137.57,0a2.8,2.8,0,0,0-2.92,2.93V35a2.82,2.82,0,0,0,2.92,3,2.76,2.76,0,0,0,3-3V2.93a2.74,2.74,0,0,0-3-2.93m17.21,29.3c-.1-.14-.21-.29-.32-.42a5.82,5.82,0,0,0-.91-.88l-.37-.26a5.55,5.55,0,0,0-2.08-.81,5.74,5.74,0,0,0-.93-.08,5.55,5.55,0,0,0-2.66.67l-.46.28a5.58,5.58,0,0,0,0,9.24c.15.1.31.19.46.27a5.56,5.56,0,0,0,6.2-.59,6.73,6.73,0,0,0,.75-.76c.11-.14.22-.28.32-.43a5.32,5.32,0,0,0,.51-.94,5.57,5.57,0,0,0,0-4.34,5.79,5.79,0,0,0-.51-.95"/><path class="cls-1" d="M120.16,23.06a5.59,5.59,0,0,1,.14,1.23c0,.24,0,.47,0,.69s-.08.45-.13.67a5.43,5.43,0,0,1-10.68-1.36,5.6,5.6,0,0,1,.11-1.09,5.44,5.44,0,0,1,3.2-3.91,5.42,5.42,0,0,1,4.23,0,5.42,5.42,0,0,1,2.76,2.64,5.65,5.65,0,0,1,.41,1.13m-106-4.2a5.43,5.43,0,1,0,5.42,5.43,5.43,5.43,0,0,0-5.42-5.43m155.25.43a4.24,4.24,0,0,0-.5-.18,5,5,0,0,0-.79-.18,4.47,4.47,0,0,0-.82-.07,5.43,5.43,0,0,0-1.62.25,4.84,4.84,0,0,0-.49.18A5.43,5.43,0,0,0,162,23.2a5.6,5.6,0,0,0-.11,1.09,5.42,5.42,0,0,0,1.59,3.84,5.52,5.52,0,0,0,2.22,1.35,5.43,5.43,0,0,0,1.62.24,5.55,5.55,0,0,0,.82-.06,5,5,0,0,0,.79-.18,5.19,5.19,0,0,0,1.42-.69,4.61,4.61,0,0,0,.8-.66,5.38,5.38,0,0,0,1.59-3.84,4.92,4.92,0,0,0-.11-1.09,5.44,5.44,0,0,0-3.2-3.91M59,19.29a5.39,5.39,0,0,0-4.22,0,5.43,5.43,0,0,0-3.21,3.91,5.6,5.6,0,0,0-.11,1.09,5.43,5.43,0,1,0,10.85,0,5.6,5.6,0,0,0-.11-1.09A5.44,5.44,0,0,0,59,19.29"/></g></svg>